<mxfile host="app.diagrams.net" modified="2022-12-15T05:37:14.581Z" agent="5.0 (Windows NT 10.0; Win64; x64) AppleWebKit/537.36 (KHTML, like Gecko) Chrome/108.0.0.0 Safari/537.36" etag="AwnzMI1RAL8W0UQkQQp0" version="20.7.2" type="github">
  <diagram id="GysB7ATl3gUx672nYCxM" name="第 1 页">
    <mxGraphModel dx="989" dy="488" grid="1" gridSize="10" guides="1" tooltips="1" connect="1" arrows="1" fold="1" page="1" pageScale="1" pageWidth="827" pageHeight="1169" math="0" shadow="0">
      <root>
        <mxCell id="0" />
        <mxCell id="1" parent="0" />
        <mxCell id="BK3HkUFeYTMl9-7FlGzP-2" value="" style="rounded=1;whiteSpace=wrap;html=1;" vertex="1" parent="1">
          <mxGeometry x="160" y="260" width="210" height="390" as="geometry" />
        </mxCell>
        <mxCell id="BK3HkUFeYTMl9-7FlGzP-3" value="" style="rounded=1;whiteSpace=wrap;html=1;" vertex="1" parent="1">
          <mxGeometry x="460" y="260" width="210" height="390" as="geometry" />
        </mxCell>
        <mxCell id="BK3HkUFeYTMl9-7FlGzP-4" value="app.ux" style="text;html=1;strokeColor=none;fillColor=none;align=center;verticalAlign=middle;whiteSpace=wrap;rounded=0;" vertex="1" parent="1">
          <mxGeometry x="230" y="220" width="60" height="30" as="geometry" />
        </mxCell>
        <mxCell id="BK3HkUFeYTMl9-7FlGzP-5" value="" style="shape=image;imageAspect=0;aspect=fixed;verticalLabelPosition=bottom;verticalAlign=top;image=data:image/png,iVBORw0KGgoAAAANSUhEUgAAAfkAAAHdCAIAAACR6ZeTAAAACXBIWXMAAA7EAAAOxAGVKw4bAAAAEXRFWHRTb2Z0d2FyZQBTbmlwYXN0ZV0Xzt0AACAASURBVHic7N13fBRl/gfw78xsLykb0nsnoROQ0KJUQVRAERARUBQFlFP0LKfe/U7Pcp7niecpKkgXRFRAFERQiEF6C5AC6Qnp2ZTdnS1Tnt8fg2vcFDYhQFi+75d/ZJ999plnd/Azzz4zOw9ls9kAIYSQR6OvdwcQQghddZj1CCHk+TDrEULI82HWI4SQ58OsRwghz4dZjxBCng+zHiGEPB9mPUIIeT7MeoQQ8nyY9Qgh5Pkw6xFCyPNh1iOEkOfDrEcIIc+HWY8QQp4Psx4hhDwfZj1CCHm+7pj1ZUZrUS17vXuBEEKeoztm/ac/F336U5E7Nc+VNX36c5GNE65yjxBC6MYmu94daMXf701ys2ZFg/3X88b7h4aB/Kr2CCGEbmxUp9ebNZvNP/zwQ48ePW699VYAqGy0vfZN7qH8ehlN3T0w6KkJsVqljBD4/nTVuzsvNFj4pFD9q/f2jAnQAgBrF978NndonOHzgxezL5qGxhvefaA3L5BXtmSfu9gEALf27PHi3QnShg6cr9typNxi548XNgb7ql6Zkjgk1jen3PTSl9lGs4N1CD4aOUXBnBERs4aFmUym9evXjx49OiEhgaKoLvqUEELoxtaZrK+qqtqxY8fBgweHDh169913+/v78wJ54Ytz0QHax0dHme3Ck2tOj+3tP2dEREZu3dvfXXhrRq/EYN3mwxe3Hq/4cF4/P53CbOOfXJNZY7K/PCUxJkBLAAK9lIRAA8txgrjh17KqRvtbM5Klze05W/OPrTnvzu7TL8J7xb7i705VLn+of4ivSnpqw4HS/87tq1Nd+oIiCMLRo0e3b99usVgmT548fPhwpVLZhZ8XQgjdiDo2h8Oy7PLly2tra++8887Zs2e7xKjNIdg4wVst+3BeP5EQANh5uuq2pB7JoXoAmJoSHG5Qy5jfzxA8MT4mNc7gfEhR4KuVA4BG4XoWIdpfmxCkY2hqZmro/uza85VmKetbYhgmNTU1NTW1vr5+//79zz333IwZM4YNG9aht4kQQh6mY+dm5XJ5UlKSyWTKzs42Go2EEKlcxlDP35VQb3GMe+vXO/518Ouj5QqGZu1CZaNNq2SkOioFMyLRz1v9+9FFRnf4zDBDU0oZzQuk/Wp2uz07O/vIkSMGgyE4OLijW0EIIQ/TsXG9XC6fOHHi2LFjjx079u9//5thmAceeKBv376CSBia+ts9PV+bRhfXsX/bkt3A8ktuj/H3Uom/xbIgkkYrr1cxcqbzF/8QAIG0F/Qsy65du/bYsWNDhw598skng4KCcNYeIYQ6cx2OXC4fOnRoamrq+fPnrVYrADRa+cc/OzV7ePhdA4LCDerkUH2TlQOA4QmGlfuK7xoQFGZQnyxufHP7+fdm9wn3U3d0izUmewPL6VSyjNw6o4VLDNZJ5d4aea3ZUWt2OOfrRVHs06fP7NmzdTpdJ94aQgh5pM5fh+PicH79a1tzLTZeJBDVQ/3P+3sFeas4Qfz05+KNB8vkDCVn6L/d03NYvAEApHOzDwwPH9vb39mCVHiqpNFZ0j/C+79z+x7Kq397x3mlnLHYeTsvvjIlcULfQKkCJ4j/2Jr7Q2a1XEYPjTe8OT2ZoXEUjxBCrros6yVNVk4ho1VypnkhJ4isQ/RSyTo3m+K82IYQolK0MgVktvEA4BzaI4QQctHF+eilbuVHTXKG9lZ3wQ909a01DpjyCCF0Od3xHgkugn2UwxIMMgYnZxBCqJO6eA4HIYRQN3QDjOsRQghdIcx6hBDyfJj1CCHk+TDrEULI82HWI4SQ58OsRwghz4dZjxBCng+zHiGEPB9mPUIIeT7MeoQQ8nydzHqxoUwoyIB2lw25LliWbfwjk8kkCAIAEEKqqqpOnTpVX1/vrG+z2Zw1XW4XYTabMzMzi4uLnctvsSzLsqz0NyHEbDZzHOdOl5pXc27RbDYT9z5AjuMuXLhw4cIFZzttNWKz2Vx66HzYJkLs6R80vRTc+LTK9FqiaCx2p0tXwsLbXz37zdnGMpdygYhVtsYqW6NAxKvdB3cQILV2k1VwdLqFGrvpbGMZgcvs5fXFB97O3tHprVxjzt5W2RqfPrm+5X5sziHyNXbTNduhDpE/bixkebd22friA+uLD1ztLnUfnbxDpOPAx3zuXu3CnZTau2s71CpiN9t3virrdYcs/rb2a+7YsePw4cMAYDQaNRqNSqXSaDSPP/54UFDQxo0bjx49Gh0dnZWVdd99940dO5aiqH379m3ZssXb2xsATCbT8OHDZ86cqVQqT548+cknn8THx5eWlkZGRi5YsECj0WzcuDEvL++5557z9fW12+0ffvjhhAkT+vbt205/WJZ95513+vTpM3XqVKnEuUWbzebj4/Poo49GRUW108K5c+eWL18eHh4OAIWFhYsWLerTp09bjezbt+/ixYvz588HgJMnT27duvWpp57SaDTttC8UH7H/9K565sfyPncTzkrJWl/ItwuJRGzirA6Rb15YZKn9Z/a33nINADRy7PNJd0VpewCAVXCsLzpwi19sP5+Iq90xF+XW+jeytj+bOCla53/52q35rvzkyfriN/pO18raW+DewtlN3A1zWypnb0VCWu5HFz9VZaXX5Py9973X5taFhZaa/+TuXBg3drh/wmUrWzj7NehS99HJrFdNeg0mvda1XWkH4R183j46KAkul/XTp0+fPn26zWZ7//33mwdxVlZWSUnJ66+/rtPpioqKVqxY0bt3b2kp2qFDh0rhaDably1bdvTo0X79+u3YseOpp55KTExkWfajjz46duxYWloaABQXFx8+fHjChAlu9ryioqKsrEwmk91+++3OzJW2SAg5fvz4Rx999Oyzz/r7t54mLMtu3br1/vvvl5ZHP3To0ObNm6VYb7+RoqKitWvXPvTQQwaDodWWnYTKLFrjK4sdAQCUvMNLhnWOmlEEq3ycD02cdV3RL0sTJ6oYebm1QUnLNpUcfCbxDjnN8KJwuqEkQuvXD6511h+pK+ih0EfpenS6hXnRafOiu7BHNxhOFNJrctL8e8pp5vK1u0KiPnj90EXu17+SnXvD6XDWW9fN5c7/BABMcC/NQ19I43r7rtf47B+E6lxK7UN5hwolx+R97lLPXu3Y87ZQfka4mCkai+iABPUDn8kiBgEAaapg1z/M5+2nZApZ//vU9/2XkqsAQDQWWzc9Jut9p2PfMrG+VJEyUz17tXXdXC53L7E12ra/YPvur7Q+QPPI17QhskPdPnr06MCBA6WFCcPDw0NDQ/Py8lyWHdfpdImJiUVFRb6+viqVKjIyEgA0Gs2IESMOHz48dOhQAAgODj5w4MDgwYO1Wq07283MzLztttvKysoqKytjYmKaP0VR1IABA44ePXr8+PG2Dh6CIDQ1NanVlyJ4wIABXl5edLM12VttxGg0fvrppxMnTmz/O4dQkMFueIRY64mDNb3RFyhKOXyBcsIrAGDf9RqxmcSmCi5zK6XUaR77VhYxqNW91taup9oeyerkqqU9J3o1O64cqL0QpfUvY43fV5zWy1S3+MXKKaaUrdtSeuRkfZGFt6/I37e64BdfheZvve8JVHkbHeZ3sr8/3Vgip5g0/55PJIxT0LIqW+O/sr/zVWoP1+bRFD0ppP/c6JEKWkaA/Fh5dmXBPjNvD1B6PZU4QfqKsL74gJmzlbLGUw3FOpny0dhRYwN7O7vE8o5fanInhfSngAIAAmR72Yl1xRlWgevtFWYWbAvjxvb2DltffKCcrX8u6U4AONtYtrJg3wtJdwWqvN/O3nGyvhgAorQ9Xu41xTmuz6jJ/TR/X429yV/p9WjsbSP8E5t/MibO9p/cnRpGsSh+nEamaPXTI0C+KD70zcVjJs7WvJH1xQcKzTUF5uoqW2OYxvBs4h0JXsEW3v6vnO/UjOJQXZ5D5Ef0SHgifrxe3uZXt7Yar7Q1vJP9fbapvIdC76/UqxnXvu2vzvmy9PC86JGDDL//I79grmxwsAN8L/2vWsYa383dmWuqYIAa5p+wOG6cXq5qa6/9XJW1qzLTJnB55ipfufbxuNEun5WLn6uyPsn/GQBUjPyZnnf09g67VF6dtTJ/v9Fh1stVsyKG3R02UNqhADArcqjsWh2EuoMOz9erpvxL96f9ytv+RFgjEQWpkFgbaf943Z+PAaOQ97pD98RuofwMabhIrI18yXHNQxu93qxh/ONsmxeJFiPhbOy6uZRC7fVGlf7lbLE8077j5Uuti4JQmcUdXKmetUL/UpZy0qsAoH5wje7FTCYoSXX3W16vleqeO97RoLfZbFVVVSEhIdJDhmEiIyMLCgpcqrEsm5+fHxkZWVpaajAYVKpL/0sEBgbW19dLs/mJiYlxcXG//PKLO1PtUoNDhgyJiIg4f/58ywoMw0RHR1+8eLGtFnQ63ejRo1esWJGRkcGyrFKpTE5OdjnMuDTicDg2bNgQFxcnTVK10z0mZoT+lRzV3W8xQUm6FzO9XiuVgh4AiLXRnvER7Relf+64bsk+Jrh3W3utrV3fznYpoHwVWob6/d9edtPFBH3wwbq8hXFjwjQGJS0LVHs3cOxzSXd+Mnh+hLbHI7G3bRy2+MNBDwWqvB0i/8/sHQpG9uWwJZ8NebTQUr2qIB0AREIqbA1+Ct03I59+MfnuPVXndleeAYBfay6sKkhfmnjHjrRnpoSmvJe7q5StAwALZz9YmzczMnX7yKVTQgdtKPq1xm5ydqmIrSGEDDJcGpYfrSvYWHxwYdzY7SOXDusRX2s3SXMXzadfHCLfxFlFQgBgQdzodwc8cE/YIBNvE3+brc5quvhJ/s9zokd8m/bMnOgRn+T/nNX0+wdl4mxvZX9r4e2Pxo1qK+gBIKPm/K6KzH/0ue+7W5+dHJayujBd6raFs18wVb6UPHnL8D+FqH3fv7DbxFlFIkqnHDakLlo24MHspvLPi39tZ9ccrSv4seqss/HPCvZX2Ro5UXg/d7eSkX8+dPHb/WfaRddzVD9XZX2a/9PdoQObB73UWk+v4ECVNwBYBcd7ubtidQHbRy5dnfpYiaV2e/mJdvaag/D55upZkcO2j1w6wj/hk/yfpb3WltQece8OeODF5LukHSEVFppr1hZmLI4f+/2tf34qYcKXpUeym8qdL9HL1S0PWh6sw+N6Sh9A6QMorZ9rudYPlHpKqaV0/pQ+iFJcmq9ggpOZsAEAoJz4f+zKaWLFGUqmEhvKNPM2USo9qPTK25bY975DTFWUPhAAKLlGNfmfsrhbr/ittYemaZ6/9A8iNzd37dq1Vqs1MzOzb9++KSkp6enpf3hrFCWKoiiKAMAwzLhx4z7++OOUlJTLbqWyslIUxeDg4P79+3///fe33Xab8/jhJoqixo8fHxMTs3nz5hUrVqSmps6aNcvLy6udlxw8eFAul8fExFit1itZYF0Wl6a641X47WghFB1uda9B27vefRRQGplCIKK/Us9QtLdCc9FW31blAnN1rd30UvJkjUyhAcWUsEFflh6ud1gAQMXIb/GLZSh6iF/sEEPsMWPhnSED0mtyBhtihvjFAsC4oD4/V2cfqSsI1/gBQITGr493OAAM8Yv9oSKzwlrvr9RLW9lTeTZa5y+dPwCAk/XFsfrA0YHJFFC3+MVKOdUOH7nGR67xUvxhTuxg7YUglXeaf0+GotP8eypomfdvX254Ivwnd6eFt/+9zz3OjW4sPnjBVCn9rWBkMyNSo7T+I/0TR/onWgVHpbUxRuvPi2IpWyd1O1LTI04fCABzoka8evabQktNtNYfAIb2iNPIFHH6wMmhKfuqsy28naao9UUHKqwNUuNamXJ+7G0+cg0ACKJo4e0AMDl04Ej/RG+5usrWWGFreCJ+nLdc7S1X9/YOL2ONzjd1trFsZ/mpB6KGjw/q0/zNNnLs8frC2ZHDpYdqRvHOgFkESJ3dzIlCjDYgp/FS7La61wAgSOWd7BXCUPSMiNQT9UW5pgppr7VKzSjUagUA0C3GNybeJhAxtUdcvD6o/RMnnu3ard5HKXXAyEDgiMBdeiiV6wMJbyd2CyX9X0bTQHXxlaAURdE0LV2NI7Farc6J7Ojo6MmTJwPAgw8+KE2py2QyURQJIdK4mOd5rVYrl19aATE4ODg5OXnv3r2XHdqfPXuWEJKTk2M2m2tra41Go/O7hZN0CGm/8/Hx8S+99JLZbN64cePy5cuXLFnSTiNhYWGLFi3atGnTnj17Jk+e3P7Qvt0N09DstcRugtb2Wicb/yNeFMyc3SHwdpEvYWuH+MXW2kzhQa3/j80KDgBwjsh8FVpOFGyC62BTK1NKBwCWdxg0l7qtkSn0MlVts/G7RM0oGJrmfxuA19hNuaaKxfHjnBXKWGOExs/59b9zSlmjkpZLk9dymhnZbFLidEMJQ9GDDTHNR5px+kDdb9kkoxlp1quRY9/O/q7AXBWp9WcouuUbb/l2nHRyJQEiElFBK3p6hQSpLl1YoZYpFJQMAAb7xUyz3/Ju7k4TZ43S+i+IG+2v1Ffbm2iKClH7ttyQlXdsLjmkZhTOppxOGItkFNPbO9xZsqfq7Mr8/V5yVajaUMLWNT9h4+Tca83JKFpByzpxMU+0zn9B7KjVhb98eGFPsNrngcjhw/3jO9qIx7iG19eLPEiRxMhB4IndLBUTuwVoGbT9pfXKKZXKsLCwoqIi6SHHccXFxc7YVSgU3t7e3t7eznOnYWFhNTU1VqtVelhaWqrX65XKS//XURSVlpZ29uzZ/Pz8djZqs9ny8vJ0Ot3Zs2elTbecxrHZbOfOnWtnVr2qqmrbtm1msxkAdDrd1KlTm5qaqqqq2mkkNjY2LCzs3nvv3b9/f/s97JirudcUjMzEW9Uy+eLjqwmBV89+46/UO4fYLmQULYii81JIm8AxFN1y4tUZDQxNSwNVAOBEwS5yurYnrCWZDSVqWiENiiXBap8Stu6yV0+2L1jlIwKRGnG5oDNK6/9G3+n55urVhenOrQw2xNwVOlD6b2JwP4NCBwA7yk/ZBW5N6uNv9ZvxRPw4rbyVgapARLG1gQj326SrdKRxNj42sLc0a2TmbCP8E9emPv75sMWD/GJeP7et0FwToPQSCSm3tvJNi6HoR2JGjQvq/d/zPxZZap3lBMjBugsphmjnZFSN3bS55PDCuDEfD57/195TB/9xtqd5z1sppSixU1dtWgVHvD5o+eCHNg9/cmrYoP9d+PFonevM7c3jqmc9aawg5hogxPHrp5RCzYT2Y8IGUt4hjsOrQeSJzeQ4uJIJ7Ud7h7bTCKXUgtKLLzrU6Sv6b7nlloyMjPz8fELI6dOnjUZjQkKbV2VFREQAQHp6OiGkpqbmp59+Sk1NZZjf0yQoKGjEiBFSBLelqqqqqalp9uzZc+bMmTNnzuTJkzMzM5tfaG+327dt20bTdK9evdpqRKPRHD9+PCMjgxBCCCkoKKBpuvmlNW01EhUVdfvtt2/cuLH9TrqvE3vNfWkBPfdWnns8bswXw558pfeUdUMXPhB16bu/ilFoGEV2Y7kzAeN0QX5K3e7KMwIRWd6xs+J0jC6gh1IHAA6BL7XUAUCRpfZwXf5AQxQA3Orf82xjaZ6pCgCOGQsqbY3Os4Wt4kRhb9W54f4JzYfYgwzRBebq48ZCACizGp1XcAeovKrtTXUOMwFyrrGs1VG20wDfSGcjeaaq509vOtNQKj3lp9D18Ql/MmHc3spz35WfaqcRm+BgBYdVcAhE/KnqXBNndT5V5zA3ciwB8n3FKSUji9UFSOWF5hoCpJFjf6g4k6AP0rd9tdX28pN/Of2F0WFWM4oU3yg5zdhFLlDlHazy2Vt1ziHyLO/IN/8+1FAwsgit37zotFhdwL9zvm/kLv2Yo8hcW8oah/n9PogWiWgXeGnMXsoaT9QXOZ9qda8BQIODrXOYAWB/dXYTZ0vQXbqSggD5qvToZwX727/cEwAO1eY9c/LzPFOVgpb184nwkqucR/2bUIfncCwf38Xn/Cj9bXo5hNIH6Jbsa6e+aKkzvT0IeBtQtObBtZTOHwA093/CrprR9HIoEJEJT1Hf8y60O9VAyZSqcc+z6+Y0nf4aADRz1suSbu9Qt6Ojo6dNm/bmm2+yLBsYGPj444/7+rbynVSi0Wgefvjh//73v2vXrlUqlffdd5/L0JuiqOHDh+/fv7+dLWZnZ0dGRjrn1mNjY3fs2FFTUwMAe/fu3bt3r0ajGTdu3KJFi5yX2bSk1+sXL168YsWKr776imEYPz+/efPm6fX6yzZCUdSIESOOHj2akZFx++23d34mx9mgSt/Rvea+/j6R5lDbc6c2Wng7QzEL48Y4r4+W08yMiNS3c3ZkHMgFgBeS7hpkiHk6ceI/srbO/PUDAiReF7Qwbow0u8JQ9PbyE5+XHLQKjsGGmEkh/QHgtsCkMqvxhcxNDNAEYEHcqGSv9g5RpWydmbcN6/GHL/uD/WLGBPV69ew3aplCw/w+lB4dmLy/Omf+4U9lNNPXO1z3268TXsnccry+UPp7xq8f+Mg1/x7wwGC/mHvDB7+V/S1D0QIRZ0YMHez3h+HtIEPMg9Ej1hVmBKm8B7Ux8r0rZODphpIHD37EUHSSd6iSljkPME2cddGx1Q6RpynquZ53ess1Js4KACfri2b++oFd4KO0/nOjR7bz3u8OGVhiqX348KdKWiaAOCV0UKJXMAXUgrjRfz/79f2//k9GMz5ydYDyDzM2Clr2p8TbX87csiz3hxeS71LQshP1ReEaQ/MrGgNV3neFDlhVmL666BcdowxUedtFTvqe0epeAwBeFF7J3OIgvEPg58fe5vyVg03gMmpyGzl2cliKn6K9M1LD/RPyzFXPnd6koBgHEUb0SHDnuntPdXXXFrd986xQnatdsJ2YqymtH9B/OLSIFiMlUzingC9P5C+dwqU7eZqBEGK1WtVqtZvZJ1360nxE36qVK1fu3bvX+VCv1//lL3+RLtl0X/uNcBwnCEJHT+1eDR3ea11BIGK9w+Jy9Y6Js8poxjn6rrA2vHzmy8Xx45K8QnhRcBm9CkRs4qw+Cs1l59y/LjtWZK55uueEljUdIs+JQhNnlTY00DdKKrfwdjnNKNz7Z9nqe+kol/cOAB/n/VTGGl/te2+Dg/WSq6XGTZz1xczNd4UOGBWQbBUczrO+7XOIvJm3+Sq0Lp+AibdpGMVlu20X+H9mf3trQNKtAT1dnmq5F9raaz9UZn578eSbfaeLQNSMwuWzdYg8IaBkXD/wMtb4ypktTyaMd+4a6KIP3ANck3OzFCVdY+OC1l7mZz4tXiCjrmzSgKKo9n9E6sLNyvPnz5d+jXUl2m9ELpc7Tw5fXx3ea12BoegeLabv25qLUDMKaHF0ZijaV+HWTyLuCRvU1lMKWqagZc2nTSQdurqj1ffSUW29d+l61pblUs/dbFxBywytjZf17v2mWsnI/tp7aqtPtbMXWt1rANDq8cnlvUiX95h5+5elh5tPXjk3euUfuAe4ulnPhPaDFldnInQ1qGWK/j6RBvcC/YbYUIfE6gO8WhwAZDTTzyciqLUrXrqJtj7MIJVPP58IN3/rZBO4Zed/yDNV9fQKfil5iptfX242V3cOByGEUHdwU09gIYTQTQKzHiGEPB9mPUIIeT7MeoQQ8nyY9Qgh5Pkw6xFCyPNh1iOEkOfDrEcIIc+HWY8QQp4Psx4hhDwfZj1CCHk+zHqEEPJ8mPUIIeT5MOsRQsjzYdYjhJDnw6xHCCHPh1mPEEKeD7MeIYQ8H2Y9Qgh5Psx6hBDyfJj1CCHk+TDrEULI82HWI4SQ58OsRwghz4dZjxBCng+zHiGEPB9mPUIIeT7MeoQQ8nyY9Qgh5Pkw6xFCyPNh1iOEkOfDrEcIIc+HWY8QQp4Ps747IoTwPH+9e4EQ8hwenvXWdXPtu167bDWxrtDyv/GNSzWNSzX27/+vo1txHN/U9Ep40yvhptd6CgUZneloM0aj8Y033khPT7/CdhBCyEl2vTvgFmI323e+Kut1hyz+tg69UGSNlLXxstVsO14GmcrrjSpKoSZChwfU8t53yiJvERtKrRsXEM7W/CnuyDqhoUw1/kX3W9u9e3dKSsro0aM72g2EEGrLjTGuJ7yDz9sn1hVejcZFi1GsuSDvPYlS6YGWUXJVR1uglDq6RwztEw404/KUcPG0UPir+03ZbLaSkpKQkJCO9gEhhNrR4XE9YeutW5ZwmVsBQN53inra+5TGVyg+Yv3yCdWdr8t6jiOczbrxEWCU6ukfOPa+I5SfES5misYiOiBB/cBnsohBAECaKtj1D/N5+ymZQtb/PvV9/5USVjQWWzc9Jut9p2PfMrG+VJEyUz17tXXdXC53L7E12ra/YPvur7Q+QPPI17Qhsq0e8iXHrBseFmvymKBkAAIBiVI5d/pr27bnxfpS2jdcNfmf8n73AMDvjX/3V9uufzgbF/J/YTcvFmvyKLlKMXyBcuL/UXKV4/gm7vBqzUNfUGpv0VhsXTtbdfebTMyIVrvhOL7JtvXPwFlB5JteCQcA1ZR/KVJmdvQDRwihK9fBrCfEumUJMVV5/b0QACyfTLV9+5J6xodM5C2K1IetXy/VPr6DO/utUHxU88jXlFxNrI18yXHtI1voHnHW9XNtmxdpFu6iFBp23VxKqfN6owocZssnU+w7XlZNfQcAQBSEyixiqlLPWkH7hAMjAwD1g2uUFiP70QTFiIWK1Icu00FzjW3jo7KY4aqnD4jVOZbPLmWrUHjQ+s2f1ZP+Lk+Z6Ti02rbtedo/ngnp02rjpLGc/WKRYtgjyluXCGUn2VUz6ND+ipSZwFkJaySiQAGAKIiWOpcZm+YUKTMVKTNt3zwrVOdqH/vWzQ9YFEWe5xUKhZv1EULIHR2bwxFr84TSE8qxz1HaHpS2hyJtsVB6nLBGAJCnPsQEJVk+mWz/6T/qae8zwb2klzDByUzYAEqlV078WReUFAAAIABJREFUP8I2iBVnxIunxYYy5cT/o1R6yitYedsS/vxeYqqS6lNyjWryP2Vxt9I9YmjfiI6+H6HsJHGwylFPUyo9EzGYCU6WyrlTXzEhveWDHgBaJk+ZSemD2plaobxD9H85o0xbLNaXUCovyidcLDnW0Z50Qn5+/vr16/38/KKioq7B5hBCN4+OjetFYzFpqrQsv9NZQukDCNtAaQyUTKm663XzB+Pl8bfKeo5v+VpKqQNGBgJHBO7Sw0stBBLeTuwWSg8AADQNVOfPIogNFym1N2h7uJQL1bl8zo+NS9W/14wa0mYrhNh3veY4sJzyjaB9wsS6Aggf2Okuua+ioqK8vHzw4MFyufwabA4hdPPoWNZTugBK56+d/S0TPcz1OUJse9+hlFou7xd5zm5Z0u2uFUQeRBEAgJGDwBO7+dLr7BagZSDrmlkL2ieUWBvBUgtawx96rg+S95uqmfs5UNRlGxGKjziOfa55bAcTPhAALB/f1SV9u6wRI0b069fvvffeS0pKiomJuTYbRQjdDDo2gqYDE2m/aPved4jNBAB8zm773neAEABwHPhYyEvXPPSFcvTT1q+XisZi6SWksYKYa4AQx6+fUgo1E9qPCRtIeYc4Dq8GkSc2k+PgSia0H+0d2s52KaUWlF580SFpW+1gwgZQCg13fCMQItaXiHVFUrm831Q+P4PL+h4AiM1k+/YvYvX5thohvI1wVmKqBgA+b79w8fSlbugDRYuR1BcDgJD/C3Hjak7KJ1Q0FpPG8svWvNRPuVypVJrNZjfrI4SQOzo4rpcp1TM+ZDfMN/01AuQqkKs1M5cDRfF5+20/vK6a/DYT3IvuEStc2Gf75hn1nPUAIFrqTG8PAt4GFK15cC2l8wcAzf2fsKtmNL0cCkRkwlPU97zb/nCbkilV455n181pOv01AGjmrG/le4NUU+evmvw2u26OPf1/oNBSzKU3KE+eKI573rr+ISvNAG+X95lMeQW3tTkmKlXe/x7LymmUTEEbImmdv2htBABZwmhZ+EDze7dSCjUd0pf2CpLqOw6tsn6xUPpbmuBSz/hIOtOrGDybP/WV6fVkAJDfMlc9bVmHPnCEEOoSlM3W5pUk7SB2MzhYSh/QfrVLV6Es2E7M1ZTWD+g/HFpEi5GSKZwT95cn8sRURekDXdpprX+EWOspta/rIYQQYqoEta87F9ETzgZ2k3Rw+kO53QzNzje4g5iqQaFx5yWEkNWrVwcHB0+YMMH99hFCqH2dPAtKKXWXDfpmtalWA5rWGjqUmEDLKO/Qywe9tEWNoZXvChRFeQW7+WspSq5qGfQgvfcOdRuA0ge4+RKKosaNG5eRkZGZmdmhTSCEUDs6Oa53UyfuEIAAgOM4u92u03XsiIIQQm25ulmPEEKoO7gx7oeDEELoSmDWI4SQ58OsRwghz4dZjxBCng+zHiGEPB9mPUIIeT7MeoQQ8nyY9Qgh5Pkw6xFCyPNh1nclQojJZCK/3XhZEIT6+npyufswt9oOz/Nd3TuE0M3rxs56wtZzxzdyp75yrnxyfZ08eXLLli0Oh0N6SAj57rvvTp482aFGjEbjG2+8kZ6efhU6iBC6Sd3AWc/n/Gh6o48942P7vmWmVxP4nB+7tn3uyDrb7jfdr19SUrJ3795p06YplUqpRCaT3XnnnXv37q2oqHC/nd27d6ekpIwePbpj3UUIobbdqFlPzDW2bc8pRy/V/Wmf7ql05ciF9l2vSqtldRXh4ul21h937Q8hGRkZgwcP1uv1zct9fHwGDx78888/uzmTY7PZSkpKQkJCOtxdhBBqW8fWpbrahPKz1vXzhMosSqlTpj2hnPAKUJTj+CY+cysoddyJLyhGrrztKeWEV4SLpwnvkPe5tBKsrO9UsbGcsHWUSi8ai62bHpP1vtOxb5lYX6pImamevRoAuNNf27Y9L9aX0r7hqsn/lPe7BwAIZ7NtfZY79jnhbHRAgnrWClnEIMfxTbatfwbOCiLf9Eo4AKim/EuRMrOtRgCgqampsLCw1cF4z549Dxw40NTU5O3tfU0+RYQQctWNsp40lrNrZ8sSRuuePSSUn2FXzaS8AhXDHwPOyuftV019VzNzuePEl7btL8iSbhfrSymlFjR+0muZkN7qGR9dakgUhMosYqpSz1pB+4QDIwMAofCg9Zs/qyf9XZ4y03FotW3b87R/PBPSx/7zf4TCQ/qXzlE6f+vXS21fPa1dtFORMlORMvPSolqPfevsYVuNAEBFRQVFUV5eXi3fl06nE0WxtrbWnawXRZHneYWia1ZaRwghSTeaw+Hy0imKUo17HmgZEzZAkTLTceJLwtsBgPYNlyXdDrRMnjiaUnu3syy4hJJrVJP/KYu7le4RQ/tGAAB36ismpLd80ANAy+QpMyl9kDQ/oxr/ou65Y4RRisYSWcRgYq6WlhRvvYdtNAIADodDJpPRdCufp0wmUyqVFovlsp9Afn7++vXr/fz8oqKiLlsZIYTc143G9cBZgZETWi6tHEgZoiBrJ7H/ISIJLafkKiLyAACi0OaC5DQN1B9iV6jO5XN+bFyqdpaIUUMAQKw+z66dLZqqmZA+xG4hAtdOB9tqpKtUVFSUl5cPHjxYLpd3YbMIIdSNsp6iZYSzUeKltCXWBmCUlKz12QwmKJlwVrG+jNEYAEAoyLBue14z6zM6MLH1xvVB8n5TNXM/d1mE1rbz73Rwb90zK4Gi+Nw91i1L2uthG410lREjRvTr1++9995LSkqKiYm5GptACN2cutEcDhOXBoQ4Tn4JhJCmCu7oBnnS+LaW5KZD+9E+YY6DK0DkQeTth1ZTSi/KL6qtxuX9pvL5GVzW9wBAbCbbt3+5NBHEWYmljvB2YjM5Tmxufp0+5RMqGotJY/nlGwEwGAx2u53jWvlaYLfbWZY1GAzufAhyuVypVJrN3eLnAgghj9GNxvW0IVJ933/ZDQ/bf3gdeLus7xTFmD+3VZmSq9T3fcCuntX0SjiIPB2QoJmznpIp26ovT54ojnveuv4hK80Ab5f3mUx5BQOAcvxL7OqZTS8GUHIlE3kLMApn3CsGz+ZPfWV6PRkA5LfMVU9b1lYjAGAwGNRqdXV1tcs1lwBQW1ur0+nczHqEELoauuPa4sRcA0o9JVe5U1m0GCmZoq3hf4umCTFVgtrXpfF2tkhM1aDQ/KH9NhpJT0+/ePHizJkzqWYzPISQTZs2hYaGpqWludnB1atXBwcHT5gwwa13hBBCbuhGczhOlM7fzaAHAFprcDfoAYCiKK/glo23s0VKH+DafhuNDBo0yGg0FhUVNS8sKioyGo2DBg1yv4Pjxo3LyMjIzMx08yUIIXRZ3XFcf+NqaGjYtWvX5MmT1Wo1AFit1m3btk2YMMHHx6dD7XAcZ7fbdTq3j2EIIdQuzHqEEPJ83XEOByGEUNfCrEcIIc+HWY8QQp4Psx4hhDwfZj1CCHk+zHqEEPJ8mPUIIeT5MOsRQsjzYdYjhJDnw6zvYoQQnuevdy8QQugPMOu7ktFofOONN9LT0693RxBC6A9uoqwndrNt63P8hX1XbxO7d+9OSUkZPXr01dsEQgh1ws2U9byDz9sn1hVepfZtNltJSUlISMhVah8hhDqtG61LdVVZ183lcvcSW6Nt+wu27/5K6wM0j3xNGyIBwL7rNWIziU0VXOZWSqnTPPYtf2abWJmjnntpoSvHyS8de/+lmbuB9o+/3u8DIYQ642bJevWDa5QWI/vRBMWIhYrUh5o/RayN9gMfK0c9pX/uOBBCGSIpwWE5tlEsPc5EDyO8nTv4GRM+6LJBL4oiz/MKReuLoSOE0HV0s2R9+2Rxaao7XoXf1g5koobKIgfb9/9XEzVUrD4v1peoJr7Sfgv5+fl79+718/OLioq66t1FCKEOuonm69tD0dBskVigKPngB4WSY0LFWf7UFto3gg5Pab+BioqK8vLysLAwuVx+dbuKEEIdh1nfOlnsSMorxPHrp1zWTvktc6SJ+3aMGDHimWeeOXHiRHFx8bXpIUIIue8mynpKqQWlF190CAi5fGWVXjliAXfsc5Cp5b3vdKd9uVyuVCrNZvMV9xQhhLrYzZT1MqVq3PP8me1NfwloetGfz/6h/fqyxLGUd4h8wL2USn9teogQQlfJzXVuVtZznNdrpcRURekDgb703lVT32m1Ml9yHADkfe52s3GlUunv719eXt63b98u6S1CCHWVm2hcfwkto7xDnUHfOpHnS47Zv/+bYsB9tCHKzYYpiho3blxGRkZmZuaVdxMhhLoQZbPZrncfuh2hIIP9YpGi31TFuBcpuapDr+U4zm6363S6q9Q3hBDqBMx6hBDyfDffHA5CCN18MOsRQsjzYdYjhJDnw6xHCCHPh1mPEEKeD7MeIYQ8H2Y9Qgh5Psx6hBDyfJj1CCHk+TDr0Q2M4ziLxdLqU4IgEDduXo3QTeLmus/lDcdms9ntdpdCjUYjl8sJIdXV1RUVFZGRkb6+vi3rK5VKler3m/nY7faCggKZTBYTE8MwDABwHGez2XQ6HUVR0mtFUdRoNJftEgA4WxYEgWVZURRpmtZoNFLL7eM4rqioCACioqKkZbzaakS6uZBWq5V6KNVxPhQEYcuWLREREcOHD2/ePiFkz549x44de/zxx52fDEI3Ocz6bu3IkSPbtm0DgMbGRplMptVqAeDRRx+Nj4/fuHHj0aNHo6Ojs7Ky7rvvvrFjx1IUtW/fvi1btnh7ewOAyWQaPnz4zJkzlUplcXHxf/7zn8DAQJPJJJPJnnrqKYPBkJ2d/e9///upp54aMGAAAOzbt+/ixYvz589vpz+CIKxatQoAFixYICVyWVnZW2+9JUW/zWabMWPGrbfeSjVf0PGPzp07t3z58vDwcAAoLCxctGhRnz592mokOzt7165dS5YsUalURUVFn3zyyYIFC5z3lfvpp58Yhhk2bJjLJqqqqo4cOfLEE09InwNCCDDru7m0tLS0tDQAWLlyZWho6IQJE6TyrKyskpKS119/XafTFRUVrVixonfv3sHBwQAwdOhQKa/NZvOyZcuOHj06ZMiQrVu3Tp8+fejQoaIobtiw4ccff5w+fToAcBz3448/JiUlNf8G0I76+vq8vDwAaGho8PPzkwoDAgKWLl3q7e1dU1Pz3nvvqVSq1NTUVl/OsuzWrVvvv/9+KaAPHTq0efNmaTX29hsxGo2ffvrpqFGjnEu3m0ymEydOPPjggy2PK9XV1dIaYe68I4RuEjhf3wXsu16zfr3UsnxS41JN00vB3JF1UrlYV2j53/jGpZqm5w227S8QziaUnbR8fDcx14i1BezKacRcI1Scs/xvvNhQ1qEtHj16dODAgdIINzw8PDQ0VIrg5nQ6XWJiYlFRUVVVVUNDQ69evSiKYhhm+PDh58+fl6a59Xp9TU3NmTNn3Nxufn5+XFxcTExMQUFBy2f9/f3vvvvu9PT0tm6eKghCU1OTWq2WHg4YMOD++++n6T/8I2zZiM1m++yzzxITE0ePHu2sVlBQoNFo/P393ew5Qjc5zPouQKyN/NlvVeNe8H6nSXHrEtsP/xAbyojNxK6bRxmivN6o0v4pnTvzrePXT2jvELDWi7UFfPERvuBX4eJpsSaPEEKpfdzfnM1mq6qqCgkJkR4yDBMZGdkyfFmWzc/Pj4yMNBqNarXaOc718/Pjeb6hoQEA9Hr9HXfcsWfPHneWyRUE4fTp0wMHDuzbt+/Zs2dbPfMZFBRksVhanmOQ6HS60aNHr1ixIiMjg2VZpVKZnJwsTUy11QghZOvWrYIgTJs2rfnJgOzs7LCwMGm634XValWpVO6cOUDo5oFzOF2DDuzJxI4EAHmvSdyhVWJtPggcsdSqxq6gVHompLdi0P189g/KkU+AxiDUFfIXfqb0AUL5GQCgDVGU8orWNqFpmud56e/c3Ny1a9dardbMzMy+ffumpKS4DPmdJzalh717987MzDx79uxlt9LQ0FBTUxMbG8vzfHp6elNTU0cnxCmKGj9+fExMzObNm1esWJGamjpr1iwvL692XnLu3Lnc3FxfX1+LxdL8vLHFYvHxcT1AWiyWY8eO7d69+4EHHmj1MIDQTQuzvotRSh0wMhA4sb5UrM03vdHH+RQT2le0NjBByULRITDXKgbNEooOgVIvixzcsU1QFE3TzrAGAKvVajAYpL+jo6MnT54MAA8++KAUji4jXI7jGIbRarWNjY0AoFAoxo8f/+WXX/bs2bP97RYUFFitVunIYbVaL1682DLrCSGiKLbf+fj4+JdeeslsNm/cuHH58uVLlixppxG9Xv/000//+uuvX3311aOPPtr+aN1ms+Xl5SmVSuengRCS4BzO1UJpDLR/nP6VHO//2KT/dM8eobUGOrSfWHKM8DZZ4ljRVCPWFtCBlwlZF0qlMiwsTLpsEQA4jisuLnZO6SgUCm9vb29vb+co2M/Pz2KxOGdpqqurZTJZ8zFyXFycwWDYv39/OxslhJw9e9ZgMJw/f/78+fNqtfrUqVMtp3FycnLCw8PbWoKxqqpq27ZtUk90Ot3UqVObmpqqqqraaSQyMjIsLGzSpEnFxcVHjx5t/5Px8/ObP39+Wlra9u3bmx8LEUKY9VeLLGYYxcjt+94HkQdCHIdXc8c3AgATlCzUFVE+YXRwL0qhoQQH08GsB4BbbrklIyMjPz+fEHL69Gmj0ZiQkNBWZX9//9DQ0O+++0765dH3338/cODA5lkvl8snTJjgcDja2WJTU1NxcfG99947Z86cOXPmzJw5Mz8/v/nvmAghp06d+umnn8aPH9/W6Fuj0Rw/fjwjI4MQQggpKCigabr5GLytRvz8/O69996vvvqqpqZGKomMjGx5kJAYDIaGhgaO49p5OwjdbHAO52qhdP6q+z+1bni46S9BQDO0d4j6wXUAQPuG0d7B8pgRlEwpi07lCw9SuoCONh4dHT1t2rQ333yTZdnAwMD2fzTEMMzMmTM/+eSTuXPnMgwzduzYUaNGtWwwJSWlnS0WFRVptdrAwEDpYXBwMMMwJSUlWq22srJy4cKFDMP07t376aefli79bJVer1+8ePGKFSu++uorhmH8/PzmzZun1+uNRuNlGxkwYMCxY8d27NgxZ84chmFiYmJOnDjBsuxlf/yFEAJcW/waEC1GAKC1XT+DTAixWq1qtbqd3y41Z7PZGIa57EnLlStX7t271/lQr9f/5S9/iYyM7FDf2m+E4zhBENy8qL9VHMd98skno0aNSk5OdnmquLh41apVTz/9NP6WCiEnzHp0oyoqKvr+++/nzZvnMrQXBOGLL76wWCyzZs1qeUEnQjcnzHp0Aztz5kxNTU3z31hJCCFms9nN+/MgdDPArEcIIc+H1+EghJDnw6xHCCHPh1mPEEKeD7MeIYQ8H2Y9Qgh5Psx6hBDyfJj1CCHk+TDrEULI82HWI4SQ58OsRzeXD5d/0NFqbr4Eoe4Msx65hVgbLR9OcBzf1FYFoeKcUHby6nWA53mz2dxy0Sur1dqh+3wsevwJZ3ZjiKObB2Y9agUxVVu/fEIo/30RWiIKhDUCZ23rJfbv/8++67Wr16XzF3J/2rfXZSUsm8323c4dlVWVbjbi/qBeOiRI/0kleGBANzRcq+QmUlZWdvjw4TFjxrRcldsFsZv58z/J+04B6O1m45r5X15xB9skCEJefl5cbJzLfSullA8KDOpQa4sefwJ+C/Qrr4bQDQGzvrtraGhYt27dkSNHZDLZhAkTpkyZolQqc3Jy9u3bx7LsiRMnQkNDH3nkkfj4eABIT08vKSnJzc3Nz89PSkpasGCBcyUpAMjJydmxY0ffvn3byXpibWRXzRDKzxBrI7v2QaBlTHAvzUNfSM8KxUdMu98QGy4yQcmaeZ/TAQmX6lecAwB5wmj1g2t+a4jY9vzTsW8ZYetp33DV5H/K+93T6Q+huqbaamXDwsL/0FUgubnZ4WHh7qx54n5k4/gdeSScw+nWOI7bsGFDTEzM2rVrP/jgg4KCgiNHjgCAw+E4c+bM5MmT161bN2rUqFWrVtXX1wMAy7JZWVlLlixZs2ZNRETEmjVrms9ljxkzZvny5dJRoS2U2lu7aJfuqV9oQ4Rmzjqv10q1i3ZR6ksLPIn1JbpnDnr94yKovW07/w4AlMpL88BK3Z/2y3rdIbLG33uetZM7slb7+Hfe71oVaU/Yvn1JNBZ1+nMoKSkODAjy0ns1LzSZTCazOS42rhMNOqPfJdmbl7tM4OA0Drqh4bi+W5PL5YsXLyaEWCwWQRASEhLOnz8/cuRIAIiMjAwNDaUoKi0t7ejRo+Xl5dKSs7Gxsf7+/gAwadKkZcuW1dbWhoWFSa1RFKVUKq+oP/2nUdoeAKAYON1xaBWxNlJqb8o7lAKglXrBpbbAE2sDACjTFsv73yu9sBOsVmtJafHgQUNcygsLCxQKhY9PmwvtukOal3cO+V3+wAkc5DEw67u7c+fOffbZZ76+vhEREYWFhc7gdqJpWqlUCoJr0srlcpqmW5Z3DUYBRCSi0NZCt/LkiaS+hN24ACx1dEgf9ZS3aR/XnruptKyEppmQ4JDmhRzHFRTkJyf3dmflKZfI7lCCNx/LY+6jGxdmfbdmNpu//vrrxx57LCEhAQB27dp18eLFltVaDXRCSMsrFK8Zka2X97tHMeJxYjc79r1nWXW/9rHtTEifjrZDgBQWFkSERygUiubltXW1Do4LDQl1p5H2g76dBHd5obudRqj7wfn6bo0QYrPZmpqaAKC+vv748ePOp+rq6iwWCwBkZWU1NDSEhl5KvdraWpZlCSGHDx9Wq9XSfI6krKzsq6++amhouOx2KaUWaJlwMbPTPecyPrR8NJE0VVBKnSxxHCVTgoOVnrJYLNnZ2RzHudOOsa6uvqE+JjrGpTw3NycwIFCn03W0Yx2K7+ZT9jioRzc0HNd3a3q9/q677lq+fDlN035+fuHh4Q6HQxrFOxyOd955x2w22+32hQsX+vn5SS8xGo1/+9vfWJalafrZZ5/VaDTO1ty5DkdC6QOVaYtt216w//gmyDXaRTspfevXNYoWI/vRBOdRofFpFRPaV7Nwl2LkYqEy2/SPJJBrQOSUaU8ykbdIdWprazdt2rR06VJvb+/LfgKlpaW+Pr6G396dhLWytXW1w4eNuOzLm+vEwLzV87cI3Ygw67u71NTUIUOGWK1WtVpNUb9PjwcHBy9ZskQURaVS2XzOOiEh4eGHH25ZHwDGjBkzcuRIN0/PKoY/Jr9lLljrKX0QUBQA6J498vuzqQ8pUh+S/m5e3pxm7gbC2Zq3ILFarRRFuTPPzvN8RWV5XFwCBX94I1VVlWqVys/g19YLW2rrwht34Hla5AGoDv2+HHUTmZmZu3btWrJkicul5dKE/vz5869Xxy6LEPLFF1/4+fmNGzfuevcFoZsIjutvSL6+vv379285NA4PD+/EFPa1RFHUjBkzrncvELrp4LgeIYQ8H16HgxBCng+zHiGEPB9mPUIIeT7MeoQQ8nyY9Qgh5Pkw6xFCyPNh1iOEkOfDrEcIIc+HWY8QQp4Psx6hDnPzBmrNq+HNMtH1hVnv+QghZrO5sRmWZV3qmEymZcuWtboQijuqbI0vnv6iytZ4xZ1txc9VWW9n7+iSpnieN5vNLZdw4TjOYjETIG62I61cKP2NIY5uCHjvM8/ncDg2bNhw/vz5xsZGmUym1WqHDBkyffr05nVEUTQajTzPd24TIiEm3iYSd7OyQxyEN3Fdc9em8xdy8/LzJk2806X88JFDPM/fdusodxpx8+bGUrWWQ3u8MTK6LjDrPZ9SqXzssccAYOXKlaGhoRMmTHDnVSzL7tmzJzExMTEx0Z36vnKtTnZFC5e3I0xjuPJGBEHIy8+Li41zuT+o1WqtrKocMth17fL2uXlTe7z3PeomMOu7u4aGhnXr1h05ckQmk02YMGHKlClKpTInJ2ffvn0sy544cSI0NPSRRx6Jj48HgPT09JKSktzc3Pz8/KSkpAULFgQGBrbVMiHk+PHjK1eutNlsw4YNc1kU0Gg07ty50263u5P1ASqvpT0n6uSXbqYvEPF/F35kBcfSxIkKWnbcWLiqMP2RmNuC1T5vZX07Lqj3HSH9CZBVBen55uo/J02qtDV+cH73Q9FpKYZoh8i/m7tTTjFPxI9XMjIASPPvOcyvC1ZIr66ptlrZsLBwl/KS0hKKogIDW194qzn3IxsndlB3g/P13RrHcRs2bIiJiVm7du0HH3xQUFBw5MgRAHA4HGfOnJk8efK6detGjRq1atWq+vp6AGBZNisra8mSJWvWrImIiFizZk0796wuLCzcuHHjk08+uXLlyn79+plMpubPhoWFLVu2bNq0ae70k6FoX4XWuXoUQ9Fzo0eWW+s3lx5u5NhVhel9fcL7+UYEqrwfiBq2ueRwVtPFY8bCn6qypoal+Mg1PfXBE4L7Ls/bW2Vr3Fl+Orep4t7wW6SgBwA1o9DL1Z37AJsrKSkODAjy0ns1LyRAiooL42LjXNYud0dba101L2++Ym3zhwhdYziu79bkcvnixYsJIRaLRRCEhISE8+fPjxw5EgAiIyNDQ0MpikpLSzt69Gh5ebmvry8AxMbGSuuJT5o0admyZbW1tWFhYa02npOT07Nnz6SkJIqiEhMTDQbXeZJOxJ+Tt1zzcMyt7+bs/KU6N1TtOy86TToSDDLEjAhI/Ff2dwIRZ0amDjJcWjT89qC+J+uL/3rmK6vgWJIwPkrbo9ObbpXVai0pLR48yHWixlhXV19vHDRw0JU0Ls3LO4f8Ln/gBA7qDjDru7tz58599tlnvr6+ERERhYWFLYObpmmlUiktON6cXC6nabpluVNFRUV4eLjLmrRdqL9P5Ej/xB8rzz7dc6KC/v1f2ozw1NP1xXJaNi6w9++9pZmHY9KeP/VFP9+IFEN0l3emtKyEppmQ4BCW+1uMAAAgAElEQVSX8oLCgpZrl7fKJbI7lODNx/KY++i6wKzv1sxm89dff/3YY48lJCTAb8vJtqzWaqATQlpeXNhccHBwaWkpIeQqxX2eqepAzXlfhWZz8aEXku9yxv0PlZlNnI0A+bHq7J0hAy71FsiXJUdUjPxMQ+lxY6FzvN8lCJDCwoKI8AiXbyoOh6OktKRP7z4ua5e3qv2gbyfBXV7YgX4j1HVwvr5bI4TYbLampiYAqK+vP378uPOpuro6i8UCAFlZWQ0NDaGhoVJ5bW0ty7KEkMOHD6vVamk+p1U9e/bMy8uTDh6VlZXSVpxYlt2+fXtubm7net7Ise9f+GGYf/xb/WZW25s2lx6Wyo8ZC7ZfPPFkwrgnE8ZLE/dS+XflpzIbSl7uNeXesMHSxH377VssluzsbJfzyW0x1tXVN9THRLseP8orykVRCA+L6OCb61h8N5+yx0E9ul5wXN+t6fX6u+66a/ny5TRN+/n5hYeHOxwOaRTvcDjeeecds9lst9sXLlzo99sshNFo/Nvf/sayLE3Tzz77rEajsdls77///qlTp6QKa9euHTNmzPz586Ojo8eOHfvyyy/r9foePXq4jHk7dB2OC4GI/7uwR0YxsyNHaGSKedEj3z+/u6c+OExj+N+FPeOD+wwyxBAgI/wTluftfa3PtGJL7YaiXxfEjorS9ghR+5xuKPk476fmXwVaqq2t3bRp09KlS729vS/bn9LS0lYnagoK8iLCI9XqDpz47cTAvNXztwhdY7i2+A2AEGK1WtVqtXOyJTMzc9euXUuWLBFFUalUOi8YlyZ5Hn74YZf67RAEged5pbKVS+MdDodcLr96E/pXIicnZ9OmTc8++6xOp2u/Js/zP+75IS4uIT4uvnm5hbXs2ftj6i2p7lxtKWnrwptWR+utjuJxaI+uF8z6G5Iz61UqVfNyKevnz59/vTp2bRBCvvjiCz8/v3Hjxl3vviB0Y8A5nBuSr69v//79XX7/CQDh4eGXHed6AIqiZsyYcb17gdCNBMf1CCHk+fA6HIQQ8nyY9Qgh5Pkw6xFCyPNh1iOEkOfDrEcIIc+HWY8QQp4Psx4hhDwfZj1CCHk+zHqEEPJ8mPUIdQ0372TZvBre/BJdM5j1no8QYjabnbd6FwTBZDK5eef3K/RzVdbb2TuuRssW3v7q2W/ONpZ1SWscx1ksZgKkeSEBYrGY3f+gpJUIpb8xxFF3g1nv+ex2+4cffpidnQ0AgiBs2LDhm2++oelrsesdhDdxV+WGSyIRmzirQ+S7pLXDRw4dPXbUZXWqxobGHd/vaGq6zKopEvcH9dIhwWXN8U70GaEOwftc3kQIIXv27Llw4cIzzzzT8h6ZbiorKzt8+PCYMWN8fHzcqR+mcV2yvKuoGUWwyq0+tM9qtVZWVQ4Z7LrseHFJkU6rdWcpWic3FxPHNcfRtYdZ3901NDSsW7fuyJEjMplswoQJU6ZMUSqVOTk5+/btY1n2xIkToaGhjzzySHx8PACkp6eXlJTk5ubm5+cnJSUtWLAgMDDQ2dTJkyd37tz51FNPOWP6woULq1evLiwsjI6OnjdvXnx8fGNj44oVK+69996oqCgA4DhuzZo1MTExo0ePll6Sk5OzY8eOvn37upP1af49h/n9vhbu7sozP1Rk/rX3VG+5BgBymsrfP//DY3FjTtYXlbJ1LyTdLacZANhfnfNl6eElCeNX5O9LC+gprUlLgPwnZ5eD8H/uOYmhaJ1ctbTnRC95B5aUaktJaQlFUS4rljgcjrz8vN69Lr8UrfuRjeN3dB3hHE63xnHchg0bYmJi1q5d+8EHHxQUFBw5cgQAHA7HmTNnJk+evG7dulGjRq1ataq+vh4AWJbNyspasmTJmjVrIiIi1qxZ47xndVlZ2bp162bPni2FOABUVFSsWrVq1qxZGzZsmD59+urVq+vq6ry8vIKDg3/99VdCCACUlpYWFhb269fP2aUxY8YsX75cOrRclppR6JvFcT+fiHqH5ZixUHq4u/KMj1yb7BV6i1/sBVPVBXMlAHCi8ENFZoI+KEEf3Ms7bE/lOZZ3AECRufZ0Q8nogGSGogGAAspXoZX+vhIESFFxYVxsnMsSjHXGOiAkIrzDS9G2tXZV83KXCRycxkHXAGZ9tyaXyxcvXnzHHXdYLBae5xMSEs6fPy89FRkZGRoaSlFUWlqaWq0uLy+XymNjY/39/eVy+aRJk0wmU21trVT+5ZdfNjY2lpWVSSEOAKdPn46Pj09OTqYoKjk5OTAwsKSkhKKo22677ezZsxUVFQBw9uzZXr16GQy/z8NQFNXqgoXuCFR53xqQ9P/t3Xl8U2W+P/Dn5ORkT5d0SVe67xQQWqgFyqoUqSjXAamoP1CUZRxA77U6V3S844yO96q4jAw6UBGGGYqCLIKVtrKJUKDstGVraeneNGmb5CQ5JznP748wMaRbUgIt6ff9mhcveHLOkycwfvLkm9Pz3VN/hjYzHSxd2dk4LSiF4pFJXiGJXsE7605hhOtodYupY3rQcIRQdvCITpY+1nYVIXS2vUYhlA73Du/fU/dE3dam0ajDQsMcxi9frvTz83epFa0D+69qkV2fwuVLX7L+3vob2//6/UQAOANqOIPdpUuX8vPzfX19hw0bVl1dHRbmmEo8Hk8oFFobjtujKIrH49nGp0yZkpmZ+be//W348OGxsbEIofr6+pKSkqKiItsp8fHxCCGlUhkZGXnq1KkpU6acO3duwYIFbmw5mxWQ+FNz+cWOm1qzESGUpohCCBGImK4c/vnV4hs61eHWykChd5wsCCGkFHmP8o0oabo01i/mcGtlVkCihC/o4wlcVFVd1bXtuE6na25pzpo4qc/THQo4LpXgu30nAOAugawf1HQ63Y4dO5YsWWJNYWs72a6HdQ16hBDGmOM42x9HjRoVExPz0EMP/etf/3r55ZdlMplCocjJycnNzXWIcpIkJ06cWFBQIJFIfH19w8PduZWOlPkneYcUNp43WtjMgDhr4R4hNNw73E8o29d4tqKz4YmwdGvhHiE0PWj4/5Z/v6u+jDYzmf5OFY6cxzBM7c3a1OGORfn6hnoBRfn7+fc5Q+9B30uCO5zowqIB6Beo4QxqGGOj0djZ2YkQ0mg0ZWVltofa2tr0ej1CqLy8vL29PTQ01DquUqlomsYYl5aWisXigIAA2ynWgo9AICguLsYYjxw5sqysrKqqCiHEsmxxcXF7e7v1yNjYWD8/v2+//Xbq1KkURdkvqa6ubvv27bYjXUUgYnbo6IrOhiZj+0PK4bZxCV8wK2TUT83lAh5/nF+sbTzJKyTeK+i7m6cy/eOUIu8+5+/o6Lh69Wq3b35dNTQ2cJwlPOy2orzFYrl8pTI6OsbhhffJpfi2L9nDph7cA7CvH9Tkcvmjjz66bt06Ho/n5+cXHh7OMIw1yBiG+eCDD3Q6nclkWrZsmd+/qxBqtfoPf/gDTdM8Hu+//uu/JBKJfUthiUTyxBNPfP755yNHjoyKisrNzf3oo49IkjQajQ8//LBUKrUeRlHU2LFjOzs7bV/k2rh0HU634mRB4RJFmEThkN2jfSP9hLKJAQn2hRoCEZMDkys7G7MCEp2ZvKamprCwcMWKFc5cVFpVdW1YeIRDUV7TrjGZjFFR0c69GoT6tTHv9vtbAO4eyPrBLiMjY9y4cQaDQSwW2xdbgoODV6xYwXGcUCi0z7X4+PjnnnvO/niRSJSXl2c7IDY2ds2aNdbfp6WljRkzhqZpkUhkP4nFYjl37tz48eMlEonDeqZNmzZx4sR+fz2LEKqj1WpGtzA6y2H8qrYJIdS1UHNKXZXoFRwp67uighDq6OhweC090dN6rU6XkjzcYbyurs5P4SeXy515OtTzhTfOgAvtwT0DWX8fIAiia+ZadTvey/HdHmzbzlsZjcaTJ082NTXl5uZ2e3y/gx4j3GhoX191MFYelOQVYhu3YO66tvnrG0eyAhPtN/sGC3Ok9fJp9Y285Jw+r3NHCDEMc+7cuUmTJjlTfpFKpI89+njX8VEjRzn3am6xv8DG+YP7HATAvSDr70u+vr6jRo3qunsNDw+XyWR3OPnu3bubmpqWLFni/N7WSS3GznfLd0dJA16MmWqf3RWdDZ9e+XG8f/y88Nt+eHV73clfWq8siZ2a7BXqzPwCgeC3v/2te9cMgGcg7Iu5AAAAPBJchwMAAJ4Psh4AADwfZD0AAHg+yHoAAPB8kPUAAOD5IOsBAMDzQdYDAIDng6wHAADPB1kPAACeD7IegPtJ1zuswc0ygTPgfjj3pcrKykOHDi1cuPBO7jfpqm3btpWWliKE4uPjbU+NMdbpdPZNUYRCoUgksj+xvr7+22+/fe655/p3g50DzeUn1VV5STl3tvzu/aPmKELo6Yjxdz4Vy7IMY5JIpfa3+sEI03q9QCDs5XZsfYa1/c3RrK0N4QaZwFWQ9fclhmE6OjpsnWPvjZycnBkzZpSXlx85csT21Dqd7q9//atKpVKr1RKJRCQSPfbYY1lZt92v2Gw2q9Vq+/cDlzDYrGXv1l2b9KzJXVOVnjhuNpsnT5piP9jR3vFjUeH0qdP9eu5y1Uted5vmXZuiWH+F3Ae9gKwHzrLeJ9nhBshyufz3v/+90Wj89NNPs7OzR4wY4cxUdXV1paWl06ZNc7LhSZhE0fdB/eXknfF7ZzAYmpqbxqWPcxivqb0hk0od+tm6BezugUsg6wc7k8m0c+fOwsJChFB2dvbjjz9uLZ6wLLt9+/bi4mKKohYsWJCVlUUQhMVi+eGHH3bv3k3TdFJS0uLFi5VKpclkKigoiI2N3bt3b01NTWpq6pIlS3x8fCorK0+fPi0Sifbs2WM/Cca4rKxs06ZNarXaNomry7ZYLCUlJdu2bePxeOPGjXPY1LvU3CorIDHT79eegs3Gjv+5uEPD0LaRB3wj8pJyLnbUfVi5z2hhbeOzQkc9HTH+HzVH99aftQ2KSOo/Ex8Z7n2rRftTEQ/yeX03NulT7c1agiCUyiD7QYZhrl2/NjzFsZ9tV13LON3Gt+2w5UtfgnwHLoGsH9Qwxjt37tRoNGvXrkUIff311zt37pw3bx5CqKGhYc6cOU899VRlZWV+fn5CQkJQUNCxY8cuXbq0Zs0aiUSyb9++goKCZcuWYYybm5tZll29ejWPx1u/fn1hYeH8+fMZhjl27Njy5cvnzJljP0llZeWOHTvy8vJCQ0MPHjy4YcOGVatWOd/8xOr06dMlJSVvv/12cHDwjz/+WFlZaf+oS82txKQA2aWxv1D+h+H/wWGMEDrXXrup+shUZTJCKF4e9JeRT1rHi5ov/tR0aYJ/AkLosZDR0wJTEEIMZ/7syn4vShwv/zWR5ZQY3TGM8I2a6tiYWIFAYD/epm5DGA8LH9bTifacaVdr3wDL/hj79wAX1w6GCrgOZ1DT6XQXL1586KGHxGKxWCzOzc0dPXq0dY8cERERHR1NEERUVFRAQEBbWxtCaMKECa+99hpJktZWsdY+4wghjHF6erpYLBYKhWlpaXV1dSaTCSEUHh4eFRVFEERERISXl1dbWxvG+Pjx41lZWWFhYQRBpKenY4xbWlpcWjbG+OzZs5MmTQoLCyNJMiUlxeGt4k6aW5EETynyDhb7mDjzttrjT0VmpimiEUICHt86Xm9QFzddfCn+oUipP0JITomDxT5BYu8fm84z2LwyYYaA5+YtjrqtTaNRh4WGOYxfvlzp5+fv0M/WXWxbe9uvEPSgF7CvH9Q6OjqMRiOff+ufydvb29vbu9sjrQ3H29vbv/zyS5VKlZCQYDQaWZbteqRYLOY4zuF7XR6PJxQKLRaLyWRqbW0tKiratGmT7dHOzk6Xlm0ymTQazbhxjsVrN+pg6Q8r90VKAx4OSrUfv6FXfXalaEJA/BhFlP343oazJU2XXk2a5U259gHFGVXVVb4+vg5FeZ1O19zSnDVxktufDoB+gKwf1ORyuUgksuUyy7Imk8nh21F7hYWFMTExr776KkEQNTU1+fn5rj4jRVFyufzFF1+cPHlyv5ctFAp9fX3r6uqc/KrWVQxn/uTyjwghh0269Q0gRha4MCrLvkR+Sl21ufrnZ6ImWD8BuHkxDFN7szZ1uGNRvr6hXkBR/j1ffuOgH5fJO3wrC1/Sgl5A1g9qMpksPDz88OHD4eHhPB5v//799fX1zz//fE/Hm0wmg8HAcRzHcWfOnNHr9a4+I0mSaWlpO3fuTElJCQgI0Ov1R48enTBhgkv1eoIgRo0atW/fvszMTG9v7/r6emspycbV63DsYYQ3Vh++rmv5n9Qn7DfpPb0BWHf604JSZoU42zS8o6OjpaUlOjq6a0ffrhoaGzjOEh52W1HeYrFcvlIZHR3jTJdzK1dj2j7ZrRfdu3Q6GGog6wc1kiTnz5+/fv36l156CSEUFxe3ePHiXgJo5syZn3zyyQsvvCAUCseMGSMQCFiWdbUyPnr0aI1G88Ybb0gkEpPJNHfuXGvFecOGDSUlJdZjnnvuuZCQkDfffBMh9M477zQ0NCCEzp49ixB69tlns7OzR48effny5VdeeUUqlQYGBjr8dJVL1+E4aDJ0HGyuaGfp5ae+so5EywLfGzHvqq75bHuN0cLm/vK5dXyMb9Q7I37zY+P5VlPnzrqynXVl1vGVCTNmBPX2gaOmpqawsHDFihXOZH1V1bVh4REORXlNu8ZkMkZFOfsxwvmgt0Z81y087OhB76C3+P3B+s/kkJg9oWlaKBQ6k1O9wBjr9XqpVEoQfVwv2AvrFwZd97YYY4Zh7uUP/brkyJEjZ86cWbZsWZ+7cj2tLy4pyhib4XC15dlzZ9Vq1ZQp0/q82rIn3V5aYx/x3W7kIfFBTyDrAbgNwzBffvnlxIkTR44cOdBrAcBtIOsBcGT9MvxOPtAAMNhAvR4AR5DywPPAz1IBAIDng6wHAADPB1kPAACeD7IeAAA8H2Q9AAB4Psh6AADwfJD1AADg+SDrAQDA80HWAwCA54OsB2DI6XrfNLglsseDeyR4lMOHDzc1NVkb0jowmUxVVVV8Pj8yMtJ6+8bKyspDhw4tXLjwXt5vctu2baWlpQih+Ph421NjjHU6nX3/caFQ6HBTT61Wm5+f/5vf/CY0NLQfz3ugufykuiovKcc28o+aow20xn4EIdRs7PhLxZ7noyfbmo/bTt/fdGF1yuNS/m1/V91OYpvq48uFqxKylaLuW4l1i2VZhjFJpFKHG2QaDAaCIHq50WmfYW1/C0z7uyJDh5MhArLeo9A0rdVqu47X1NR8+umnUVFRHMdVVVW9/PLLERERDMN0dHQ4NCO823JycmbMmFFeXn7kyBHbU+t0ur/+9a8qlUqtVkskEpFI9Nhjj2VlZdmfyHGcWq02m839e14Gm7Xsbbf507MmhxGEEIdxJ2tgOMdnYbBZazZymHMY73YS21Ras5Fz8a+39MRxs9k8edIU+0Gj0bj3h+/TxqRHRkT2dGIved1tmndtZW79FXLfU0HWez6aprds2TJ37tyMjAyE0OHDh3fu3Ll8+fIBWYy1v5VDG0W5XP773//eaDR++umn2dnZTnYudLW5VZhE0Y8F3wlfSirju/CZyWAwNDU3jUt37NPb1NyEEAq6/Rb5bgG7+6EDsn6wo2l6x44dJSUlZrN5/PjxTz31lJeXl335xaG40dLS8v7771+4cCEqKuq3v/1tUFBQa2srwzBJSUnWCVNSUtrb2633smZZdvv27cXFxRRFLViwICsriyAIi8Xyww8/7N69m6bppKSkxYsXK5VKk8lUUFAQGxu7d+/empqa1NTUJUuW+Pj4aLXaf/7zn6mpqVu3btVoNFlZWQsWLJBIJBjjsrKyTZs2qdVq2ySuvnbrJBs2bDAajZmZmQ6t0l1qbpUVkJjpZ+n2IS1rXHP5BwkpWB73kP34oZbKb26WLoyaaN+lluHMG6oO1dHqVxJn+glk3U4i4QsQQoEir1cSZ8oop9rLWNXerCUIwqHtCUb48uWK8LDwPjvVdC3jdBvf9l1QIN+HDsj6wa64uNjaPQMhtHnz5u+//z43N9e+/OJQ3NBqtStXrvT39//xxx/z8/NXrVrV0dEhkUhsRXk/P7/Zs2dbf9/Q0DBnzpynnnqqsrIyPz8/ISEhKCjo2LFjly5dWrNmjUQi2bdvX0FBwbJlyzDGzc3NLMuuXr2ax+OtX7++sLBw/vz51qJQaGjohx9+SNP0J598UlZWNnHixMrKyh07duTl5YWGhh48eHDDhg2rVq1yqWktQqi6uvpf//rX7373u8TExFOnTp0/f97+0WnTpk2cONHJLxvEpAB116dLyxr/UrHHzFlWJsyQ8AUd7K2+uAeayzdUHXzWIeix5atrhy921L2VMsch6O0nsQ6SBM9X0GMX+K4wwjdqqmNjYgUCwW0r1Gq1Ol3amHRnJulamenpGPu6jcPx8AbgkeA6nPsAwzAmk4miqGeeecYW0z2JiYlRKpUkSWZmZhoMhtbW1l4OjoiIiI6OJggiKioqICCgra0NITRhwoTXXnuNJMnOzs7IyEiVSmXtDI4xTk9PF4vFQqEwLS2trq7OZDIhhEQiUWpqKkVR3t7eqampVVVVGOPjx49nZWWFhYURBJGeno4xbmlpcfWFV1ZWJiYmJiUl8Xi8hIQEheK2IgxBEHf4rbIZW9Zc/kFvNv13ymz7NuUXO+q+vP7T/IgHHw5KtQ1yGG+qPnJWU/PfyY/Zl4N6msRV6rY2jUYdFhrmMF5dXSUQCHx8fPs9cy9sW3vbrxD0ngr29YPdjBkzvv/++9dee43P52dlZT3yyCNOdtIgCIJhGL1ejxCyWLovXziwHtbe3v7ll1+qVKqEhASj0ehQObESi8Ucx3X9XlcsFqvVapPJ1NraWlRUtGnTJttDnZ2dzqzBXmNjY3h4+N3rHHKuvZYkeOmKaDH561baYGa21R4Xk4Kg26+fuaFvvUm3RUoDfAWSPifph6rqKl8fX4Wfn/0gy7JVVdeTk4ffYfdgACDrBzWMMcuys2fPfuKJJ7Ra7datWzdv3vz88887ea5AIJBKpUKh0Gg06nQ6a8G3vr6+oKBg0aJFPZ1YWFgYExPz6quvEgRRU1OTn5/v6rIpipLL5S+++OLkyZNdPddecHDwzZs3McZ3Ke4jpQHLYqd9ULlvY/XhF2KmWC9zJAne4ugpLaaOz64U/U/qE5FSf+vBCoHs1aRZ668f/OTyj68nPyrg8XuZxFUMw9TerE0dnupwuqpNxbBsaIizl5n24zJ5h29l4UtaTwU1nEHNbDbn5+fv378fYyyTyZKSkoxGI8dxMpmsvb3denllbW2t/Za5tra2vb0dY1xaWkqSpJ+fX0BAQHBwcGlpKcbYOi6Tyby8vHp6UpPJ1NnZyXEcy7JnzpyxfjJwCUmSaWlpRUVF1gqSXq/fv3+/tRDkksTExGvXrtXX1yOEmpqaHD4Z1NXVbd++vb293dVpbfwEslSf8N/FP1TSdGlvw1nroIDkD5P6LYzKipEFfli5z1bB9xFIoqUB/5n4yHVdy8bqwxjhXiZxVUNjA8dZwsOGOYxfvlypDFTKZLJuz+rKWoSx/a/P4+2T3XrRvUvLBvcR2NcPahRFPfnkk19++eWePXtIkvTx8Vm6dClFUREREcnJya+99ppYLB4+fHhgYKDtlICAgD/96U96vZ7P569cudIaE/Pnz//iiy8KCwvNZnNcXNzixYt7qQnMnDnzk08+eeGFF4RC4ZgxYwQCAcuyrlbGR48erdFo3njjDYlEYjKZ5s6dKxaLEUIbNmwoKSmxHvPcc8+FhIS8+eabCKF33nmnoaEBIXT27FmE0LPPPpudnR0VFTV9+vTVq1fL5XJ/f3+HLy1dug6nF2mK6GeiJmyu/jlI5B0qvlWIF/D4KxNmrD7/rXUXbzs4Uur/u/iH/q9ib4jYNyfkgW4nsf8610lVVdeGhUdY/4psaAOtalONz5zg5CTO78etEd91Cw87eg9GWK+9A4Oc9Z/J4ao7ayXd+kOw9jDGBoNBLBY7lD6MRiNJkl2P7xZN00Kh8A7LxBhjvV4vlUrvpAhjsVjMZnPXNxuMMcMw9/KHfu8SPa0vLinKGJvhcLVl9Y2q8vJLD02f4fAm57xuL62xj/huN/KQ+B4Jsh4AADwf1OsBAMDzQdYDAIDng6wHAADPB1kPAACeD7IeAAA8H2Q9AAB4Psh6AADwfJD1AADg+SDrAQDA80HWAwCA54OsBwAAzwdZ7x4Mw3Rt3GGxWDQaTddxAAC4xyDr3eP06dN//OMfrXdat8EY792798yZMwO1KgAAsIKsd4+MjIxJkybt3bvXvtsfn8/PyckpKSlpbGwcwLUBAABkvdsoFIr29naH7qw+Pj7p6ekHDhxwqOQYjcY9e/acP3/+3q4RADBEQdbfdYmJidXV1Q798/R6/cGDB0+cOAHVfADAPQA9CN3Gy8tLp9MZjUaH7lEymYzjOJVK5e3tbRv08/N77733KIq6S12zAQDAHuzr3SY8PDwxMXHLli3Xr1+3H+fz+UKhsGuHboFAAEEPALg3IOvdhsfjhYaGtrS0WHtkAwDA4AE1HLepr68vLi5euXKlv7//QK8FAABuA/t6t1Gr1RKJRCaTOYybTCaaphUKhf2gxWK5evVqU1PTPVwgAGDogqx3J5Ikuw6qVCqZTOaQ9SzLfvfdd2fPnr1XSwMADGmQ9W5jMBjkcjlFUfaDGOMTJ06MHTtWIpHYj3McZzKZgoOD7+0aAQBDFGS9e1RWVhYWFs6cOdNha3/jxg21Wp2WluZwfGtrq1QqjYmJuYdrBAAMXYTRaBzoNXiC9vZ2gUDgsHk3GAy7du3Kzs728fHpeorFYum25gMAAG4HWQ8AAJ4PajgAAOD5IOsBAMDzQdYDAIDng6wHAADPB1kPAACeD7IeAAA8H2Q9AAB4Psh6AADwfDgBz7sAABsoSURBVJD1AADg+YZQ1pvNZovFMtCr6D+WZbs2t7qXLBaLRqPpX4Nch5brAIB7bAhlfXV19dtvv11RUTGwy2DKturXZmNDh0tnWSyWb7/9dmDvgYwx3rt375kzZ1w6i6bpTz/9dNeuXWaz+S4tDADQpyGU9XFxcbm5ubt376Zp2u2TY22L4ZuXLA0X+z6UNWBajTnXPmH89NNPJElmZmb2c33uwOfzc3JySkpKGhsbnT+rrKxMLpc/8cQTfD40QQNgwAyhrEcISaVSmqbvRj0Bm3TmKz9h7V3pM6XVak+fPj1hwoQB70Xu4+OTnp5+4MAB5ys5V65cCQ4OHvCVAzDEwVare1xbtWHrEvP1nwlKJBj/onDm2wQlQhgbi99nDn6CaQ3PN1z02PvUyP/Ahg76qyctDRewoYPe9Azi8cngFMmiAkLs3f0kCGEzY9y2jL20jyAp4eRVwuw3Ua9RWFVVJZFIAgIC7AevXr26cePG6urqqKiohQsXxsXFWccPHz5sNBo1Gk1hYaFMJlu9erVSqTSZTAUFBSkpKYWFhRUVFRkZGUuXLuXz+W1tbevXr79w4YK3t/e8efOysrKsodztJNb5ExMTjx492tnZ6e3tfVf+6gEAd8HQynpvb2+MsUaj6T2nsFFLb17IUyZ4Pb8ddzTQG+cTAqkw+0323A72WL506V4y7AHToU+N379JRozl+YRJlxdyqir9Fzni33zKT5je+yQIIdzRQE3Pk/y/Lczpb4y7X+cnzSAjx/WynoqKirCwMPuOV42NjV999dWCBQuSk5PPnz+/cePGV155xc/PDyFE03RBQcEzzzyzZs0ajLGXlxdCCGPc1NR06dKlxYsXBwYGIoT4fL5Op1u3bt2YMWPy8vJUKtVnn33m5eX1wAMP9DSJlUwm4zhOpVI5k/UWi4VhGKlU2ueRAIC7amjVcLy9vSdOnLhly5by8vJersmx1J3GnY3CrJcIkZynTBA/uY4clo4QokY9IX/rCi8wnmurJkNSkYXlmitdnQQhxPOLJJOyEY9PJc/gyQO5liu9L1uv14vFYvuRc+fOxcXFJScnEwSRnJysVCpra2ttj2ZmZk6ZMsXHx8fX19e+Hcr8+fPj4uK8vb2tMV1XV0cQhHUvHxAQMHXq1OPHj9v+WnqahM/nC4VCZ64Iampq2rZtW2dn54gRI/o8GABwVw2tfT1BECEhIQaD4caNG3FxcT21hcLqWmw2EUKZ9Y+2TTfWtdL/WGipO0cGpyCSj5ne8q6nSW47BiNEEJhz+QKV+vr6kpKSoqIi20h8fLzt9zwer9v6uMPrZRiGz+fzeLfe7xUKhVarZVnWelhPkzivra3t5s2bSqVSJBLdyTwAgDs3tLJeq9Vu3bp10aJFvTd6JbyDCUqM/h3BnF5NcGZCHsgc/QIzBvkfrhGUyFq06cckbnkhCoUiJycnNzf3TuKYJEmTycRxnPWPBoNBJBK5sS1iSkpKfHz82rVrz58/n56e7q5pAQD9MLRqOGq1GiFkrWv3ggwdSQjEzC9/Rxhjo9bwj4XGfW8jhLBJj4ydyKRFnJk59U+sb7OdQgiliMe31J/vc5J+iIiIaG5uth8ZOXJkWVlZVVUVQohl2eLi4vb2dlenHTZsGMa4vLwcY6zX6w8ePDhq1Cj7bwW6ZTKZaJpWKBTOPAVFUTKZrK2tre9DAQB309Da1yPnShOELED85Dp68/9jTmxCFpYfN1n06J8RQoKJy8xXD3a+HU3w+GTUg4gSY9OtMg4hVwqzfmvc9bqp6D1ESaTLfyCDkrudpB+io6NPnz5N07Std3lUVFRubu5HH31EkqTRaHz44Yf78f2nXC5ftGjR2rVrN23aZDQaZ8yYMX78+D7PUqlUMpnMyawHAAwSQ6u3+PXr17dv3/7SSy/ZQrN3WNuCBBJbzd2K06sJvsBh8NbxrBEZNIQ8yP4aym4ncQnLsl9++eWUKVOSk5NvezqMaZq+88ILTdNCodCZSTDGW7duDQ0NzcrKcnLywsLCxsbGhQsXwiX2AAygIVTDaWho2Lp16/Tp050MeoQQIQ/smtE8qaKn4CYoEeEV7HCxfLeTuISiqFmzZh08eNDhJ34JgpBKpXdeYZdIJE5OcuPGDbVanZaW5vzkGRkZdXV1P//88319MyIA7ndDaF+v0+kwxnK5fKAX0k8XLlxobW2dOnXqQC3AYDDs2rUrOzvbx8fHpRMtFotOp4OfvQJgAA2hrAcAgCFrCNVwAABgyIKsBwAAzwdZDwAAng+yHgAAPB9kPQAAeD7IegAA8HyQ9QAA4Pkg6wEAwPNB1gMAgOeDrAduYzKZDAbDQK/Cc1gsFo1G43wbdwB6MeTuaewZ6uvr161bZ70V2gsvvJCYmNiPSW51RW+8hBCi4qeKn/n6TpZE0/TGjRunTZuWkJBgGzzQXH5SXZWX1FtTl3tj8KzEeRjjvXv3Jicnjx49eqDXAu57sK+/LwUFBeXl5b3++usKhYJhmP5NQoi8JAs2yFYe4qc8wtHqO1mPxWLZuXPn8OHD7YMeIcRgs5YdFDdcGjwrcR6fz8/JySkpKWlsbBzotYD7HmT9fYkkSblcLpfL+2wj1RuCILxDef7RPOGd3vuzubn55s2bDzzwQNeHwiSDpavJ4FmJ83x8fNLT0w8cONC1knPy5MnCwkKWZQdkYeC+AzUcN8AYl5WVbdq0Sa1WJyUlLV68WKlUIoTa2trWr19/4cIFb2/vefPmZWVlEQRRWVl5+vRpkUi0Z88eiqIWLFhgHccY//LLLwUFBSqVKioqauHChXFxcQghvV6/ZcuWI0eOCIXCWbNmzZ49u5d7zfe0EtdwZlPhO6ZDn2HWSIYMlzz7D15gPEKIa6umNz1tuXmG5xNKxmQRnNlW9jl//nxERETX+0VnBSRm+t1223ota/z8WtEvrVcQQpkB8b+NfUhOiRBCzcaOjy8XZvjF7qg71WrqnKJMfjVxFkLoQHP5L21XlSLvvQ1nLZzl1aSciQEJakb3QcW+cx21FEFmBSS+FP+QgMfvZZJuV+Kqq1evbty4sbq62v5fByF0+PBho9Go0WgKCwtlMtnq1auVSqXJZCooKEhJSSksLKyoqMjIyFi6dClJkhcuXFi/fr1arY6Ojn7hhRfCw8N7mcT6UGJi4tGjRzs7O+1vCm2xWM6cOXP58uVx48b5+vreyesCQwRkvRtUVlbu2LEjLy8vNDT0559/Xrdu3SuvvEIQxLp168aMGZOXl6dSqT777DMvL68HHniAYZhjx44tX758zpw5lZWV+fn5CQkJQUFB1dXV+/fvf/PNN/39/U+ePLl58+ZXX31VIpFs3rxZLBbn5+czDPO3v/2tqKgoOzvbmZUcPHhww4YNq1atcr43i5Xp4KfMqX9Kf1dChqQadubRm56WLCskhFJDwXJC7OP1Ti026en8ebY+6SzLXrlyZdy4cV2nEpMCZPfGhBH+/FqRhtFvfnA5QujtC9u/qj60In4GQojDuEav0rD6/0ycGSD0IolbnzgZbP5FdXVyYNKaB56meDwvvoThzO9XfC8mBd9krjByzB8ubP+q6vCS2Km9TNJ1Ja5qbGz86quvFixYkJycfP78+Y0bN77yyivWxsU0TRcUFDzzzDNr1qzBGHt5eSGEMMZNTU2XLl1avHhxYGAgQojP51+7du3rr79euXJldHR0WVnZ3//+95dfftma1N1OYiWTyTiOU6lU9llPkuTzzz+PMebz4T9h4BSo4bjBiRMn0tPTw8LCCILIyMiYN28ej8erq6sjCMK6Zw8ICJg6derx48etvZnCw8OjoqIIgoiIiPDy8rK13uY4znodS3p6el5enkQiaW1tbWxsnDVrFkVRUqn0kUcesTae7XYZGOPjx49nZWVZV5Keno4xbmlpcem1YJOOPfedYOJyMuwBxOMLJ6/ADG25fgS313Nt1cLJKwmpP08RwY+ZaDvFYrEYjUaxWNzn5A0GzTVt05PDMrwpsTclnh06+qq2SWu+VUYXktQL0VNG+AwLFvsEin4NuwiJ39LYaZFS/1CxQk6JqnQtKpP22cgJEr5AIZA9HpZ2pv2GhtH3PskdOnfuXFxcXHJyMkEQycnJSqWytrbW9mhmZuaUKVN8fHx8fX3tP3XNnz8/Li7O29vbGtOnTp2aMGFCTEwMQRAjR45UKBRXrlzpcxI+ny8UCvV6vcOSSJKEoAfOg/+v3CmTydTa2mr7xE1RVFJSEkKIYRg+n8/j3Xo3VSgUWq3WobrK4/GEQqH1DSAqKmrOnDnr1q1rbW1NTU2dO3euTCYzmUzWOa3HS6VSk8nUU4nWupKioqJNmzbZBjs7O116OdjMIIuJEP+785TQixBIMK3m2qoQj8fzj3VpNgfNxk41o199/hvbiA8l0bFGOV+EEOIRRLc9aXkED9lVq2kLg6z7dIQQQr4CKctZjBb23wd3P8kdqq+vLykpKSoqso3Ex8f/usIeGtY7VNv0er2tpRdFUXK5XKPR9DkJAG4BWX+nhEKhr68vx3HWP2KM9Xq9WCwmSdJkMtnGDQZD703ATSZTYmLiu+++y7Ls8ePHP/7447y8PJIkOY6zhbvZbObz+T1NYo2PF198cfLkyf1+OQSPRAQPG9pv/ZFjkYVFlJjnOwxxFk51jecf3e/JfSiJNyX504hZyV6h/Z6ET/AsHGew3Lr6yGhhSYLH591p093eKRSKnJyc3NzcO4ljPp9v+/kDi8XCMIxUKnXTAgHoA9Rw3GDEiBFHjx5Vq9UIoevXr7///vvt7e3Dhg3DGJeXl1vT/+DBg6NGjerlspmTJ09+8skner2eoqi4uDiBQMCyrFKpVCqVp06dwhizLHvo0KH4+PieAoIkybS0tKKiotbWVoSQXq/fv3+/reCDMS4tLS0uLu69xzch9qZSZrGnC3BnI8KYKduKzQw/6kFCEcHzi2ZPbsGsERu15rqztlNEIpFSqXSmWBQu8QsW+WyrLaXNDEKoTF39TW0pRq79rFCsLMhPKNvfdMGCOdrM/NB4LloW6N+v7u0Wi+Xq1asdHR19Hjly5MiysrKqqiqEEMuyxcXF7e3trj7d2LFjz5w5Y/3Xqa6uvnnzZmxs35+TTCYTTdMKheNFRE1NTVevXoWO7cBJsK93g9GjR7e2tr7++utCoVAgELz44ovWb+0WLVq0du3aTZs2GY3GGTNmjB8/vpdJxo4dW19fv3LlSmvpZv78+UqlkiCIp59+eu3atXv27OE4btSoUY8++ihBEDU1Ne+++65Wq0UInT17FiH07LPPZmdnjx49WqPRvPHGGxKJxGQyzZ0711ZGN5vNpaWlKpUqIyNDJpMhhDi9mv5btqX+vPWAjpdFZOgIybJCwbRXLW3V2j+nIL4QUWLJgnyeIgIhJJrzAb3+P7RvhiEen5D4EgG/5lRycnJZWdmUKVN6+eCCEKJ45IqEhz+o2Lfg2OcCki8g+KsSsgnk2k5Zwhe8nDDzT+U75//yV4xwnCxoWew0VyexYln2u+++y87OHjFiRO9HRkVF5ebmfvTRRyRJGo3Ghx9+uB9b8sTExGnTpr311lvWwt3SpUuDg4P7PEulUslksq5Zf/bs2fPnz69YsaL3v3MArKC3uNtYv6KUSCQOH/NpmhYKhU7+B9nTJEajkSRJJ6+mt36SkEqlDpNYLBbnr9zArBGZtIQs4NchzowQwvo2QupHb12G6DbJ4h3WR7Ra7bp16xYsWBASEuLM5AYLY+LMPpRrFwg50LIGPo+0Fe77QafTffDBB/Pnz3fyB48xxjRN916Lc2YSg8EgFoudKQdhjLdu3RoaGpqVleXw0Hfffdfe3r5w4UKo8gNnQA3HbUiS7BqvCCGJROJ8NPQ0iUgkcv7HpgiCkMlkXSdx6coNghLdFvQW1rDlefqr+VzbDWPR++aLe/ij5toelMvl06ZN++mnn5wsKYhJwR0GPUJITonvJOgRQjdu3FAoFJGRkU4eTxCEVCq9w300QRBd38t7cuPGDbVanZaW5jBuNBpv3rw5ceJECHrgJNjXA2dho5Y5tsFc/gMhkgvGL+EnPnTboxgfPnzYx8dn5MiRA7VCV1l/GHXQxqXBYNi1a1d2drbt6h17g3zxYLCBrAcAAM8HNRwAAPB8kPUAAOD5IOsBAMDzQdYDAIDng6wHAADPB1kPAACeD7IeAAA8H2Q9AAB4Psh6AADwfEMo681mM9wAFgAwNA2hrK+urn777bcrKioGeiEAAHCvDaGsj4uLy83N3b17d0/9WgEAwFMNoaxHCEmlUpqme+rXCgAAnmpoZT0AAAxNQyvrvb29McYajWagFwIAAPfUkMv6iRMnbtmypby8HK7JAQAMHUMr6wmCCAkJMRgMN27c4DhuoJcDAAD3iLPdRz2DVqvdunXrokWLYmJiBnotAABw7wytfb1arUYI+fn5DfRCAADgnhpaWY8Q4vF40I4ZADDUDK2sN5vNUqmUoqiBXggAANxTQyjrGxoatm7dOn36dIlEMtBrAQCAe4owGo0DvYZ7RKfTYYzlcvlALwQAAO61IZT1AAAwZA2hGg4AAAxZkPUAAOD5IOsBAMDzQdYDAIDng6wHAADPB1kPAACeD7IeAAA8H2Q9AAB4Psh6AADwfIMr6zHGDMMM9CoAAMDTDK6s1+l0X3zxxXfffQcNAgEAwI0GV9bL5fKFCxdevHixpqZmoNcCAACeY3BlPUKIoiihUKjT6QZ6IQAA4DkGXdYDAABwu0GX9UKh0NfXt66ubqAXAgAAnmPQZT1BEA8//PDRo0cPHDig1+sHejkAAOAJBl3WI4S8vb19fHyuXLkCfVQAAMAt+AO9gG7s2rUrNjZ2zpw5A70QAADwEINuX280GpubmyMjIwd6IQAA4DkGXdZbkSQ50EsAAADPMeiynuM4hJBUKh3ohQAAgOcYXFlP0/SOHTtCQkKghgMAAG5EDKprXViW7ezsVCgUBEEM9FoAAMBzDK6sBwAAcDcMrhoOAACAuwGyHgAAPB9kPQAAeD7IegAA8HyQ9QAA4Pkg6wEAwPNB1gMAgOeDrAcAAM8HWQ8AAJ7P5azHGJtMpruxFAAAAHeJy1nPMMw333zz97//HW6uAAAA9wuXs14oFD755JM0TV+4cOFuLAgAAIDb9adeT1GUTCZra2tz+2oAAADcDfDdLAAAeL5+Zn1wcPDNmzcxxu5dDQAAgLuhn1mfkZHR0tKyc+fOjo4O9y4IAACA2/Uz60UiUWBg4PXr1zs7O927IAAAAG7H799pv/zyi9lsfvnll0mSdO+CAAAAuF0/9/U1NTUREREQ9AAAcF/o/3U4PB5cwwMAAPeH/uS1xWJhGMbX19ftqwEAAHA3uFyvN5vNRUVFLMumpqbejQUBAABwO8LV29pYLBaNRuPr6wvFegAAuF+4nPUAAADuO/D9KgAAeD7IegAA8HyQ9QAA4Pkg6wEAwPNB1gMAgOeDrAcAAM8HWQ8AAJ4Psh4AADwfZD0AAHg+yHoAAPB87s96jLFOp2NZ1t3Toot1nVqj2b3TAgDAUOD+rO/s7Fy7dq3bexOq9cwb28rLqtudOfhghWpbab17FwAAAPcv92f9lStXAgMDFQqFe6f1kwl2vZIxOcnfmYMvN2pP34Cm5wAAcEs/+80ihHQ63Y8//ujv7z9p0iTbIMuyx48fnzZtGkEQ1pEjl9ve//5qvdqgkFGvzIx7ZKSSIJDeZP648Pru000Iodmjg1Zlx0iFfIRQm455d9eVqSkBfz9wo0ZFP5kR+vqj8ZUN2je+qdCbzAihNx9PGB/vhxCiTZY/77osFfF/ONdMM5Y5Y4JfnhkjFfKPXml7Z+dlmuFYM5f9v7/YTikvLz9x4sSjjz7q5+d3B39dAABwX+pP1jc3N3///ffHjh178MEHs7Ky7B9qbW3FGEdGRlr/eLPN8HHh9bf/IzEtyudUdfvb2ytilZL4IPnHhddVWqb49+MRQm99W/Fx4fX/np1AEMjC4fL6zhat6d15yf5yAZ9HIIRilNIvnhulM5lXf1NhYDjrzBzGDRpjiK+o6LXMpk7Tik3n/3H05pKpUePj/QrzMr/4qbq61fCXJ5NtCxs2bNilS5feeuutoKCgefPmxcfH296NAADA47mW9TRNr1u3TqVS5eTkPP3000Kh0OGAU6dORUZGSiQS+8FOmrVweEykz+ZlaWIBr03HnL7R8fqj8XIRHyH0+qPx1a16C4f5JIEQkgj5r86KSw6V206nSJ6/XCCieBTPMZ2nJAeIBGSkv+T5SRG7Tzc+M36YRNh9BxWZTDZ37tzf/OY3VVVV+/fv37hx46pVq5RKpUsvHwAA7lOu1espikpKStJqtRUVFWq1GmNs/6hOp6usrExLS7ONhPuJfz87Pv9w7YQ/Hnl23amrTTohn2zpNBkYi1hw66mV3sKMWIU16BFCPAJ1ifS+SYV8jkPc7evpqr29/fTp0+Xl5QkJCVKp1OWnAQCA+5Nr+3qKombOnDl9+vRTp059+OGHJEkuWLBgxIgR1kdra2ulUmlAQIDteCNriQmUbl46xsxxRyrb3tpe8d68lFCFSCwgOfzrMQaG85FQd1JTMXNc7wfU1NR88cUXHR0ds2fPfu+992QyWf+fDAAA7jf9qddTFPXggw9mZGRcuXLFYDBYBy0Wy9GjR8eOHUtRlO3Isur2/9t7bc3TqVEBkpER3n4yAc2YFVJBVIDkm9K6pJBEHkFsOFRb3aL/y5Mptq2986636KfhAJ2R/aa0/oFIH5no1ssJ8hYdqmhrp1kfya+LmTdvXmpqKrTJBQAMQf2/DocgiISEBNsfNRpNZ2dnYmKi/TFjY3xnjVI+u65MRPGMLPf4mOCxMb58knjt0fg3tl2a/t4vCKGEYOmf5/UW9BfrOpd/dc76U1RnazsQQkunRS7IDEcIHa5UbSuto03ciGFei7LCbadMTfbfd6555v8eQwg9MyF8+fSoiIiIiIiIfr9YAAC4r7mtt/iJEyfq6+sff/zxrte3WDjcaTB7ifnk7ZV4ndGMELJtxl2iM5p/9/X5BePDJyX5GRmLXEx1PabTwAr4PBEFG3kAwFDX/329g7Fjx/b0EMkjfKXdZHH/Ut4BRfIocfffMHt19wYAAABD0P167zM+SWTGK4J9HC/6BAAA0JXbajgAAAAGrft1Xw8AAMB5kPUAAOD5IOsBAMDzQdYDAIDng6wHAADPB1kPAACeD7IeAAA8H2Q9AAB4Psh6AADwfJD1AADg+SDrAQDA80HWAwCA54OsBwAAzwdZDwAAnu//A9EJu2KhvDwsAAAAAElFTkSuQmCC;" vertex="1" parent="1">
          <mxGeometry x="166.01" y="380" width="197.97" height="187" as="geometry" />
        </mxCell>
        <mxCell id="BK3HkUFeYTMl9-7FlGzP-6" value="page.ux" style="text;html=1;strokeColor=none;fillColor=none;align=center;verticalAlign=middle;whiteSpace=wrap;rounded=0;" vertex="1" parent="1">
          <mxGeometry x="535" y="220" width="60" height="30" as="geometry" />
        </mxCell>
        <mxCell id="BK3HkUFeYTMl9-7FlGzP-7" value="" style="shape=image;imageAspect=0;aspect=fixed;verticalLabelPosition=bottom;verticalAlign=top;image=data:image/png,iVBORw0KGgoAAAANSUhEUgAAAfcAAAHgCAIAAAA3xLNTAAAACXBIWXMAAA7EAAAOxAGVKw4bAAAAEXRFWHRTb2Z0d2FyZQBTbmlwYXN0ZV0Xzt0AACAASURBVHic7N15XFTl/gfw73OW2YdNkEURV1xRc0tbULNM09Ks1NIWs9Sy+tXtZrfFylvdbuVtubdMK8tc0bxGarnv+4KaKxIKgoCgzDDMcvbz/P4YLyHCMGAmTt/3yz/kmec8z3MO8Jkzzzmch1BKASGEUIjiJEm61mNACCF0tTDXegAIIYSuIkx5hBAKZZjyCCEUyjDlEUIolGHKI4RQKMOURwihUIYpjxBCoQxTHiGEQhmmPEIIhTJMeYQQCmWY8gghFMow5RFCKJRhyiOEUCjDlEcIoVCGKY8QQqEMUx4hhEIZpjxCCIUyTHmEEAplmPIIIRTKGnTKn3UIuRd813oUCCF0HWvQKf/VptyvNuYGU/PY2fKvNuWKinaVR4QQQtcZ7loPIJBp97UPsmZRmbQzy/Fgn6bAX9URIYTQdYaIoniFTXg8njVr1kRHR/ft2xcAzrnEt384ufuUk2PIPd3inh/UymrkKIWffyn+aNWvZV61fRP73+9r17KxFQB8kvbeipN9Wkct3FVwosDdp03UR2M6qRqduvTEsYJyAOjbLvqVe5L9He3IKl26t9ArqRk5rvhI09ThbW9sFZlZ6H7t+xMOj+yTtQgLTwg8ckuzh25q6na758+ff9tttyUnJxNCrnAfEULoOnVFKV9cXLxy5cpdu3b16dPnnnvuiYmJUTX6t8XHWjS2TrqtuUfSnv3ul9s7xTxyS7PtJ0s/+OnXf47q2DbetmRPQXpG0YzHujSyGTyi+ux3h8+7pdeHt23Z2EoBYsOMlEKZT1E0fcHOs8Uu6Z+jOvi7W3/0/DvpmR+NTenSLPzrzWd+OnRu5riuCZEm/0sLduT/59HONtPFTyeapu3bt2/58uVer3fYsGE333yz0Wi88uOFEELXl3rO2Ph8vpkzZ164cGHo0KFjx46tEqCirImKFm7mZjzWRacUAFb9UtyvfXSHJnYAuLd7fGKUmWN/uyTwzMCWvVtHVXxJCERaeQCwGKpeNmgRY02Os7EMGd27yZYTF7LOefwpfzmWZXv37t27d2+n07lly5YpU6aMGjXqpptuqt/+IoTQdaqeV195nm/fvr3b7T5x4oTD4aCU+ss5lrx8d7LTK9/xz513fbhr2b5CA8v4JO2cS7QaWX8dk4G9pW2jcPNvbzAcU+dhsAwxcoyq0cDVJEk6ceLE3r17o6Ki4uPj69oLQghd7+p5Ls/z/ODBg2+//fb9+/f/61//Yll2zJgxnTt31nTKMuTNEe3evp85U+p7c+mJMp/63J0tY8JM+v8CWdOpS1DtJpZn63+HDwXQaKCI9/l8c+fO3b9/f58+fZ599tm4uDicnUcI/Qld0T02PM/36dOnd+/eWVlZgiAAgEtQJ31zaOzNiXffEJcYZe7QxF4uKABwc3LU7M1n7r4hrmmU+eAZ13vLsz4Zm5LYyFzXHs+7pTKfYjNx20+WOrxK23ibvzzcwl/wyBc8csW8vK7rKSkpY8eOtdlsV7KPCCF0Xfsd7rGpYs8p59vpJ72iqlNoHm1+/8GOceEmRdO/2nRm0a6zPEt4lnlzRLub2kQBgP/q65ibE2/vFFPRgr/wUJ6roqRrs/D/PNp5d7bzg5VZRp71Sqqk6lOHtx3UOdZfQdH0d9JPrjlcwnNMnzZR743swDJ45o4QQlch5f3KBcXAMSaerVyoaLpP1sNMXP3mTipupKGUmgzVTPh4RBUAKk7nEUIIXa1ADDNX8+dJPMuEm3+Hv7a1V9c4YL4jhNBlGvQTDqqIjzDelBzFsTgVgxBCwbpaMzYIIYQaguvpXB4hhFBdYcojhFAow5RHCKFQhimPEEKhDFMeIYRCGaY8QgiFMkx5hBAKZZjyCCEUyjDlEUIolGHKI4RQKMOURwihUIYpjxBCoQxTHiGEQhmmPEIIhTJMeYQQCmWY8gghFMow5RFCKJRhyiOEUCjDlEcIoVCGKY8QQqEMUx4hhEIZpjxCCIUyTHmEEAplmPIIIRTKMOURQiiUYcojhFAow5RHCKFQhimPEEKhDFMeIYRCGaY8QgiFMkx5hBAKZZjyCCEUyjDlEUIolGHKN2iUUlVVr/UoEELXsT9LygvzHpVWv11rNb00x/v5QNdfLK6/WKSf36prL3JGWvnUxPKpie6322mnt9dnoJU4HI5//OMfW7duvcJ2EEJ/Zty1HkDdUMkjrfo71/Eurk2/Om2o+xxEcNVaTVz5OnCmsH8UE4OZanU+ieY7DeWSeull+cKiCVQRK7+k7J2nlZ01DXwl+NbWrl3bvXv32267ra7DQAihCtfZuTxVZTV7s16aczUa170O/fyvfKchxGQHhiO8qa4tEKONiW7JRCQCw1Z5SSv4RcvZGXxToijm5eUlJCTUdQwIIVRZ/c/lqc8pLH1OOZwOAHzn4eb7/00skdqZvcL3z5iGvsu1u4MqorDoCWCN5pGfyRuma4VHtILDuiOXaZxsHvMN16wHANDyIt/8x9XsLYQzcF0fMD/wH3+26o4zQtpErtNQefOnujPf0H20eewcYd6jyskNVHSJy/8m/vQGY29seWIZE5VU0wjVvP3Cgsf189lsXAcACo3b+suVX5aJP76sO/OZyETTsPf5LiMA4LfGf3pDXP1ORePaqW2+JZP189mENxlunmAc/BbhTXJGmrJnjmXcYmIO1x1nhLljTfe8x7a8pdphyBlpYvpLoAigq+VTEwHANPxDQ/fR9T7yCCEUvPqmPKXC0ueouzhsWg4AeL+8V1zxmnnUDDapl6H348Kyv1gnrVSOrtDO7LM8sYzwZiq41LwM6xNLmejWwvxHxSVPW55aTQwW37xHidEW9o9ikD3eL4dLK1833TsdAEDXtHPHqbvY/NDXTEQisBwAmB/+zuh1+L4YZLjlKUPvcbUM0HNeXPQk1/Jm0ws79JJM7zcXU1XL2SX88JJ5yDS++2h59xzxx5eZmDZsQkq1jVNXoW/x04abnjD2fU47e9D37SimSVdD99GgCNTnoLpGAEDXdG9plfmZygzdRxu6jxZ/+KtWctI6cUWQB1jXdVVVDQZDkPURQqha9Zyx0S9ka/kHjLdPIdZoYo02pE7W8jOozwEAfO9xbFx775fDpI0fm+//Nxvf0b8JG9+BbXoDMdmNg9+ivjK96Ihe8ItedtY4+C1ispOweGO/59SsDdRd7K9PeItp2Ptc675MdEsmslldR6idPUhln7H/C8RkZ5v1ZOM7+MuVQ/9lEzrxPcYAw/HdRxN7XICJFBKeYH/1iDF1su7MI6YwEpGo5+2v88Gqu1OnTs2fP79Ro0bNmzf/A7pDCIWwep7L644ztPycd+bQihJib0x9ZcQSRTij6e53PZ8N5Nv05doNvHxbYrQBy4GmUE25+OXFFmKpKlHJS+wAAMAwQOp/2UAvKyDmcLBGVynXSk6qmetcfzH/VrP5jTW2Qqm0+m15x0wS2YyJaKqXnobEbvUeUvCKiooKCwt79uzJ8/wf0B1CKITVM+WJrTGxxVjHrmBb3FT1NUrFDdOJ0apkb+Mz13Lt76xaQVdB1wEAWB40lUqei9tJXmA44H6fOQomogkVXOC9ANaoS0Zuj+O73Gt5dCEQUmsj2pm98v6Flokr2cRuAOCddffvMrZa3XLLLV26dPnkk0/at2/fsmXLP6ZThFBIqufJMhPblmnUQtownYpuAFAz10obpgOlACDvmKVlb7WMW2y87QVh2V90xxn/JtRVRD3ngVJ551fEYGabdGGbdiPhCfKeOaCrVHTLu2azTbow4U0C9EuMVjCGqbm7/X0FwDa9gRgsSsYioFR35umluf5yvsu96qntyvGfAYCKbnHFq3pJVk2NUFWkikDdJQCgZm/RCn65OAx7rO51UOcZANBObaNB3KNJIprojjPUVVhrzYvj5Hmj0ejxeIKsjxBC1arvuTxnNI+a4Vsw3v1GM+BNwJsto2cCIWr2FnHNu6ZhH7DxHZnoVtqvm8UfXjQ/Mh8AdG+p+4MeoIpAGMvDc4ktBgAsD37p+3ZU+etNgOpsYnfziI8Cn2ITzmi642XfvEfKf1kGAJZH5lfzWcFf0xZjGvaBb94j0tbPwWAl7MU95TsM1u94WZg/TmBYUCU+ZRgJi6+pO7Z5b77rCO/s+wlnYKKSGFuMLrgAgEu+jUvs5vmkLzGYmYTOTFicv768+1th8VP+//uns8yjvvBfyzX0HKse+q/73Q4AwPd61Hz/p3U64AghVD9EFGu8OSQYVPKA7CP2xoGrXbzDZMJy6ikh1kbAXPLuonsdhDNUTNDXTlepu5jYY6u0U934KBWcxBxZ9c2DUuo+B+bIYG6Kp4oIktv/tnRJueSBStcVgkHdJWCwBLMJpXTOnDnx8fGDBg0Kvn2EEKriSv8qihhttUZ8pdqk2mhmrFF1ykpgOBLepPaI9/doiarm8wEhJCw+yL97Irzp8ogH/77XadgAxN44yE0IIXfcccf27dsPHz5cpy4QQqiyKz2XD1I9/r4fAYCiKJIk2Wx1ey9BCKEKf1DKI4QQuiaus+fYIIQQqhNMeYQQCmWY8gghFMow5RFCKJRhyiOEUCjDlEcIoVCGKY8QQqEMUx4hhEIZpjxCCIUyTPlgSZIkCELFlx6Pp/KXwdN1Xfc/Xh8hhK6+6z/lKaWuAv3C6Yp//sfB17qVenI99V4IshOfzzd79uy8vLyKkuLi4u+++87n89VpsAcPHnzrrbfOnj1bp60QQqjervuUp2K5b8F4z6d9PR9080zv5fm0r5j+Uq1b6c48X9ok9diqS5pylwjfP6MVHq1SWdO09PT0Tp06tW3btqKwVatWrVq1WrlyJa1tPZMKHo9n9erV48ePb9aszsvYIoRQ/Vz3KU/M4danV4e9nc+2utVw42Nhb+ebH/6u1q2YqKSwN7P5Xg9XLqSSR83aSN3nqlQuLi7Oz8+/4YYbqpT37t07JyenqKgoyKGWlpaKohgRERFkfYQQunL1XCvqatMKjwrzH9POHSdGmzH1GeOgqUCInJGmHk4Ho005sJiwvLHf8/7yalvQHWeEtIlsm/7y5k+o4OKS+1vGziG2GO30dt+CJ6jsBQDT8A8N3UcDABVcvm9HaYVHqODyzX0YGI6N72gZt5iYwwHg8OHDSUlJdru9Shd2uz0pKenw4cMJCQlX+XgghFA9NcRzeeoq9M0dy7ZODZ9ebp28Rt6/QN75JQCAIqjZW7jkAeEfOE0PfC7tmq2d2VtjK7qmFZ+kZfn2qVn2V4/qjjx5xywAYBJ7WCevtk5cTqyNQLl4+dT/gcD2/DYmqpnlkXlhb+dbn17tj3hFUbKyslq0aFFtJ02aNMnJydE0LZj9UlWV4ziWZet2OBBC6Ao0xJRXsrcSQkx3vAwMxza9wdB9tHzge6pKAMBEJnLt7wSG49veRszhARbmBgBiMPOdhxOTnYluyTbvreUfAADCm5io5iQyiXCGYAajaZooimazudpXw8PD3W63oii17JGi7Nu3b/78+ampqbgkCELoj9QQUx4UAVieMrz/KxLVHKRyKnkrV6EMT3gT1dUgm2TM4VSrJYuvHkVRcnJyZFmOi4u7VmNACP05NcSUJwxHFZHoF0OZCmXAGoM89W6YLBbLyJEjx4wZk56eXtebLxFC6Eo0xJRnW6cCpfLB74FSWl6k7FvAtx9Y13W064EYrcBwWsElq2mbTKbY2NiSkurvwS8sLIyNjTWZglol3Gq1+ny+Wqd3EELod9QQU56JSjI/8B9p40flrye43+3INOlsGFDjLfC61+GZ3sv1gknNXCdt/cz1gsk76+4Ajasn15e/3Mj9eoJWcFhY/JTrBZP4w1/9LxF7rDF1srT67fJXYsrfSNLOHfeXd+jQITs7+/JLrJqm5ebmdujQ4cp2FyGErqIGvbo39ZwHo53wQZ0p/26dKiIITmKPq7hH0+12z5w5c8yYMVXumCwsLFywYMGkSZMuv8myWi6X6+OPPx43blxSUtLvP26EEKpOQzyXr0BsMX9wxAMA4U0kLL7ybfh2u33AgAEbN26sfDqvadrGjRsHDBgQZMQDQHh4+K233pqWluZ0On/nQSOEUA0a9Ll8w0Ep3bp1a0RERJcuXfwlv/zyS1lZWWpqKqnhz7Jq4vV6OY4zGo1XYZgIIVQVpjxCCIWyBj1jgxBC6AphyiOEUCjDlEcIoVCGKY8QQqEMUx4hhEIZpjxCCIUyTHmEEAplmPIIIRTKMOURQiiUYcqj64zH4wlyCcY/mMvlwsdKowYoZFNed5zxfnKrdnp79S9Tqp5cT70X6te4nJHmnTGICq76j+9SlUcrZ6SVT00sn5rofrtdjeOvjFKt8Ki8Z45WeBQorfcYqKtQ3v2tmrmOKhcfeiGtfluY92i9G6zPGASXd8Yg/+5X23Vubu4333xTeSUWryr9/egPR11nq21Q0OQqX247f3JTyXG3csmDPVyKb1PJ8W3nT1ap71em+MqUS9Z+2VR8/IMTK6tUy8rKWrp0acN8B0J/ZiGS8uqvm8X0KVTy/Faka7q3lCrVP6VHd+b50iapx1bVsz9FoD4H1X+/3+dKo+U7DbX93xbLo/MBaE3jr0A9571fDPbNGKjsX+T9/A7P5wOp53zgTao5VgDyjlmeD3soGWni8r953r9BKzoGAFRw6T7Hle1Y3RBTmGXMbNv/beE63nV512VlZd9///0DDzxQ+TmgOtXLFUG+dG1ItyIuzts9dtcX/zi2vKIww5Hz+J4v08/uX372wBP7vtrvOO0vX1l48Mm9s1cXHl6ct/upfd/mXvren+s9/8z+7/514ufKhTJV3Zd9a7p160Yp3bFjR333HqGrIkRSXi/NUbM3U7WaE7FqMVFJYW9m870evqqjqh9itDHRLZmIRGDYWivLGYv0sgLbS/usk9fYp2RQd7G89bPAm1x+rLTCI9KG6aaRM6yT19he2s826yGteedKPhbUHyEkvAkT3ZIxVvM850OHDjVp0uTytXPNrCHeFFHxpVsRXj/y/dGys00tURWFgibPz90xvGmPf90w5uNuY29r3HFB7k5Bk52yd3nBgQeT+rzfdfR/uj+SHBa3LH9fxVayrs7J2Srp1czDVG7cj2XZfv367dq1y+1212PXEbpKuGs9gCulnd7uW/AEFZxU9nne6wyEGG+eYBw01f+qcmiZb+7DVHBxyf0tY+cQW8zF+rIXAEzDPzR0H32xIUrF9e/Lmz+lPicTmWga9j7fZUSAfqkqi0ueUo79TFje2O9546CpQAhVRDH9r8r+hVQRmcbJ5oe+5pr1oIJLWDieTeol7/xKLytg4zpYHlvINE4GSqVtn0urplFF5Fqn1voWRX1OYelzyuF0AOA7Dzff/29iiaSuIsIZgDcDAAlPsIyaQUWPf3ekbZ9La96lgqtiJDUdKy1vH7FEsq1SAQAIMfQZr/yyjApl4J9CmTlEzdpEzOHmYR/43xf1kizfwie1vH3AsBUj0R1nhLSJbJv+8uZPKh9wafXbus+pl5ys0ki1uxNg90VRPHDgwF133VXlUc823vSXdoPDeHPlko9uGMMSZlb2xrP/+0BAKdzTpFuXyGb+L5tYIo+6zuqUhvHmdzuPDPcfQCAmxlCuChVNrT13xCULN0W3cVy6uHxqTLubGlXzSS4mJsZisZw+fbriCdUIXXPX/bk82/IW+9RM0z3/ZOPa2145HPZ2fkXEU8kLQO1Ts+yvHtUdefKOWQDAJPawTl5tnbicWBuB8tvvs3J8lbJ3rnXST+EfCYbUZ8QVr+mO3AD9UlchnzIs/AOn6YHPpV2ztTN7AUDa9LGWs9v+2rHw6eVc61Txvy9QyUN1TXfmqae22V7cFfZOAZjDxVXT/D1K69433/dp+PsOrt1AkL0BugNKhaXPUXdx2LScsGk5emmuuOI1AOB7jqViuferEdrp7aCrbMtbuA6DAEDOSJM2fmwZlxY+vZxPuUdc9CT1nK/pWOlFx4k9lrFePDnl2vSryFzdmW+642/h08sNfZ8T17yjl52lkseXNolt2iV8ennYG1n6uePyts8BAHRNKz5Jy/KrHHAquNSjK6o0UtPuBFBWVuZyuaKjo6uUEyCRBitLmMollb/0s3CG/rEdogw2AJB1ddv5k53Cm1o5I0uYGKMdAIpF19pzRw6VnRma0NW/yVmf4+fCQ4+2vNXCVl0MwMwa7JXeVyrwPB8TE3P69OnA+4LQH+m6T/kAiNHKd72PmOxMdEuu7QAt/wAAEN7ERDUnkUmEM1TdQFP9J7DG1MnWZ9YRe9WZgcqYRs3Z9oOA4fgOdzL2xnpJFgCYBr5im7Kfskbdkcc160k9JdR9cVlwvssIYo0mlki+01D9wikquNTMtWyTznz3B4Hl+U53Bz6T1S9ka/kHjLdPIdZoYo02pE7W8jOoz8HGd7S9uIuJbun9akT51ERp62dAKVCqHEgzdLmXa90XGM5w8wRKqXb2YD2OIZvQiW11KzCcoet9wLD6hVPEaLM9t9F836fUXUxlgWnSRc3dc/GAG8x85+H+A8427+0/4ADAxLbzN8J3HAKU6hdO1bQ7AUYiSRIA8Dxfj72ojAKdk7NV0OTRSb0rCrPc5/72y+JZ2RubmqNa2hoDgKJr3+Zs7RzRrEtEszq1HxER4XD8oRczEArsup+xCRJhOF0LdJcb32Ewdeb5Fk0AbymTkGIe/gET0TSYlikFIITqKvinMuaO1d0lbEIKlby0uh6JOQKoTnVNv3CKjW0PwS01pTvO0PJz3plDf2vH3pj6yoglilijLWO+AV1V9i8Sl79MWJ7r+gAtL5JOrJEqzdHrZQUBd0MHSgMNhuEAADQFAJS984QVrxJrFBvTRivOZBq1qKa6OVxzn6tSSIw2YDnQlAC7E2iQv4efCg/tvpD9RqcR4bylorBTeNNvb5wg6+o7x9Jnn97yUrsh28+fLBScDzS78ZzgEjRZ1tVi0RVttF/+KQGhBu7PkvK10n1OvssIwy2TqOSRN3/i/fZB68TlbEJKnRoRV01j4jvZXpwNhKgn1wtLnwtQmYlupRWfqCVb/4fYGhNbjHXsCrbFTZUGrUqrppHIREPvx4Hh+F4PK9lblaMr+RsfA2OY6Y6XjXdNC2bYTLMeatYG6ikh9lgAkDPS5B1fWscvqbayXnZW3PChecTH/A33A4D4w1+1kpPB9FL77lx9KwsPLsvf92qHYc2tF2d+fKq8pzS7S2SzKIPNwHC9GrVaXXTYrQj7HKfLZN+0I8sAQNZVjerTji57s9OIWFP4HzlghK5ciJyYEEuU7rlAnWfq3YKyfYb3i8G0vIgYbVzbOwhnBPniLdKapq1fv37Pnj201ttOFIF6S6kqUdEtH1hS5W7FKrh2A7Wi4+qpbQCg5mcEvvueiW3LNGohbZhORTcAqJlrpQ3TgbBAGGnte/7ZGFpepJ89wCV2I5yR73yPvH9hRbmYPqXiDsvLjxXfOhWAyBlpQCkV3fLOr9nYdsRadQb8Il0FRdDd5wBALz6pnFxfyzEJfncCHt6oqCiO467k9pX9jtNL8vY83eb21vbYikKFqovzd687d5QClXV1b+mpJGu0nTdPaT900U2T/f8GxqWkhCfO6DEumIgvKChISkqq9yAR+t2FyLk81/5OrlkPzyd9CcuxLfpYJ/xYU0315HrfN6P899gIi58SFj9lTH3GdO90w62TtXMn3O+0B94CumJMfZZN6uXfRBCELVu2xMXFdevWLfC8sHHga745o8tfaUx4I5vUC1gDlTzEHFFtZb7DYK37KO/MIcRoI5YoYC9eJ5B3fyssfsr/f/+chnnUF4be48yjZvgWjHe/0Qx4E/Bmy+iZQIhhwEtU9no/uwMYFlSJ63S3od/zAGC4aQJ1nvX+ZwBwJtAVwy2TKub9Lz9WJDzBNOIjYdEEad0/QZW4Nv1Md79b0z4yUc0NtzwlrXxd+ukNMEcwUc2pLFBVCnBYLkc4Y7W7o3sdvi8GaQWH/dVcL5jYJp0tT61mrFEWiyU2NragoKBp06Bm0qrwqtJ3OdsvSO43jvy3ovD/2t55Z1znp1rf/uGJn5bm76VAm1tinm5zez3a9/P5fKWlpf379693Cwj97kJqdW/d6wCAintF6oEqIghOYo+rMouiqiohhGVrv4EdAKjnPBjthDcF26MqEXOw8wBU8oDsI/bGl5ZS6ikh1kYXZ88r6Cp1FxN7bNXyGo5VHUauq9RbSmyNg7yuUJPqd6cGJ06c2LBhw8SJE6/8GuzlyhSfkeHM7GXX5Ovi+PHjmzZtmjBhwtUYIUL1E1Ipj0KbpmmLFy9OTk7u0aPHtR5LNXw+35w5c+66667mzZtf67Eg9JsQmZdHfwYsyw4fPvz06dNOp/Naj6Uau3fvvvXWWzHiUUOD5/IIIRTK8FweIYRCGaY8QgiFMkx5hBAKZZjyCCEUyjDlEUIolGHKI4RQKMOURwihUIYpjxBCoQxTHiGEQhmmPPoz8ng8mlbNwq0Nk6ZpTqez9gdfI1SdkE153XHG+8mt2unt1b9MqXpyPfVeqF/jckaad8agwE+Er5PKo5Uz0sqnJpZPTXS/3a7G8VdGqVZ4VN4zRys8GvgR7bU04zmvZCxSM9dRJdBDL6jg8s4YJGekVf+qq1De/W3lRqTVbwvzHq33qOrBP0L/May269zc3G+++cbn81UunH9mx/wzOyqXaFTPLC/8ufBQrvc8haoHVqN6segStN/WZC9TfEVCmf9fsejSqF6lslsRAIACvSC5K2r6/7krLUF8+UgopT/99NPBg/VZ0xGhEHm+vPrrZvXYz8bBbxCj7WKRrune0poCS3fm+dImmQe/yfd6uD79KQL1OaiuXdFTdy8Z0G+j5TsN5ZJ66WX5wqIJgQMXAKjnvG/uw3rhYSY+RVz+ChPfyfrYQmKLCbBJNceKUmn136WtnzFxHannPJU8loe/49r0q75HXaM+R+WF0SvImf4gzgAAIABJREFUO2ZJq6Yx8SnUe4HKPsv4pWx8Ryq49IALuv7uiCnMMmY2VSRx/fu6q7DKq2VlZd9///3YsWPtdnvlcq9yySPyXYrvzSPLXIqvqTnqu9ztA2I7PNmqP4HfvuErCw5+fXrzM8l33BnXGQAETZ52ZNlJd5H/1Qje8q8bxsSbIyjQ5WcPzDuznQAZ1rT72KSbfar8r8yfc387w6BeTX6wWZ8Hk/pUOxIA4Dhu6NChX331VXx8fHx8/JUdHvSnEyIpr5fmqNmbDerfiDGo+kxUUtib2Vd5UPVEjLaL+cvU/jh7OWORXlZge2kfCW9CXYWeGYPkrZ8FXgjw8mOlFR2V9s4zj/yCv+F+oNS3eJK08nX2qVXEZA/QThVa4RFpw3TTyBl85+FAqW/eI9KadyyPLgy+hd8NISS8CQFgjPbLJ2UOHTrUpEmTuLhqlm5vbvtteaz1544JmvxJt7HhvOV4ecGHJ366PbaTf+FvAMj1nk8vyOAqrQGr6poO9KV2Q/rHdqjc5pqiIwvP7Hy69R39Y9v73ySsnPG9LqMqKhwvL/gsa91tl25VeSR+ERERPXv23LRp04MPPkiu7Jn+6M/muk957fR234InqOCkss/zXmcgxHjzBOOgqf5XlUPLfHMfpoKLS+5vGTuH2GIu1pe9AGAa/qGh++iLDVEqrn9f3vwp9TmZyETTsPf5LiMC9EtVWVzylHLsZ8Lyxn7PGwdNBUKoIorpf1X2L6SKyDRONj/0NdesBxVcwsLxbFIveedXelkBG9fB8thCpnEyUCpt+1xaNY0qItc6lapygO4AgPqcwtLnlMPpAMB3Hm6+/9/EEkldRYQzAG8GABKeYBk1g4oe/+5I2z6X1rxLBVfFSGo6VtTnAE0m5jAAAEJMg6Zq2VsBQFr9tn4+2/zwd/7jLC5/xfzIfDDaAUA5slxc8SoVXHyHQeaHZhNLpJa3j1gi2Vap/kYMfcYrvyyjQhn4p1BmDlGzNhFzuHnYB/7PT3pJlm/hk1rePmDYit3RHWeEtIlsm/7y5k8qf9fkjDT1cDoYbcqBxZcc8OqOSYBjKIrigQMH7rrrrsuD8qGkPlylt9WBcZ0GxHX0rwBuYnhKqUe9+LlK1tV5udtviEzKqrR8uU+TvaoUbrBUblPQ5DVFh0ck9qwS4r99T4GuLTrSLiy+8lqDVUZSoV27djt27CgvLw8Px7VnUR1c9/PybMtb7FMzTff8k41rb3vlcNjb+RURTyUvALVPzbK/elR35Mk7ZgEAk9jDOnm1deJyYm1UedpBOb5K2TvXOumn8I8EQ+oz4orXdEdugH6pq5BPGRb+gdP0wOfSrtnamb0AIG36WMvZbX/tWPj0cq51qvjfF6jkobqmO/PUU9tsL+4Ke6cAzOHiqmn+HqV175vv+zT8fQfXbiDI3kD7Samw9DnqLg6blhM2LUcvzRVXvAYAfM+xVCz3fjVCO70ddJVteQvXYRAAyBlp0saPLePSwqeX8yn3iIuepJ7zNR0rNulGLqmXb9FEeccsKnmYiKZ8j4eIyV55soUqou4tBf23k2P7a8ftr5/Qywr8I9GLjhN7bMXiU1ybfhWZqzvzTXf8LXx6uaHvc+Kad/Sys1Ty+NImsU27hE8vD3sjSz93XN72OQCArmnFJ2lZfpXvGiiCmr2FSx5wyQGv4ZgEUFZW5nK5oqOrWdLWzpsrLxRl580RvKVM8eV6L8w+vaWlrXG7sAT/SxuLjzsk7wOJN1beXNE1SVPeP7Hyri0fjtr5n/XFRwGgXBHKFN8BR+7wbR8P2Tr9raPL3JdOweV6LpwoL7wrvmuAkVSw2Wy6rl+4UM+LSehP67pP+QCI0cp3vY+Y7Ex0S67tAC3/AAAQ3sRENSeRSYS77BdJU/3nnsbUydZn1hF7NR/qKzCNmrPtBwHD8R3uZOyN9ZIsADANfMU2ZT9ljbojj2vWk3pKqLvEX5/vMoJYo4klku80VL9wigouNXMt26Qz3/1BYHm+092BT0L1C9la/gHj7VOINZpYow2pk7X8DOpzsPEdbS/uYqJber8aUT41Udr6GVAKlCoH0gxd7uVa9wWGM9w8gVLqX+m7+gPFmyzj0owD/iqu/7D8tQTf3Iepr5ZlOviUe4glkolKMvR5XMvf719fsCZsQie21a3AcIau9wHD6hdOEaPN9txG832fUncxlQWmSRc1d8/FwRjMfOfh/u8a27y3/7sGAExkItf+TmA4vu1txByul2TVdEwCjESSJAAIfrm+L7M3/u1QWrbnXO/o1jzDAsBZn+OHs/sfan6TjbtkctDCGfrHdngn5f70W1/oG9N+9qktOZ7zTtnr06QEc+TCPpPn9Z5UIrqWnd1XeasVhQeSrI1aBbcgIsdxRqPR6w14NoDQZa77GZsgEYbTNSVABb7DYOrM8y2aAN5SJiHFPPwDJiKoVaQpBSCE6ir4ZyHmjtXdJWxCCpW8tLoeiTkCqE51Tb9wio1tH+S6qbrjDC0/51/s+2I79sbUV0YsUcQabRnzDeiqsn+RuPxlwvJc1wdoeZF0Yo209bPfWigrCNQBwxlTJxtTJ2uFR4T544SF482PLQpmYMAadE8pSG4AAKoDpYH2yL/8rKYAgLJ3nrDiVWKNYmPaaMWZTKMW1VQ3h2uVZkX8KMMT3kR1NcAxCWrkQZjSfigA7HOc/ixrXZI1OtkeN//Mjtb22CbmyGKxXNG1clkoU3wRvCXKYHu8ZV//Vg8m9TlUduaUtzjKYLOwxuFNu1s4gwUMXSKSst3FFY0Xi66jrrNPtOxX+aIuQr+7P0vK10r3OfkuIwy3TKKSR978iffbB60Tl7MJKXVqRFw1jYnvZHtxNhCinlwvLH0uQGUmupVWfKKWWPwfYmtMbDHWsSvYFjdVGrQqrZpGIhMNvR8HhuN7Paxkb1WOruRvfAyMYaY7Xg58GbaCcmSFmr3ZNPgtYrKzCSnGQVPF9Jdo4HeFCprM2BqB0c4066FmbaCeEmKPBQA5I03e8aV1/JJqN9LLzoobPjSP+Ji/4X4AEH/4q1ZyMqjuKqn+mPxOMssL3arYM6olALQLS7Byhlzv+Qjekue94JR9Bxy5ANSrSkvy9+R4z09pP7RyfY5hOcJoVG9ijmQJuSC5k6zVzBGtLjocabB2jUz63QePUGUhMmNDLFG65wJ1nql3C8r2Gd4vBtPyImK0cW3vIJwR5Iv3U2uatn79+j179tT+ZymKQL2lVJWo6JYPLKGSJ0Bdrt1Arei4emobAKj5GYHvvmdi2zKNWkgbplPRDQBq5lppw3QgLBBGWvuefzaGlhfpZw9wid0IZ+Q73yPvX1hRLqZPoZ7z/qYuP1aMLVo5sETe+x1QCrqqZm1g7I2JLYZENdOd+dRVCJRqp3dQ6be5Au3XzVQRqee8vPtbNq4DY43iW6cCEDkjDSilolve+TUb245Ul24AALoKiqC7zwGAXnxSObm+lgMb/DEJ+D2KioriOM7tdtfa+Inywq9ObSoRywEgs7zQq8rNrTGxpvAZPcYtumnyopsmf9lzfDNr9BOt+vnP989L7s+z1uV6zwPAAUeuV5WTbfFRBltTS6OfCg/JuupSfEdc+W3DL94HWSp7dpdmD4xLMTDBnmlJkuTz+aKifrdPKuhPIkTO5bn2d3LNeng+6UtYjm3Rxzrhx5pqqifX+74Z5b/HRlj8lLD4KWPqM6Z7pxtunaydO+F+pz3wFtAVY+qzbFIv/yaCIGzZsiUuLq5bt26Bp3SNA1/zzRld/kpjwhvZpF7AGqjkIeaIaivzHQZr3Ud5Zw4hRhuxRMH/LrjJu78VFj/l/79/OsI86gtD73HmUTN8C8a732gGvAl4s2X0TCDEMOAlKnu9n90BDAuqxHW629DveQAw3DSBOs96/zMAOBPoiuGWSRXz/pcfK7ZFH/P9n4o/viz9/BboGolKMj/0NTHZDd0fVA8scb/bAVgD1zr1tysHnFlzFbrfSARNYWLbG4f8HQBIeIJpxEfCognSun+CKnFt+pnufremA8VENTfc8pS08nXppzfAHMFENaeyQNWq94kHRjhjtcdE9zp8XwzSCg77q7leMLFNOlueWs1YoywWS2xsbEFBQdOmtUzHDUnoespdPGHfbCPDUYAxSTclB7xOc0tMcq73/F8PLWSBoQATWvdvYYsBgEmtb3v32PIHd36uA+0S0WxYQnd//U3FxynQHlHVzFPV5MKFCzabDVMe1VVIre7tvwZYcZtHPVBFBMFJ7HFVZlFUVSWEsGztN7ADAPWcB6Od8KZge1QlYg723jgqeUD2kSrX6yilnhJibQRVTgx1lbqLiT22ankNx0r3Oghn+O2vpfxtCy7gjJfvDlVEkNyX/wVWHXZfV6m3lNgaB3lxoibVH5ManDhxYsOGDRMnTgzmGqysqx5VjDRYg5w616herggRBkuV+m5F4Bi22jtngkQpTUtLa9KkSWpqar0bQX9OIZXyCNVK07TFixcnJyf36NHjWo+lDnJycn7++edx48ZZLJbaayNUSYjMyyMUJJZlhw8ffvr0aaezlrtFGw5BEPbs2TNmzBiMeFQPeC6PEEKhDM/lEUIolGHKI4RQKMOURwihUIYpjxBCoQxTHiGEQhmmPEIIhTJMeYQQCmWY8gghFMow5RFCKJQ10JSnlMpyLeugIoQQqlUDTXmPxzNr1qwffvhB07TaayOEEKpBA015u93+2GOPHT169MyZ+i8MghBCqIGmPADwPG80Gj2eQMstIYQQCqzhpjxCCKEr13BT3mg0RkZGnj179loPBCGErmMNN+UJIQMHDtyxY8emTZu8Xm/tGyCEELpMw015AAgPD4+IiMjKysKlThBCqH6qLvrcoPz444+tW7e+9957r/VAEELoetVwz+VFUSwuLm7evHmV8pycnHPnzl2LESGE0PWn4aa8H8uyVUo2btx46NChazIYhBC67jTclNd1HQCsVmvlQkVRvF5vlUKEEEI1aaAp7/P5li1blpCQUGXGpqSkxOv1pqSkXKNxIYTQdYY0zNtXFEUpLy+PiooihFR5SdO0y6dxEEIIVauBpjxCCKHfRQOdsUEIIfS7wJRHCKFQhimPEEKhDFMeIYRCGaY8QgiFMkx5hBAKZZjyCCEUyjDlEUIolGHKI4RQKMOURwihUIYpjxBCoQxTHiGEQhmmPEIIhTJMeYQQCmWY8gghFMow5RFCKJRhyiOEUCjDlEcIoVCGKY8QQqEMUx4hhEIZpjxCCIUyTHmEEAplmPIIIRTKMOURQiiUYcojhFAow5RHCKFQhimPEEKhDFMeIYRCGaY8QgiFMkx5hBAKZZjyCCEUyjDlEUIolGHKI4RQKOOu9QCurhkzP3t60jMV/68oryisXLOmRqpUrmiz2k0qV67Se7X/Rwihq6qhpzwF6vN6DQYjz/OVy1VVFUXRYrEwTKCPI09PeqZypAZI58qvVt7q8sqVXw0c1hU1/Y1UbqqiBV3XvV6vTvWKl4wGo8lkEkVRkiUA4FjWYrUSIAE6QgihmhBRFK/1GAIpKytbs2717bfd3qhRdOXy4yeOZZ/KHjJ4KMuyQTZVObjrfS5f04eDy2sGGEBlbrf7p1UrfT6vLMs8xzMs06ljSs8evbbv2Hb8+DHewOuazhsM/fr2a5aYVNsuIoRQVQ39XP5MXq7Nao1q1KhyoaZp2aeyW7dqHXzE16qmKL+82uUfDiq2qqnxipcunzWy2+2jRz4oiuLyFekpnTq3b9+hokJ8QsLdQ+6hQI8cObxx08Yhg4fExDSuz74hhP7EGnTKy7KcfSq7U8eUKvMVJedLBMHXtGli4M0rIvXyaPa/FOCsvEpJ5TSva7JXO7cTYMMqCJCOHTqdOn3qZNZJTHmEUF016JQvdZQCpc0Sm1Upz8s7E9s4LsweFnjzyhPrVUI28Je1Xh0NZl6+yrR+8LF+OZZlY6JjnGXOereAEPrTatApf/JkZqNG0WazuXKhIAh5+Wd69rixTk0FM4de5epogGr1mJqv97k8QghdiYab8h6Pp7ikOPXWvlXK88/mMQybEJ9Qp9aqTNoEvs2mQuB7Jau0GdgVxnrlm3AQQih4DTflCwoLDDwffemtNRRoTs7pZonNDAZDXRusfF9jvW9Xr9MMfoDyOoW+KIrnioratm0X/CYIIeTXQFNe07STWZktW7aqcpu8o7TUWebs0b1nnVqrPI0eTMQHvsemcp3g3zbqfS4vSuK27VsIQ5LbtK1fCwihP7MGmvLOMqckiS1atKxSnp+fHxkRWeXGylpVG81XMrwqLdTUZjDducpdy35YKggCAGzasnHTlo2dU7rccvOtAJCfnzdj5mccy7Vo0eLuIcNMJtOVjBkh9OfUQP8q6tAvhxyOC/37D6h8D6WqquvWr2ndOrlN6zZ1bbDaWydrnaavEGDD4F+qqU2EELp6GmjKI4QQ+l3gMykRQiiUYcojhFAow5RHCKFQhimPEEKhDFMeIYRCGaY8QgiFMkx5hBAKZZjyCCEUyjDlEUIolGHKI4RQKMOURwihUIYpjy4hSZL/AZnXiqIoLperHhvquq7ruNYKQlU1xJTXHWe8n9yqnd7+O7YpzHtUWv02AGint7vfblc+NbF8aqKckRbMttRzXslYpGauo0r9n+xGXYXy7m8rNyJnpHlnDKJCfRKt3oR5j/r3vdqufT7f7Nmz8/Ly6tGyJEmzZs168cUXX3zxxSVLltR7hJIkLVy4MDc3t05bHTx48K233jp79my9+0UoVDXI58vrmu4tvZJIraZJn4MILgBgEntYJ6+mPqdv/jhQajtppVRa/Xdp62dMXEfqOU8lj+Xh77g2/QJt4S4RV//dcPMkNqFTRaG8Y5a0ahoTn0K9F6jss4xfysZ3BEWgPgfVNRKgud+bafiHRsmj/LJMObikSteapqWnp3fq1Klt2/osV2IwGMaMGaNp2qZNm0pLS+s9QpvNNmTIkMWLF0+aNMlutwezicfjWb169fjx45s1q7oQPEKoIZ7LX1WENzFRzUlkEuFqX1NQKzoq7Z1nHvmF7f822189ynUYJK18nYruAJtQyaNmbaTuc781UnhE2jDdNHKGdfIa20v72WY9pDXvAKW/w87UHbE3ZqJbEms1y7AUFxfn5+ffcMMN9WyZEJvNFh4efuWrnSQmJjZp0iQjIyPI+qWlpaIoRkREXGG/CIWkBnkuDwAAyqFlvrkPU8HFJfe3jJ1DbDFAqbj+fXnzp9TnZCITTcPe57uMoIJLWDieTeol7/xKLytg4zpYHlvINE4GADVvv7Dgcf18NhvXAYBC44CnqJRK2z6X1rxLBRfTONn80Ndcsx7U5wBNJuYwAABCTIOmatlbLw7vl2Xijy/rzvzKI/F9O0orPEIFl2/uw8BwbHxHy7jFWt4+YolkW6X6GzH0Ga/8sowKZQBAVVlc8pRy7GfC8sZ+zxsHTQVCqCKK6X9V9i+kivjbSGrYTTkjTT2cDkabcmBx5Uaq3Z3AB/zw4cNJSUkVp8+iKH733Xf9+vXzn9r7fL5vv/32tttua9++fVlZ2bx58/bu3ctx3KBBg4YPH240GmtqduvWrefOnRs5ciQAFBQULF269PHHH7fb7ZIkpaenr169GgCqNEII6dat288//9y7d29cIQuhK9RAz+Wp5AWg9qlZ9leP6o48eccsAFB+Wabs+sY66afwjwRD6jPiyql62Vmqa7ozTz21zfbirrB3CsAcLq6aBgDUc15c9CTX8uawfxSbR3+h+8oC9yhnpEkbP7aMSwufXs6n3CMuepJ6zrNJN3JJvXyLJso7ZlHJw0Q05Xs8REx2LWeX8MNLpsFvhv/LY7z9ZfHHl7XCI8Qcbn16te35bUxUM8sj88Lezrc+vZqYw/Wi48Qey1ij/B1xbfqZ7/83sUQCAHUV8inDwj9wmh74XNo1WzuzFwCkTR9rObvtrx0Ln17OtU4V//sClTw17SYogpq9hUseUKWRancnwO4ripKVldWiRYuKEpPJ1LZt2y1btmiaBgBFRUVerzcpKUlRlAULFrRs2XLu3LmfffbZ6dOn9+7dG6Bln8/ndl/89KOqqsPh0HWdUpqenu50OmfMmDFjxozi4uI1a9ZU3ioiIsLlcnk8nsDftYpmOY5jWTaYygj92TTQlCdGK9/1PmKyM9EtubYDtPwDAMB3vc/+RhbTOFkvzWETUkBT9OJMf32+ywhijSaWSL7TUP3CKSq4tLMHqewz9n+BmOxss55sfIdA/VGqHEgzdLmXa90XGM5w8wRKqXb2IOFNlnFpxgF/Fdd/WP5agm/uw9TnBADl0H/ZhE58jzHAcHz30cQep+XsrMduMo2as+0HAcPxHe5k7I31kiwAMA18xTZlP2WNuiOPa9aTekqou6Sm3QQAJjKRa38nMBzf9jZiDtdLsmranQAj0TRNFEWz2Vy5MCUlpbS0tKysjFK6Z8+edu3aWSwWnucnT5581113eb1eVVWTk5OzsrLquuPl5eUnTpwYPHiw2Ww2m80DBw7MysqqvGyZfyRerzdwO4qi7Nu3b/78+ampqTabra7DQOjPoOHO2FQgDKdrCgBQz3nf/Me0s7+w8R2B5ahcTQQQcwRQneqaXlZAzOFgjQ6mC93npOVF0ok10tbfFmjVywoAABjOmDrZmDpZKzwizB8nLBxvfmyRVnJSzVzn+stvmag3vzFQB1QHSoHUeJ2VUgBCqK4CgF6S5Zs7VneXsAkpVPJSTQmwm5c0wvCEN1FdDbQ7dREVFZWUlHTkyJHu3bvn5+c//PDD/vJjx4598803kZGRzZo1y8nJadq0aV1bLisrKyoqeuWVVypKEhISJEmq6/yMoig5OTmyLMfFxdV1DAj9SVwHKV9B3jGLyoL9zWzCm/QLp72zhgaozEQ0oYILvBfgf1MlARCjFYxhpjteNt41rXK5cmSFmr3ZNPgtYrKzCSnGQVPF9JdoWQGxx/Fd7rU8ujBAcP82kmY91KwN1FNC7LEAIGekyTu+tI6v8V5DcdU0Jr6T7cXZQIh6cr2w9Llauwhyd+rcDiG9e/des2YNx3FRUVGxsbEA4PF4li1bNnHixOTkZABYvXp1QUGd3z+sVmvjxo3ffPPNhISEKxmhxWIZOXJkp06d0tPTn332WYvFciWtIRSSGuiMTbWo5AWxHCQ36Kq8fyH1Brpdj216AzFYlIxFQKnuzNNLcwNUJpyR73yPvH+hf1qDlheJ6VOo5zxji1YOLJH3fgeUgq6qWRsYe2Nii+G73Kue2q4c/xkAqOgWV7zqn2wBf8IynFZwuKJxvnUqAJEz0oBSKrrlnV+zse1IgA8ZikC9pVSVqOiWDyyhUlBz08HsToBNTCZTbGxsSUlJlfLExEQAWLFixc033+yf+KaUiqJYXl4OAE6ns9Y7YRo1anTu3DmPx0Mpzc3N9fl8ABAZGZmYmLhu3TpFUQAgNzd3165dtNJ9R2VlZQzDREXV/g4NAFar1efz+ZtCCFVxPZ3LG259Sv11c/lbLQnDsS36AG+mUo3ztsQWYxr2gW/eI9LWz8FgJezFPVVPrvd9M8o/2yMsfkpY/JQx9RnTvdMNN02gzrPe/wwAzgS6YrhlErFEsi36mO//VPzxZennt0DXSFSS+aGvicnOdxis3/GyMH+cwLCgSnzKMBIWf7Ffe6wxdbL449+kde8Bb7E+vYqN62Aa8ZGwaIK07p+gSlybfqa73w2wm8aBr/nmjC5/pTHhjWxSL2ANVPIQc91uE6x2dwDAO+tuNXOdv4779QRib2x7bjMT3RIAOnTokJGR0b9//8qXMXmeb9++vcPhaN68ub/EbrfffffdM2fOZBimUaNGiYmJsixrmqYoyr///e9Dhw75q23YsKFr167PPfdcx44dd+zY8fzzzxuNxhtvvNF/vyPLsqNHj54/f/7TTz9tNputVuvEiRNJpQ9G586di4+Px3NzhK4cqXzJ67qgex2EMxBjcJfaKKWCk5gjg5laAQDQVeouJvZYYC55/6u+U0qp+xyYIwlfdTaZKiIITmKPq9wv9ZwHo/3yytUPvC6Va1TD7lTL7XbPnDlzzJgxwcyiUEoFQTCbzSS4AytJUrW3wSiKoihKlTRXFGXWrFkDBgxo3759MI27XK6PP/543LhxSUlJwdRH6E+Fff3116/1GOqGGMzB/EHT/2oTwpuDjXgAIAwxhQGpOpFVfaeEEKO94lPCJa+wHDHaq/RLKn2kqH0gdalccyvV7061jEaj2Wzeu3dvx44dGaaWTQghPM8HGfEAwHFctW2yLMvzfJXCgwcP+ny+vn371joMP5PJpGna2rVrO3bsWOU2IYTQ9Xcuj64eSunWrVsjIiK6dOlyrcbgdDrXrVs3dOjQuk7XeL1ejuMC/H0WQn9OmPIIIRTKrqd7bBBCCNUVpjxCCIUyTHmEEAplmPIIIRTKMOURQiiUYcojhFAow5RHCKFQhimPEEKhDFMeIYRCGaZ8/UmSNHfu3Ho8Xf1KZGZmLllS47PpEfqzoZS63e7Kj63+47lcrob84OuQTXndccb7ya3a6e3Vv0ypenI99V6od/uUUqfTmZeX53Q6/7CfMEVR8vLyiouL/U9pr8Ltdn/66afBvOv8+uuvr7322kMPPfTcc8/9we9SV09BQcGnn37qdruDPw6VaZqWm5vbkH9X/2i6qp5cL+/+Vnfk+guo4PLOGCRnpP2Ro9BOb3e/3a58amL51MRquz548ODSpUtlWa5H45mZmS+++OKLL744derUK/lFyMrKWrp0qX+F5AYoRFJe/XWzmD7lkgU3dE33llKl+qf06M48X9ok9diq+nVHKV27du1bb70VERHx5Zdfzps37w/4Bjscjrfeemvnzp2CILz88su5ublVKui67nA4VFUN3I7H41mwYMGwYcMWLFjw8ccfB37OsM/nW7lyZWlpoAVbGoiKpcODPA5VFBWVtlMAAAAgAElEQVQVffnll8XFxfUewHV0rKpQ9s4T175XuYR6znv/3V9Y+n/KL8s803uLy/8GlFJdoz4HKMIfOTYmsYd18mrrxOXE2ujyrvPy8jZs2HD//ffX7yl1rVq1euONN1544QVCSF1/YCrr1q0bpXTHjh31buGqCpGU10tz1OzNVA32/ZyJSgp7M5vv9XD9unO5XNu2bZsyZcozzzwzderUzMzMM2fO1K+p4O3evTspKWnq1KkvvfTSgAED1q5dW7+3ltLSUk3TkpOTCSEsywZ+erB/+WyPp87rVV13mjZt+o9//KMea9hWuH6PlVbwS5Xl6cWf3gTebJuSYZ24wvrkD8qhZVrurmsyNsKbmKjmJDLp8kd/U0q3b9/es2dPu91ev8Z5ng8PD7fb7cE/Q7taLMv269dv165dbre7yku//vprenr6tf2puJ7WiqqWdnq7b8ETVHBS2ed5rzMQYrx5gnHQVP+ryqFlvrkPU8HFJfe3jJ1DbDEX68teADAN/9DQffTFhigV178vb/6U+pxMZKJp2Pt8lxE1dSqKIqXUvxR1REREv379/A9J1zRt1apVy5cv9/l87du3f+KJJ2JjYyVJSktLM5vN69evFwRhyJAh9957r9FozMzM3Lx5s8/nO3DgQJMmTZ544ok2bdoE2NPy8nKbzcYwDCGke/fuJ06c0HWdYZiMjIzZs2eLonjTTTdVTDhQSjMyMubOnetwOCpG4na7P/vss6KiIpfLNW3aNIZhbrzxxpEjR1bbnSRJc+bMyczMdDgc//rXv3ieT05Ofuyxx4xGo9frXbBgwbZt24xG45AhQ+655x6WZd1u99y5cyMjI9etW8ey7MiRIwcMGMCyLKX0yJEjX3/9tcPhaNmy5ZNPPpmYmChJ0uLFi1u3bv3TTz+dOXMmJSVl4sSJ/mWkanLixIk5c+bk5+dHR0c/8sgj3bt3J4RomrZhw4YlS5b490XX9SpbnTx58scffxw5cmTFWleXy8zM/OqrrwDAYrFMmjSpSZMmAOB2uxcuXJiSkpKWluZ0OlNTU8eMGeN/GPLlI5FluaZjVVZWNm/evL1793IcN2jQoOHDh/u/9QcOHDCZTCtWrOB5fsyYMampqYSQar9r/u9Fenr66tWrAaCikRqPVA0/ydTnFJY+pxxOBwC+83Dz/f8mlkg5I01MfwkUAXS1fGoiAJiGf8i1G6jl7zfcMsm/iA2TkMJ3Hq57LrCNAQC0M3vda/+hlxWwcR0sjy1kGicDgHZqm2/JZP18NuFNhpsnGAe/RXiTnJGmHk4Ho005sJiwvLHf88ZBU6lYLiwczyb1knd+VaURvTRHSJuontpeuZEAPxLl5eU5OTm33XZbRcmRI0f27t37yCOP+H8fDx48uH///kcffZTn+Z07dy5evPjChQstWrR47LHHAvyuud3ub7755v777/f/JCxZsiQuLi41NRUAfv311zlz5uTk5FzeSExMjMViOX36dJWndp84ceLnn3/u2rWrzRbcwkdXwXV/Ls+2vMU+NdN0zz/ZuPa2Vw6HvZ1fEfFU8gJQ+9Qs+6tHdUeevGMW1PwBUDm+Stk71zrpp/CPBEPqM+KK1yqmIy8XExPTvHnzL7/88tSpUxzHDRw40L8+6q5du44dO/bxxx/Pmzeva9euixcvVhSFUlpcXCwIwueff/7RRx8dPnx406ZNACDL8pEjR4YNGzZv3rz+/ft/++23TqczwJ727Nlz165dK1eu9Hg8iYmJAwcO5Hk+Jydn0aJFzz777OzZs7t06VJxKpGZmbls2bIpU6bM+//27j0gqjJvHPjzzJkz9wGGi1wUuSkXFTBEszI0cV3xVm7mJbu4tYmpa1tumSZlr/vW1ptu9jMUXchELM1cW7VING/hhcALKiDJXUQUGJhhLmfOnPP8/jjuLDvMjIC04vT9/KVnnvOc53nOOd95znMe5snOfvjhhzMzM41Go1qtXrFixbJly0JDQ1evXr127VpnIR4hJJVKU1NTV69eHRoaumzZsrVr16ampkqlUo7jsrOzpVJpVlbW+vXrKyoq8vLyEEI8z1dXV3t7e2dlZa1YseLAgQPFxcUIoYqKis8///yVV17Jzs6ePn36li1bhDcZjY2NpaWlq1atyszMVKlUQghzprm5eceOHS+99NKOHTuWLl361VdfNTQ0IITOnj17+PDh1atXb9y4MTAw0O5ntMvKyjIzM1NSUlyEeOTksZ3n+crKSiFqC1+Nwgq3DkvirK1Yls3JyQkPD9+2bduGDRsqKysLCgqEU3/q1KmYmJisrKxXX311//79wkhRx7OWlJS0adMm4b3i3r17tVptenp6enp6Y2Pj999/76I6jq9kQky7lxJ9o8e7VR7vVvHN1eZ9byGEJCPmeKypkzw4n4p41GNNnceaOsmIOcjUSph2kWagkCGWqmRPfEjHTr/dMtpa1bJTHn+pR3JP83fvIoRI23XjzkWSh170XGtQLjnEnv9a+C5BrMl69Zg4MtnzQ63sqU+ZU5lcTQHhOV5ba604YZ+JWW/Mno+9Qz3ea1S+cpy9uM9ycrOLaiKEGhoaMMYeHh62LaGhodevX6+rq0MIcRx3+vTpuLg4iURy9erV3NzctLQ021ili8613YifXq8XXoM1NDR89tlnTz/9dE5OzqxZs7Zu3dpxdI6maT8/v8rKSrvcpk2btmHDBtdX4C/tvo/yLmCpkh7+JJapRb7h4qhkru4scvkAiDgrMbUihKRJi5VL8rA6wFnOFEU999xzo0aNWrdu3SuvvFJcXCy8gB0zZszy5cspitLpdKGhoU1NTbbXpA888IBwHTz++OOXLl1iGAYhFBIS0r9/f4xxUlKSXC6/fv26i+pERET8+c9/LikpWbJkyebNmw0GA0KorKwsOjo6JiZGJBJFRUUJy2ETQk6fPp2UlDRgwACM8ciRIwkhnVfu7plbt241NDRMmTKFpmmlUjl58uSzZ88K1VQoFDExMRjjiIiIcePGCVG+sLBwzJgxERERGOP4+Hhvb+/y8nKhkCNHjpTL5VKpNDEx8dq1a0KbuGAymQghERERaWlpfn5+hJDz58+PHTt2wIABFEUNHTq048Ij1dXVW7ZsmTt3bmxsrOtsnT22y2Sy2NhY4dPY2NiON7BdSVzkvHjx4smTJxsMBqvVGhkZKdQdIRQcHBwWFoYxDgkJ8fDwEOJFQUHByJEjhbM2evToWbNmiUQinU5XWlqakpIil8vlcvnEiRPLy8vvsCxEpyuZb7rK1Z2VTngDK32x0leStJirKyLGFtct47hSw2dipS9WaCQJs/imCmJqw55B6pUXpUmLeW0tlnlgr2C+tlBILNIEi2N+i0RiOmo8lnvyN29Xn47/nZAJPWyqkAlXc4YYmmQTXscyNRU0TJI411r6PXI5r8FisditQaZWq+Pj4y9duoQQamxsbGxsHDRoEEJo8ODBa9as8fLy0ul0AQEBVqu1B69PLly4MHjw4CFDhmCMhwwZ4u/vX1tb2zGBl5dXS4t9k2KMJZIur233y7jvR2y6CIvEPOdq+gQ9JIVoa41fLECGZlFQrPyJD0VeroZopVLp5MmTU1JS8vPzMzIyli1bFh4e3traunnz5qampqioKLPZ7HDChlwu53neblqOSCQSusmuaxESErJ8+XKtVrt58+acnJwXX3yxoaEhODjYLjwxDHPr1q28vLxt27bZNup0OteZd5EQi23L+CmVSoZhOtdULpcLV7zBYLANxdA0rVarOz+yOGyTjnx8fJ5//vmdO3euX78+IiJi5syZgwYNYhhGq9U++OCDndMbDIbMzEy1Wq3RaHpaUcfVcVgSFztevnw5KytLo9EMHDiwqqqq87i/7dQLZ00YokH/WlcdIVRTU9PQ0LBixQrbLkFBQQzDCAOGnTm8krmWGqK7Ydg01ZYMq/sRYytWeDsuN88jYj/8ZY+SIMITnsOEMLlrLPmbsGagyGsA31yJghPs0hIRjWkZ4e3fcGK5l5AJr63jmyr07/37K5nqH8cbtSKlkxI6kZiYKDwcl5eXR0ZGCv0eo9GYk5NTUlISHR0tEomEHlJ31dfXHz58WHhyFURGRvYgn/++X0uUvyPeqKXjfycZs5Aw7ZajHxs+m6tM/ScV5LgbePz48evXr8+ePRtjnJiYePLkycrKyvDw8Nzc3IiIiNdffx1jXFNTk5WV1XlfZ6HcdYjX6/WZmZkzZ84cMGCARqNJSUnJyckxGo2BgYF1dXWEkI6BXgimCxYsGDduXDeaoGsoiuJ53hbWrVarsGy3XfltQ+Risdhkuj0yxnGcxWJRKpXdPSjLsgEBAStXruR5vqSkZNOmTYsXLw4LC9NoNNeuXYuLi7NLT9P00qVLm5ubt2zZsmzZMuFW7xUOSxIeHu4wcXt7+549e1JTU4VwkJub62K6nlQq1Wg0tnYjhBgMBrlcrlQq+/Xr984773Rl1XXk5ErGqn5Y5ad8Zh8V9vAdc8DqfljlxzVcFkdPRAgRU5vxs9l0wixx7BMO03M1BZbCHYrU/VRwAkLIkDGtK+W0P6jCW+Q3SLlwv8g7tAe72/j7+/v6+paVlRUVFc2YMUO4L4qKiiwWy0cffURRVFtb27p163qQs7e399SpU+fOnXuXr2r/+9xkxAYrvPn2JqLt+UQX9sd0w8YUomvAUpU46jdYLEWW24MtHMcdOnTozJkzts5mYGDgTz/9JNyxer2+ra1N6KMxDKPT6YQgeO7cuY5dhuvXrxNCjEbj4cOHo6OjhY5Yc3OzkKakpKS1tVV42yO4du3a119/3draKvxXJpMJb5A4jiOE1NXV9e/fXyaTRUdHX716VSjJjRs3hA47RVGJiYl5eXm3bt1CCBkMhoMHDzqcYt9R52oihGiaFovFwiC4wN/f39/fv7CwkBDCsuyxY8ciIyOFwG2xWIQjtrS05OfnC8F31KhR586dE7ZXVVXV1dW57vw6VFFR8f777zc1NVEUFRoaqtFoLBYLxnj48OE//fRTa2srIaS+vt5WR4lE4ufnN2HChKioqKysrDvW/S5LInzUua0IIWazWTgpWq1WGNl3IS4uLj8/X3hoqKio+OCDD1pbWzUaTXBwcF5envDNWl1dferUKds56nzWHF7JIv8okU8Yc/gjYtYjhKxlB5nDH9nGQ7BXf76lhrTdHjDEUhUdP4P9KYfoGhBCbNlBvqmCGjjSWbGJ1UxYE9HfRAhZrx7j6i90s1ERQkgc/jCmaOboJ4i3IkIsZ7ayRV+43sXb27vzcyRFUQ899NDu3bsVCoXwtgwhxDBMe3s7wzCEkOLi4qYmV38oQ9O0VCoVzmNra6ttWCY+Pr6oqEgYuGNZ9tChQ7bbU1BfXx8SEmKXW1tb2+XLl+/t32G4SV9eHPNb8cDE9o/HYkpMhT2kXPCNs5TWK4eMWbOFOTamnS+bdr4sTVoim/GR5NHF3I1S/V9iEK1APCtN+iMVMkrYxWQyHTt2LCAgICEhQRipCA8PT05OTktLE4lEPM9PmzZNeNuekpKyfv36l156SSqVjhgxQiKRsCwrTIcoLCz89ttvjUbjsGHDJkyYIOQs9C+E6+/ll1/28fGxlbOqqmr//v1xcXHCcAdN008++eSnn3564MABhNCAAQMWLlxI03RYWNiECRNWrVqlVqt9fX1tI4AJCQlarfatt95SKBQMwzz11FNyudx1G3auJkJIoVBMnTp148aNn3/+uUqlWrlypUajeeaZZ9LT0/ft28fz/PDhw6dNmyb0biiK2rdvX3Z2tl6vHz9+fEJCAkIoOjo6OTn57bffFsYlFi5c2Pk16R0NHjx47NixQnWMRuOkSZOEBk9ISLhy5cprr70mdHjtBjEoipo5c2Z6evru3bvnzZtHUZTDzIuLi//6178K/xYGRt58883Ot6vrkjhrq2nTpm3atEkkEvn4+AQHB1ssFhcPbQkJCbdu3XrzzTelUqlEIlmwYIFwScyZM2f79u2LFi0Suvapqam27mTns+b4SsZYPjvdmPOi/u2BiJYhWq6Yswn9KxPJyGes57/W/+8QhBA96nn5zPWSRxdxN0r078chkRhhSvbk36igWN7geByfCh1ND/+dIXMmFktE3iEilR9vanNWR2ewyk82d4sp5wXdygAkokSeQfJns5HzGxYh5O3tLZfLb968aTeTMjg4WCKRJCYm2i7j0aNHX7hwYfHixWKxeNSoUUqlUni56vDUx8XFpaSkbNy4MTs729fXNzAwUEgQFhY2d+7cdevWURRlNpsnTpzY8anUaDQ2Nzc/9thjdvWqqanZtm1bWlqap6dnd9ukt7jV6t7CVdjdgbyOCGtGJi1WB6D/fCizWq3C7PKOG9va2jIyMlJTU+3On9FolEqltsRms/mTTz6ZNGnS0KFDGYaxvSEsLi7Ozc1dunQpz/Md098uCSEWi6XzhDnbdLqOGzmOs1qtnRMLT/1KpbKLz5gOqynkbzabFQpFx3zMZjNFUbYbSXgQfuGFF4KCgjiOswu4hBCTySSXy12XpKam5r333us46Tg5OfnFF190XR2ho2QriTO5ubkdX1Sgf93SrvdyyEXDdm6rLtbdRQ4ClmVZlu34hlng8Kw5u5IJ044sRqzu56BS+ptIosDSf0/4I6wZMXqscvp62f6IXU7sQrfu4uPHj9fX18+ZM6crbWt3xbpGCHH48kN4IpfJZHYNXlJScuTIkQULFtjlf+bMmWPHji1dutTZe5T/AjfpywvuJr4LMC1DdGDn7WKxg4ZSKBQzZszofNd13iKgKMrhRw43YowdzokePny4w5wddlQxxt2apeuwmkL+nQfTnb79o+nONxLG2FmzdBQSEpKRkeHsU2fV6eJ9O2nSJLtvxx5z0bCd26qLdXeRg8BhwyInZ83ZlYylKiR1XPLOoR/TMuRyxnqPE7vQrbs4MTHx4sWL1dXVYWFhd0zcrTiLMXaYHmPc+ewYjcajR48KE886bieElJaWJiUl3cMQjxCiVq1adQ8Pf1+jKMrHx8fZOICNMDgbHBxs1+UX5oGFh4ffMYeOVCrVPfzzChd4nrdYLBEREd2KaADcDeEP0I4dOxYREdHFL/tfwokTJ2JiYqKiouy2C7OHhamx96Rgt4vhTiM2AAAA7LjJHBsAAAAOQZQHAAB3BlEeAADcGUR5AABwZxDlAQDAnUGUBwAAdwZRHgAA3BlEeQAAcGcQ5QEAwJ310Sgv/FbXvS4FAADc9/polG9vb8/IyPjHP/5xx+WTAAAAuNBHo7xarZ4/f/6lS5dqanq+MAgAAIA+GuXRv1ZscbHUOgAAgDvqu1EeAADA3eu7UV5Y7PjatWv3uiAAAHAf67tRHmM8ceLE/Pz8I0eOdFwmGwAAQNf13SiPEPL09PTy8iovL4elTgAAoGf69Lqv33zzzaBBg2bMmHGvCwIAAPervtuXN5vNjY2NoaGhdturqqpu3LhxL0oEAAD3n74b5QWdV77+4Ycfzp8/f08KAwAA952+G+V5nkcIKZXKjhtZljUYDHYbAQAAONNHo7zRaNyzZ09QUJDdiM3NmzcNBkNsbOw9KhcAANxncN+cvsKyrE6n8/b2xhjbfcRxXOdhHAAAAA710SgPAACgV/TRERsAAAC9AqI8AAC4M4jyAADgziDKAwCAO4MoDwAA7gyiPAAAuDOI8gAA4M4gygMAgDuDKA8AAO4MojwAALgziPIAAODOIMoDAIA7gygPAADuDKI8AAC4M4jyAADgziDKAwCAO4MoDwAA7gyiPAAAuDOI8gAA4M4gygMAgDuDKA8AAO4MojwAALgziPIAAODOIMoDAIA7gygPAADuDKI8AAC4M4jyAADgziDKAwCAO4MoDwAA7gyiPAAAuDOI8gAA4M4gygMAgDuDKA8AAO5MfK8L8MtK37Rh0cIltn/btts2dkzpLJPOibt7dIeZd8zWrpwO/w0AAD3Q16M8QcRoMEgkUpqmO263Wq1ms1mhUIhErh5HFi1c0jFQuoi5HT/tuJfDxHeM2p2P7jpY21IKOXfM35YDz/MGg4EnvO0jqUQqk8nMZjNjYRBCYopSKJUYYRcHAgD82mCz2Xyvy+BKa2vr93m5E8ZP8PHx7bi9pPTy1YqrU1KmUhTVxaw6Bu7e7cs7y9DhY0RX8nSYoV6vP/DdfqPRYLFYaDEtokTDhsaOTBz1Y/6JkpLLtITmOZ6WSMaNHTcwOMR1gQEAvx59vS9fU1utUiq9fXw6buQ47mrF1UERg7oe4u/I2fjJHTlL7PAxwraLi9w6pxH2VavVc2bNNZvN/9y3N3ZYXEzMEFuCwKCgaVOmE0QuXiz+4cgPU1Km+Pn162L5AQDurU9HeYvFcrXi6rChsXajEDdv3TSZjAMGBLve3RYoOwdc4SMXfW27Lc6Cvuvvg+5GdodjOy52tIMRHjpkWEVlxZXyKxDlAQCCPh3lm1uaESEDgwfaba+trfHvF+Ch9nC9e8eBdbvQ6fq/vfjOsyvj8nYvALoe1jujKMrP10/bqu1xDgAAN9Ono/yVK2U+Pr5yubzjRpPJVFtXMzLxwW5l1ZWRcbt3ng6TdavX37Oh+R735QEAoLO+G+Xb29sbbzYmPTrWbnvdtVqRiAoKDOpWbnaDNq6n2djcMTR3ccTG7uiu3WVY7zgJBwAA+m6Ur79eL6Fp3/+cWkMQqaqqHBg8UCKRdDfDjrMV/wuT0Hs81n83fXmz2XyjoSEqKrrruwAA3FsfjfIcx10pLwsPj7CbJt/S3Kxt1SaOGNmt3DoOjnclxPfK14DdXzZ1/Qumx315M2M+8eMxLMKRg6N6lgMAwP300SivbdUyjDksLNxue11dncZLYzex8o4cBtzeKeid2B3L2dG7UrA2Xduef+w2mUwIoSPHfjhy7Ie42PgxjzyKEKqrq03ftEFMicPCwqZNeVwmk/0ytQEA3H/66F9Fnb9wvqWl6bHHkjvOobRarXmHvh80KHLwoMHdzdDh1Mk7DtPbuHhV62KSJer0BdPFj+54dAAA6KI+GuUBAAD0CvhNSgAAcGcQ5QEAwJ1BlAcAAHcGUR4AANwZRHkAAHBnEOUBAMCdQZQHAAB3BlEeAADcGUR5AABwZxDlAQDAnUGUBwAAdwZRHvQ+hmGE3868V1iWbWtr68GOhBCr1drr5QHgHuqLUZ5vqTF8/ChX+WMv5mnKfp7JXYMQ4ip/1K+J1qUF69KCLUVfdmVf0n6LLfrCWpZH2J7/slvXM2Fy15iyn3eciVHLFn3Bnv+aMO3CFkvRl4b0ScTUk4jWY6bs54UGdHhoo9GYmZlZW1vbg5wZhsnIyFi2bNmyZct27drV4xIyDLNjx47q6upu7dXS0vLee+8dP368x8cFoA/qk78vz3O8ofluQqqDLI0t2NSGEBIFJyoX5xKj1rj994i9U3+TECb3f5jjG0QBQ0n7LcK0K579XDx4nKs99DfNuf8jeWQhFTSsZ5kQUxtvbOm83VqWZ9z+e5HfIER401d/VDz7uTj6N4g1EWML4TnceYdfjOyJ/5My7eyFPey5XXaH5jhu7969w4YNi4rqyUomEolk3rx5HMcdOXKkubm5xyVUqVRTpkzZuXPnwoUL1Wp1F/c6ePDgiBEjxo8f3+PjAtAH9cW+/C8K0zKRdyjWhGDxndcU5BouMQXZ8lkbVa8cVa+8JB4yidm/ipj1LnYhTLu1/Aeiv3E3mTjItv2W+Zs3pONfU71yVPWn49JHX2Zy/6e7mfQWrO4n8g3HSgdruTQ2NtbV1T3wwAM9zBljlUrl6el59wuhBAcH9+/fv6ioqIvpzWZzbW1tUFD31hMGoO/rk315hBBC7Pk9xm3PElObOPIxxTNbscoPEWI+9IHl6Hpi1Io0wbLHP6Djf0dMbaYdL1Ihoywnt/Ct9VTAEMX8HaJ+kQgha22hKecF/tZVKmAIQgT1c9m7JIQ58Snz/f8SU5uoX6T86b+LByYSYwviLFjugRBCGMsmpXFXbz/Osxf2mL9ZzmvrOpbE+Nls7vpFYmozbnsWicRU4FDF73c6y8RS9CV7Zqvi9zux3JNvqTFte0Y2/X0qfAxCiLRdb/8wkbtRItIMVDz7ORX6IFd/gVgtdOw04ejiuBl823VibEYIEavFvOtl9vK3mKKl4/4knZSGMCas2bz3z2zhDsKa/10dJ23Ft9SYvkylBj9mOfqxXYN3bhPXZ624uDgkJMTWfSaE7Nq1a8CAAY888ghCiOO4L774IjQ0dMyYMa2trdnZ2QUFBWKxeNKkSU888YRUKnWWbVlZ2bFjx+bPny+VSvV6fVZW1syZM/v3788wzN69e3NzcxFCdplgjBMSEr799tvRo0fD4lng16yP9uUJY0CIqNPK1Ssv8S21lvwMhBB7YQ97Kku58IDnOpMkaYl5fxrfeo3wHK+ttVacUC075fGXeiT3NH/3LhI6v1+8JA5/xOO9Rvmcjbyx1fURLUVfMj/8TfH7Lz0/0tGx081fvETab1EhD4pDRhm/SLXkZxCmXeQ1gE58GsvUXNUp0z9el6W847m2XTphufmb5dz1i1juqVyUq/rTCZH3QMVz2R5r6pSLcrHc01kmtsEWhOwHqXhjq3zORo8PWsRDJpl2LiTtt3htHZYqkeJ295kKGiafvVHkHYoQIm3X6djHPT/Uyp76lDmVydUUIISYI3/jqk6r37rs+ZFOPCjJ/PWrhGl31laI57jGK6S1zq7BHbaJizZkWba8vDwsLMy2BWMcGxv7448/Go1GhJBWq62srIyOjmZZNicnJzw8fNu2bRs2bKisrCwoKHB1diyWtrY2QghCiOf5lpYWq9VKCNm7d69Wq01PT09PT29sbPz+++877uXl5dXW1tbe3u761N9uc563Wq09WDUegD6uj0Z5LFXSw5/EMrXIN1wclczVnUUI0cOfVL9dLuoXyTdXUUGxiGP5xjIhPR3/O6z0xQoNPfv7VWYAACAASURBVGwq31RBTG3ctXPEYpQ+9iqWqamBI6nAIa6ORwh79ktJ/AzxoLFIJJY8soAQwl07h2mZ4vdfSpP/bD70f7q3gozbniVGLUKIPf81FTSMTpyHRGJ6xBysDuCqTjqti5NMXKACh1ADR2JaJn10EbGYuPoLLhKLfEKpmElIJKaH/Fak7sffLEcIySauUL1RSCgp31IrHjiStN8k+pvO2gohhCVyOu4JocGp0NFc3VlnbeKiJBzHmc1muVzecWNoaKhYLL5x4wZC6NKlSwEBARqNhqbpxYsXT5482WAwWK3WyMjI8vJy123SmU6nKy0tTUlJkcvlcrl84sSJ5eXlHdc+E0piMBjumFVFRcX27dt9fHxCQ0O7WwwA+ri+O2Jjg0VinmMRQqT9lnH7fO7aBSpwKKLExOLg7sVyL0R4wnN8az2WeyKlb1cOwRu1RNfAlH7PHP/3sqt8az1CCInE0qTF0qTF3PWLpu2/N+14UT7/C+7mFWtZXttr/w5nfOiDrg7gKJMuVV4kJlaG6BsRQojnsMt3rIQghDHhrQgh/ma5cdszvP4mFRRLGAPh2M7pbW1lf0y5J6e/4apNukOhUIwYMeL06dP9+/e/ePFicnIyRVEIocuXL2dlZWk0moEDB1ZVVQ0YMKC7Obe2tjY0NKxYscK2JSgoiGGYHozPNDQ0XL9+feTIkTRNd3dfAPq4+yDK21jyM4jFpH7nKqZlfFOlIWOqi8Qir/7E1IYMTUjpfcecsVSJpB6y3yyXTn6343b24j7r1aOylNVYpqaCYqWT0sx7Xyet9VgdQMfPUDy/A7mOuy4zueOOCCHEW7FYitX+IqmasCZee41SeCOEuMofTd8sVzyd5Ww/83fvigKHqZZlIoytVw6Zdi/t0uE6cNYmPRAbG3v+/PmSkhKLxSJ0ltvb2/fs2ZOamhoZGYkQys3Nra/v9veHUqns16/fO++8c/evTMeMGRMfH//xxx/HxMSEh4ffZW4A9Cl9dMTGIcIYkFmHGD3irZbCHcTgaqYdNeABLFGwRV8gQnhtLd9c7SIxFkvpuOmWwh3CiATRNZj3vkHab4lUvuzZXZaCzxEhiLdayw+L1P2wyo+On2Gt+JEt+RYhRMx6876VwjgJEoKjSMzVF9syd5YJVvvzhhairUEIcRUnOk4855sq+JvliBDLyS1IRFEBQ0T940VeAyyn/o54K+KtzOmtWOqBfUKdVok1EUMzsTLErLec3WWbX991ztrExS4ymczf3//mzZt22729vf39/b/66qsRI0YoFAqEECHEbDbrdDqEkFarveNMGJVK1draqtfrEUK1tbXCjhqNJjg4OC8vj2VZhFB1dfWpU6eEsXtBa2urSCTy9r7z1zxCiKZpqVTaxUF8AO4j91NfXvLoy9afj+pWh2ORmAp7CNFywjgdcsUqP9njHxqzn2OOf4okSkzdrqn1yiFj1mxhtMe082XTzpelSUtkMz6SPLyAaK8Z/l8yEssQz0rGLMQKDRX2kHzmevM3y5lvVyOew94h8qf/jmVqekgK/5vlpu2/N4koZGXo2MexR+Dt46r9pUmLzd+8yeS9j2iFctF3zjIRR44XBye0fzwWS+SioDiRR0CHwvdr3zABsSYkEstnb8SeQQgh+VMbjFuf1qUFI94q6hepeG47FjudlCKd+JZx6xzdin6YllIhoxAlIUw7lnt1r8EdtQlCyJAxzVqWJ6TRrwrC6n6qpUdFvuEIoSFDhhQVFT322GPCsMzt6mAcHx9//vz52NhYYYtarZ42bdqmTZtEIpGPj09wcLDFYuE4jmXZTz755Pz580Kyw4cPDx8+fOnSpSEhIUOGDFm+fLlcLh82bFi/fv0QQhRFzZkzZ/v27YsWLZLL5UqlMjU1FXd4urpx40ZgYKDwvQLArxbu+LbqvsAbWrBYgqWqLqUmhJi0WK7pytAKQgjxVqJvxGp/JPqP7z/HByWE6G8guQbT9gPBhDUjkxarAzoe12EmQi/bQXUIIe03sdKnSyVxgrTfQlJ15+J1j5M2cUiv12/atGnevHldGUUhhJhMJrlcjrt2doQ+e+ehc5ZlWZa1i+Ysy2ZkZCQnJ8fExHQlc0LI1q1bAwMDJ02a1JX0ANwv7r8oD/q4s2fPlpSUzJ07t2N3/r+vsLCwvLx89uzZXS/GtWvXNm3aNGvWrLi4uF+0bAD8N0GUB72MEHL8+HEvL6/4+Ph7VQatVpuXlzd16tTuDtewLMswjErVtSdFAO4HEOUBAMCd3U9zbAAAAHQXRHkAAHBnEOUBAMCdQZQHAAB3BlEeAADcGUR5AABwZxDlAQDAnUGUBwAAdwZRHgAA3BlE+Z5jGGbbtm09+GH0u1FWVrZr167/5hEBcHuEEL1e3/Fnq//72trahN/j63VuG+X5lhrDx49ylT86/pgQ65VDxNDU4/wJIVqttra2VqvV/tcuDpZla2trGxsbhWVU7ej1+vXr13flW+fnn39+6623nn766aVLl/6Xv6V+OfX19evXr9fr9V1vh444jquurv6FbrP7Em/lqs9YTn/Gt1TfIaGLe40Qa22h5eQW7volRAhCiJjaDOmTLEVf/gIldoqr/FG/JlqXFqxLC3Z46HPnzu3evdtisfQg87KysmXLli1btiwtLe1u7qby8vLdu3dznP3abXfPTaK89eej5r1v/MdaGf+5XrYdXltr/HKh9fJ3PTscIeTgwYOrV6/28vLavHlzdnb2L3Fu7LS0tKxevfrkyZMmk2n58uXV1dV2CWzLXrvOp729PScn5/HHH8/Jyfnb3/7m+ieCjUbj/v37m5tdLdjSR1it1paWFp7nu9gOdhoaGjZv3tzY2NjjAtxHbWWHLcg2H3y/4xb+Znn7/400fDbH8tP29g8TTdt/7+xWQsjpvUZYs/Gz2cas2ezFfxo2TTF+NpuwZsJzxNiCWNMvURFnRMGJysW5ytR/YqVP50PX1tYePnx45syZUqnTBRtciIiIePvtt1999VWMcXevuo4SEhIIIfn5+T3OwRk3ifJ8c5X16lFi7epXscg7xOOdq/SoZ3t2uLa2thMnTrzxxhtLlixJS0srKyurqanpWVZdd/r06ZCQkLS0tNdffz05OfngwYM9+2ppbm7mOC4yMhJjTFGU6992Z1n2p59++jWsoDRgwID33nuvB8vP2ty/bcXVX7Bbnp458jGSa9SrSlV/PKxckseW/2C98HV3s7Wc3MzdLFe/ekKZuk/1p+Ncw+UeZNIrMC0TeYdiTQgWS+w+IoT8+OOPI0eOVKvVPcucpmlPT0+1Wt3FZRKcoShq3Lhxp06dEtZE6+jnn3/eu3dvjy+t+2mtKIe4yh+NOX8gJi2xGNvfj0MYSx9ZIJ2UJnzKnt9j3PYsMbWJIx9TPLMVq/xup7cYEEKyJ/5PMmLO7YwIMR/6wHJ0PTFqRZpg2eMf0PG/c3ZQs9lMCBFWkfby8ho3bpywtAXHcd99990///lPo9EYExPzhz/8wd/fn2GYL7/8Ui6XHzp0yGQyTZkyZcaMGVKptKys7OjRo0aj8ezZs/379//DH/4wePBgFzXV6XQqlUokEmGMR4wYUVpayvO8SCQqKirKzMw0m80PP/ywbcCBEFJUVLRt27aWlhZbSfR6/YYNGxoaGtra2t59912RSPTggw/OmjXL4eEYhtm6dWtZWVlLS8vatWtpmo6MjJw/f75UKjUYDDk5OSdOnJBKpVOmTJk+fTpFUXq9ftu2bRqNJi8vj6KoWbNmCQt5E0IuXrz497//vaWlJTw8/KWXXgoODmYYZufOnYMGDTpw4EBNTU1sbGxqaqqXl6ulrEpLS7du3VpXV+fr6/vcc8+NGDECY8xx3OHDh3ft2iXUhed5u72uXLnyzTffzJo1S1hv1qGysrItW7YghBQKxcKFC/v3748Q0uv1O3bsiI2N/fLLL7VabVJS0rx584TfMe5cEovF4qytWltbs7OzCwoKxGLxpEmTnnjiCeHUnz17ViaT7du3j6bpefPmJSUlYYwdnjXhXOzduzc3NxchZMvEaUs5uZKJUWvavZQt3osQouOekM/8BCs0lqIvzXtfR6wJ8VZdWjD6101B9DewRC4sRkb1Hy6fnS5S+hJTm/Gz2fSD84W7hsldw9+6Kn/2c4QQ4nnmyMfGrFmEYyWjX5A9/gEWS61XDtNRE4SVzkTeIfTIZ2zLXnI1BfqD7/Gt9VTAEMX8HaJ+kQghruKEcddi/tZVTMskjyyQpqzGtMxS9KW1eC+SqtizOzFFS8f9STopjZh1ph0vUiGjLCe32GXCN1eZvky1VvzYMRMX15VOp6uqqho/frxty8WLFwsKCp577jnhpj537lxhYeHzzz9P0/TJkyd37tzZ1NQUFhY2f/58FzescPuMHTs2OjoaIXT8+PEbN24I99rPP/+8devWqqqqzpn4+fkpFIrKykq7X+0uLS399ttvhw8f3rPfxL7v+/JU+Bh1Wpls+l+pgBjVimKPNXW2EE8YA0JEnVauXnmJb6m15Gcg589ubMl3bME25cIDnutMkqQl5n1vuRiO9PPzCw0N3bx5c0VFhVgsnjhxYnBwMELo1KlTly9f/tvf/padnT18+PCdO3eyLEsIaWxsNJlMn3766bp164qLi48cOYIQslgsFy9efPzxx7Ozsx977LHPPvtMq9W6qOnIkSNPnTq1f//+9vb24ODgiRMn0jRdVVX1xRdf/PGPf8zMzIyPj7f1AsrKyvbs2fPGG29kZ2c//PDDmZmZRqNRrVavWLFi2bJloaGhq1evXrt2rbMQjxCSSqWpqamrV68ODQ1dtmzZ2rVrU1NTpVIpx3HZ2dlSqTQrK2v9+vUVFRV5eXkIIZ7nq6urvb29s7KyVqxYceDAgeLiYoRQRUXF559//sorr2RnZ0+fPn3Lli3Cm4zGxsbS0tJVq1ZlZmaqVCohhDnT3Ny8Y8eOl156aceOHUuXLv3qq68aGhoQQmfPnj18+PDq1as3btwYGBho9zPaZWVlmZmZKSkpLkI8cvLEzfN8ZWWlELWFr0ZhcVqHJXHWVizL5uTkhIeHb9u2bcOGDZWVlQUFBcKpP3XqVExMTFZW1quvvrp//35hpKjjWUtKStq0aZPwSnDv3r1arTY9PT09Pb2xsfH77793UR3HVzIhpt1Lib7R490qj3er+OZq8763EEKSEXM81tRJHpxPRTzqsabOY02dEMElj6RydWeNn83mrl9CCNFDp1ChD9oNthBTG29suf1v1iTyG6T+y3XV0h+sJd9aTm7mjVqiaxAFDrUVTDZxheTRRbebV1urWnbK4y/1SO5p/u5dhBBpu27cuUjy0Iueaw3KJYfY818LX0iINVmvHhNHJnt+qJU99SlzKpOrKSA8x2trrRUn7DMx643Z87F3qMd7jcpXjrMX91lObnbRVgihhoYGjLGHh4dtS2ho6PXr1+vq6hBCHMedPn06Li5OIpFcvXo1Nzc3LS3NNuDponNNCGlra7MN9BuNRuHebGho+Oyzz55++umcnJxZs2Zt3bq14xAfTdN+fn6VlZV2uU2bNm3Dhg2uL2MX7vso7wKWKunhT2KZWuQbLo5K5urOIpfPboizElMrQkiatFi5JA+rAzrnKaAo6rnnnhs1atS6deteeeWV4uJi4QXsmDFjli9fTlGUTqcLDQ1tamqyvSZ94IEHhFP4+OOPX7p0iWEYhFBISEj//v0xxklJSXK5/Pr16y6qExER8ec//7mkpGTJkiWbN282GAwIobKysujo6JiYGJFIFBUVJaxkTQg5ffp0UlLSgAEDMMYjR44khHRedLtnbt261dDQMGXKFJqmlUrl5MmTz549K1RToVDExMRgjCMiIsaNGydE+cLCwjFjxkRERAirv3p7e5eXlwuFHDlypFwul0qliYmJ165dE9rEBZPJRAiJiIhIS0vz8/MjhJw/f37s2LEDBgygKGro0KEd1wyprq7esmXL3LlzbYvNOuPsiVsmk8XGxgqfxsbGdrz37EriIufFixdPnjzZYDBYrdbIyEih7gih4ODgsLAwjHFISIiHh4dwqxcUFIwcOVI4a6NHj541a5ZIJNLpdKWlpSkpKXK5XC6XT5w4sby8/A7LQnS6kvmmq1zdWemEN7DSFyt9JUmLuboi8q8Y3Zk45reqpUcRzxk+HqNfE8le2OO6DbFUSQ+bimkZNXCkeOgU27LATltm+Eys9MUKjSRhFt9UQUxt2DNIvfKiNGkxr63FMg/sFczXFgqJRZpgccxvkUhMR43Hck/+5u02pON/J2RCD5sqZMLVnCGGJtmE17FMTQUNkyTOtZZ+j1xOjrBYLGKxWCT6dyRUq9Xx8fGXLl1CCDU2NjY2Ng4aNAghNHjw4DVr1nh5eel0uoCAAKvV2oN3MBcuXBg8ePCQIUMwxkOGDPH396+tre2YwMvLq6XF/rxgjCWSTvGqy+77EZsuwiIxz7maPkEPSSHaWuMXC5ChWRQUK3/iQ5GXqyFaqVQ6efLklJSU/Pz8jIyMZcuWhYeHt7a2bt68uampKSoqymw2O5ywIZfLeZ63m5YjEomEbrLrWoSEhCxfvlyr1W7evDknJ+fFF19saGgIDg62C08Mw9y6dSsvL2/btm22jTqdznXmXSTEYtviq0qlkmGYzjWVy+XCxWowGGxDMTRNq9Xqzo8sDtukIx8fn+eff37nzp3r16+PiIiYOXPmoEGDGIbRarUPPvhg5/QGgyEzM1OtVms0mp5W1HF1HJbExY6XL1/OysrSaDQDBw6sqqrqPO5vO/XCWROGaBBCNE0LK9bW1NQ0NDSsWLHCtktQUBDDMMKAYWcOr2SupYbobhg2TbUlw+p+xNiKFd7OSi7yj1L84WvCmpkf1pp2LcYyD9GAhDs0k5CzSEyMLYjRI4QQd6dXZZQEEZ7wHCaEyV1jyd+ENQNFXgP45koUbH84IqIxLSO8/RtOLPcSMuG1dXxThf69f3+vU/3jeKNWpHRaTYcSExOFJ+zy8vLIyEih82Q0GnNyckpKSqKjo0UikdDN6q76+vrDhw8Lj7+CyMjIHuTTLb+WKH9HvFFLx/9OMmYhYdotRz82fDZXmfpPKshxN/D48ePXr1+fPXs2xjgxMfHkyZOVlZXh4eG5ubkRERGvv/46xrimpiYrK6vzvs5CuesQr9frMzMzZ86cOWDAAI1Gk5KSkpOTYzQaAwMD6+rqCCEdA70QTBcsWDBu3LhuNEHXUBTF87wtrFutVrFYTFGUXfltQ+Risdhkuv2Mz3GcxWJRKpXdPSjLsgEBAStXruR5vqSkZNOmTYsXLw4LC9NoNNeuXeu8TCtN00uXLm1ubt6yZcuyZcuEu7RXOCxJeHi4w8Tt7e179uxJTU0V7uTc3FwXM+2kUqlGo7G1GyHEYDDI5XKlUtmvX7933nmnKwumIydXMlb1wyo/5TP7qLCH75gDMbWZD7xND5sijp6IaZk0+c/W8iPWklxJ16I84a1Y4S3yDhH5DbbWFEoeSRW2m7Kfx56BkuQ3HO7F1RRYCncoUvdTwQkIIUPGtK4cyw5WeIv8BikX7hd5h/Zgdxt/f39fX9+ysrKioqIZM2YIN1dRUZHFYvnoo48oimpra1u3bl0Pcvb29p46dercuXPv8lVtt7jJiA1WePPtTUTb84ku7I/pho0pRNeApSpx1G+wWIostwdbOI47dOjQmTNnbJ3NwMDAn376Sbhj9Xp9W1ub0EdjGEan0wlB8Ny5cx2/7a9fv04IMRqNhw8fjo6OFjpizc3NQpqSkpLW1lbhvZ/g2rVrX3/9dWtrq/BfmUwmvPzhOI4QUldX179/f5lMFh0dffXqVaEkN27cEDrsFEUlJibm5eXdunULIWQwGA4ePOhwin1HnauJEKJpWiwWC4PgAn9/f39//8LCQkIIy7LHjh2LjIwUArfFYhGO2NLSkp+fLwTfUaNGnTt3TtheVVVVV1fnuvPrUEVFxfvvv9/U1ERRVGhoqEajsVgsGOPhw4f/9NNPra2thJD6+npbHSUSiZ+f34QJE6KiorKysu5Y97ssifBR57YihJjNZuGkaLVaYWTfhbi4uPz8fOGhoaKi4oMPPmhtbdVoNMHBwXl5ecI3a3V19alTp2znqPNZc3gli/yjRD5hzOGPiFmPELKWHWQOf2QbysBe/fmWGtJ2e8AQyzyIscW8P43oGhBCfMNloq2hgh/AUiVW+FirTyNCiFFrrSn4d00ZA1eZjwjhGi5bLx8QvkvoB57iqvKFkVKupoCtzKcikpzVnVjNhDUR/U2EkPXqMa7+QtdOyH8Qhz+MKZo5+gnirYgQy5mtbNEXrnfx9vbu/DBKUdRDDz20e/duhUIhvHJDCDEM097ezjAMIaS4uLipydVf29A07eXlVVlZSQhhGMY2UhcfH19UVCSM/rEse+jQIds9Lqivrw8JCbHLra2t7fLlyz3+Yw436cuLY34rHpjY/vFYTImpsIeUC75xltJ65ZAxa7Ywx8a082XTzpelSUtkMz6SPLqYu1Gq/0sMohWIZ6VJf6RCRgm7mEymY8eOBQQEJCQkCCMV4eHhycnJaWlpIpGI5/lp06YJL8pTUlLWr1//0ksvSaXSESNGSCQSlmWF6RCFhYXffvut0WgcNmzYhAkThJyFroFw6bz88ss+Pj62clZVVe3fvz8uLk4Y7qBp+sknn/z0008PHDiAEBowYMDChQtpmg4LC5swYcKqVavUarWvr69t8C4hIUGr1b711lsKhYJhmKeeekoul7tuw87VRAgpFIqpU6du3Ljx888/V6lUK1eu1Gg0zzzzTHp6+r59+3ieHz58+LRp04SOCUVR+/bty87O1uv148ePT0hIQAhFR0cnJye//fbbwrjEwoULO78mvaPBgwePHTtWqI7RaJw0aZLQ4AkJCVeuXHnttdeEDq/dIAZFUTNnzkxPT9+9e/e8efMoinKYeXFx8V//+lfh38LAyJtvvtn5TnNdEmdtNW3atE2bNolEIh8fn+DgYIvF4uKhLSEh4datW2+++aZUKpVIJAsWLBAuiTlz5mzfvn3RokVC1z41NdXWE+x81hxfyRjLZ6cbc17Uvz0Q0TJEyxVzNqF/ZSIZ+Yz1/Nf6/x2CEKJHPS+fuV4+8xPT7qX6v8QgsRTxnOThP4jjn8RiqXT8a8bs53QX/oEoiThijHAfIYSwQsOWH2GObyAsI44aL01aghCiYx/n64sNGycjLEI8K/3Nm/SQFN7oeIoBFTqaHv47Q+ZMLJaIvENEKj/+XxNyug6r/GRzt5hyXtCtDEAiSuQZJH82Gzm/6xFC3t7ecrn85s2bdjMpg4ODJRJJYmKi7V4YPXr0hQsXFi9eLBaLR40apVQqhXf1Dq+fuLi43/72tx999FFeXp5MJhsxYoTwRBsWFjZ37tx169ZRFGU2mydOnNjx0dZoNDY3Nz/22GN29aqpqdm2bVtaWpqnp2d32wS52erevKEFIdTdMbiOCGtGJi1WB6D/fJ6yWq3C7PKOG9va2jIyMlJTU+2a3mg0SqVSW2Kz2fzJJ59MmjRp6NChDMPY3hAWFxfn5uYuXbqU5/mO6W+XhBCLxdJ5wpxtOl3HjRzHWa3WzomFp36lUtnFx0OH1RTyN5vNCoWiYz5ms5miKNs9IDzDvvDCC0FBQRzH2QVcQojJZJLL5a5LUlNT895773WcL5ycnPziiy+6ro7Qx7GVxJnc3NyOLyrQv+5G13s55KJhO7dVF+vuIgcBy7Isy3Z8wyxweNacXcmEaUcWI1b3c1Ap/U0kUWBph7l6vJUYmrGq339kQggxabFcgzpVhzDtxGqxvwEdZuIEYc2I0WOV0xfaXdStUHD8+PH6+vo5c+Z05QTZXfauCR15qVRql7PwWC+TyezOWklJyZEjRxYsWGCX/5kzZ44dO7Z06VJnL2Ncc5O+vOBu4rsA0zJEB3beLhY7aCiFQjFjxozOd13nLQKKohx+5HAjxtjhnOjhw4c7zNlhRxVj3K0Jtg6rKeTfeTDd6ds/mu58D2CMnTVLRyEhIRkZGc4+dVadLt5ykyZNsvt27DEXDdu5rbpYdxc5CBw2LHJy1pxdyViqQlLHJXcQ+kVirPbvlA47e2eLpSrc+Zp1mIkTmJYhl9Pbu6hboSAxMfHixYvV1dVhYWF3TNytOIsxdpgeY9z5FBuNxqNHjwqz1zpuJ4SUlpYmJSX1LMQjhKhVq1b1bE9AUZSPj4+zcQAbYXA2ODjYrssvTOEKDw+/Yw4dqVSqnv1lxC+N53mLxRIREdGtiAbAPSf8FduxY8ciIiK62GP4JZw4cSImJiYqKspuuzAFWZhf27Oc3WrEBgAAgB03mWMDAADAIYjyAADgziDKAwCAO4MoDwAA7gyiPAAAuDOI8gAA4M4gygMAgDuDKA8AAO4MojwAALizPhrlhd/qutelAACA+14fjfLt7e0ZGRn/+Mc/7rh8EgAAABf6aJRXq9Xz58+/dOlSTU3PFwYBAADQR6M8QoimaalU6mKVdAAAAHfUd6M8AACAu9d3o7yw2PG1a9fudUEAAOA+1nejPMZ44sSJ+fn5R44c6bhMNgAAgK7ru1EeIeTp6enl5VVeXg5LnQAAQM/06XVfv/nmm0GDBs2YMeNeFwQAAO5XfbcvbzabGxsbQ0ND73VBAADgPtZ3o7ygWytfAwAAsNN3ozzP8wghpVJ5rwsCAAD3sT4a5Y1G4549e4KCgmDEBgAA7gbum9NXWJbV6XTe3t4Y43tdFgAAuI/10SgPAACgV/TRERsAAAC9AqI8AAC4M4jyAADgziDKAwCAO4MoDwAA7gyiPAAAuDOI8gAA4M4gygMAgDuDKA8AAO6s51GeEMIwTC8WBQAAQK/reZS3WCxfffXVli1b4DcSAACgz+p5lJdKpbNnzzYajRcvXuzFAgEAAOhFdzUuT9O0SqVqbm7urdIAAADo0w3LhQAABjNJREFUXfD2FQAA3NndRvnAwMC6ujpCSK+UBgAAQO+62yg/evTomzdv7t27t62trVcKBAAAoBfdbZSXyWT9+vWrqKjQ6XS9UiAAAAC9SHyX+588edJqtb766qsURfVKgQAAAPSiu+3L19TUhISEQIgHAIC+qRfm2IhEMFEHAAD6qLsK0BzHWSwWjUbTW6UBAADQu3o+Lm+1WvPy8liWjY2N7cUCAQAA6EW4x79Cw3GcVqvVaDQwKA8AAH1Wz6M8AACAvg9enAIAgDuDKA8AAO4MojwAALgziPIAAODOIMoDAIA7gygPAADuDKI8AAC4M4jyAADgziDKAwCAO4MoDwAA7uwXjPKEkPb2dpZleztbdOmaTm+29m62AADgln7BKK/T6dLT03t9pcAWg+WtXSVFVa1dSXy0tGnXmfreLQAAANxHfsEoX15e3q9fP29v797N1kcl+ea10eNifLuS+EqD/mw1LDsOAPj1utt1XxFC7e3t33//va+v79ixY20bWZY9ffp0cnIyxljYcuJK8wf7f65vMXmr6NdSBk+O98cYGRjrx7kV/zx7AyE0PSHgT5MilFIxQqi53fLeN+Xjh/ptOVJd02ScPbr/m9Miy67r3/qq1MBYEUJpT0Q9EumDEDIy3P9+c0UpE393odFo4WaMCHw1JUIpFeeXN6/Ze8Vo4VkrP+nDk7ZdSkpKCgoKpk2b5uPjc/d1BwCAPu6uonxjY+P+/ftPnTr10EMPJSUldfzo1q1bhJDQ0FDhv3XNpo9zK1b/LjoxzKuwqnX116WD/BWRAeqPcyua9JZDKx5BCL29u/Tj3IqV06MwRhxPSup1N/XMe7OG+KolYhFGCEX4KzNeGN7OWFd9VWqy8ELOPCHXteYgjSxv+cM3dMzSbcXb8+tSx4c9EumT+8bDGT9UVd0y/XX2EFvBBg4cePny5bfffjsgIGDWrFmRkZG27yEAAHA/PYzyRqNx06ZNTU1NU6dOfeaZZ6RSqV2CwsLC0NBQhULRcaPOyHI8GRHqlf1yolwiam63nK1ue3NapFomRgi9OS2y6paB44mYwgghhVT8+pTBQ/qrbbvTlMhXLZHRIlpkH5cfG+Ink1ChvooXx4b882zDs48MVEgdr22iUqmeeuqpmTNnVlZWHjx4cOvWrX/605/8/f171g4AANDH9XBcnqbpmJgYvV5fWlra0tJCCOn4aXt7e1lZWWJiom1LsI98xfTIrOO1Y/7nxHObCn++0S4VUzd1jMnCySW3y+DvKR09yFsI8QghEUadgvmdKaVinkf8f5ans9bW1rNnz5aUlERFRSmVym4fBgAA7hM97MvTNJ2SkjJhwoTCwsK1a9dSFDVv3ry4uDjh09raWqVS6efnZ0tvZrmIfsrshSOsPH+irPntr0vfnzW0v7dMLqF48u80JgvvpaDvZgTFyvOuE9TU1GRkZLS1tU2fPv39999XqVQ9PxgAAPR5dzUuT9P0Qw89NHr06PLycpPJJGzkOC4/P3/UqFE0TdtSFlW1/t+Bq397JjbMTxEf4umjkhgtVm+lJMxP8dWZazFB0SKMM4/VVt00/HX2UFt3vusqbhqSiV+7mf3qTP0DoV4q2e16BXjKjpU2txpZL8W/CzNr1qzY2FhYrhYA8GvQC3NsMMZRUVG2/2q1Wp1OFx0d3THNqAjNlOH+z20qktEiM8s/MSJwVIRGTOHl0yLf2nV5wvsnEUJRgcr/neUqxF+6plv02QXh76HO17YhhBYmh857OBghdLysadeZa0aGjxvo8fukYNsu44f4fnuhMeXDUwihZ8cEL5oQFhISEhIScve1BgCA+0Lvr+5dUFBQX1//xBNPdJ67wvFEZ7J6yMXUf464t5utCCFbB7xb2s3WP35ePO+R4LExPmYLp5bTndPoTKxELJLR0HkHAPzq9EJf3s6oUaOcfUSJsEbpIAr3LL7boSkRLXf8MtnDUegHAIBfg/v+18rEFH440jvQy34qJwAAAPRLjNgAAADoO+77vjwAAAAXIMoDAIA7gygPAADuDKI8AAC4M4jyAADgziDKAwCAO4MoDwAA7gyiPAAAuDOI8gAA4M4gygMAgDuDKA8AAO4MojwAALgziPIAAODO/j+oNSj/ilU0dQAAAABJRU5ErkJggg==;" vertex="1" parent="1">
          <mxGeometry x="465.45" y="280" width="199.1" height="190" as="geometry" />
        </mxCell>
        <mxCell id="BK3HkUFeYTMl9-7FlGzP-8" value="" style="shape=image;imageAspect=0;aspect=fixed;verticalLabelPosition=bottom;verticalAlign=top;image=data:image/png,iVBORw0KGgoAAAANSUhEUgAAAgAAAAH2CAIAAACJOaM0AAAACXBIWXMAAA7EAAAOxAGVKw4bAAAAEXRFWHRTb2Z0d2FyZQBTbmlwYXN0ZV0Xzt0AACAASURBVHic7N13fJRF/jjwz1N399ma7G56T0glIRSlV1FAEEQ8EAucep6e7fS882tHEcUD9TzLTz0riCgo0puFThDp6QnpfZNN2b771N8fi2sI2SV0SOb94o/s7Ow888w+zOd55pl9BpMkCQAAwOPxAIIgCNJn4Fe6AgiCIMiVgQIAgiBIH4UCAIIgSB+FAgCCIEgfhQIAgiBIH4UCAIIgSB+FAgCCIEgfhQIAgiBIH4UCAIIgSB+FAgCCIEgfhQIAgiBIH4UCAIIgSB+FAgCCIEgfhQIAgiBIH4UCAIIgSB+FAgCCIEgfhQIAgiBIH4UCAIIgSB91yQNAXZuryuy81Fu5hng8nuXLl9fX11/pilxkK6r3Lyna5Htps9k+/vhjm812BasEAB6PZ/Xq1TabbfXq1cXFxZ3fcglso6ujg7taDk5W5Fs8NkESz7uEKoe5zGYKnMfBe549sWqnqfC8t3KZLSnatKJ6PwDsNBU+e2KVgw+0cq1LYM0emwSSvwz5lrp7D/5vbs4Hc3M+uIYawWvDhg319fV79uzZs2fPxSrzkgeAT3ZWfbKj6lJvxaegzvrJzio3J1y2LZ4rSZKsVivP850TXQL7SfnOEx01V6pWF87BeWyc2/dSFEWLxSKK59+dXRSSJNlsNlEUbTYby7K+9E0Nxx49suzj8l9ezP3u9cL1rHjq6+jgnO+V/ljlaLn8Vd1hKvxPyVZR8tt5ndVXVXu9fWUAoiTaeDcr8YGzXT1snNvBeQCAlXgb7xYDBsjllftWVudggPnLkKwOe2PAnFczb9dQiqu2EfwdhA6Hg+d5p9PpdF60s5ZLHgBemZX22uz0S70Vn8YOT05pGy+c//+iy0ChUOh0us4pvCic6KhpcndcqSpdCnq9XiaTXelanMIwjFar9f59vKO6wFL/zsB7pkcOfjx5UjSj39pwwvuWi2ePd1S3sY7LXD1OFPa0FI8xplI4cd6FvJgx8+X+t13EWl1bLJyzyNowypgSIA+Nk6FybahccyHtfKmd9SCMiIi4WNsiL1ZBAGC327dv324wGMaOHev0CC9+X1RQbwWAsamGZ6cnA0CrnX1udaGbFQobbGNTDXm1Vk4Q358/IM7AvLa+RCknt54wOVlh5uDwJ6ckKmUkANS1uZ5fXZhfZ1PLiQfGx905IhrDAAD2l7b+nN8SFaz4cm8Ny4v/vSdTx1DPf1fUZmedrDDrv79hGMwbFXPniCh/tfWWoJKTqw/W0yT+0IRThXOC+PEvVasO1js9QlqkeuGs1IQQ5cqcut3F5pJGu46hIoPkv1W03zIw7LnpKSSBHSxvX7yhtNrsjDUwz05PHpoYFLiVZDLZ3LlzFQqFL2VJ0aZj7VUO3vNp+a4vK/YG0cyC/reFyrWCJK6o2r+u/ggr8vFK4zNpt0QxwQ7es7R4s4Kgf20tY0V+lCH50X43qSm5v835K+St4i0pmvAtDSfMrC2WMTyXPj2KCfZXCCvyH5ft2NFcyIp8lCL4qZQpyZpwAGhyd7xZtKXI1mCg1UaZWkHQvo9oNJq5c+f2JADYXNybW8q25TbzojQmRf/cjBSjmgaAVjv7+vrSCRnGT3ZWVZudc4ZFPnNLMgCcU4P7WnvGjBneykgg/dSUf3PEgI/LfpEwaHFb58QM29FcaOFcbxRuqLS3OATPv4s24oDHKQ0vZNyqJGVtrP3Noi0nLDUURowxpj6afCONkztNhduact0CV2Y3BVHKh5ImeLue82vwk/amDtY5MCjW1+DLKvdubjgOABnaKBvvej59hoqULypYd1NY5vjQdABYUb2/wdn+dNo0B+9ZVLCuymEGgIFBsU+nTfMWIoG0oe7oypocO+/p/K35FFsb3j/507SIgZPCM/2dNXf71fs7CE1uy9KizUEy5UFzGY7hUyOy58ePpnG/nYyFc75buv1Qa4UAUn9t1JMpk8PkOgAotTa+WbKl3tUeyxgApC5HJivyn1XsrnO2/SN1ip5W+dIPt1XiGJaqjgCAc61JgCP8PyXb8i11NE5OjcieFzfKW8i+lpJPyne1eKxGmeaBxHGjjCkmt2Vx4UZW5GudrZna6EpHswjS8+kzsnQxNs79QdlPOS2lADDCmPxI0o1qSr7TVJjTelKOU7ubiwicmBV13V1xI5w8u6hgXbcHIQB4j+HQ0FCCOBW9bDbbihUrJkyYkJycjGF+r3sCuDgBwGQybdq06cCBA8OHDx8zZgwAKGjihVtTOEH8OqfOZDk1bCeIksMjLJiZkltjXf1b/TePDHn/p4q9JeYYfXRDuzsiSP7T/41osnoeX567Yn/tgxPiO5zcM6sKR6foP//roNo21z9W5OvV9OSsUABwseKGo02zh0V+88gQisBVckIpI9f8/fqf81u+3l/73vwslfwsu+Zixd3F5oWz0p6YnHjgZNvrG0qvTwzqF6Zae7jxUEX7pn8OV8mIj3ZULd188j93Z9rcXIKReX12+sNfnpiQbnx8UsKCNSVtDrbDwb22vuSpKUmjUvQ7CloWbyh9b15WtF6xbdu25cuX+7alVqufe+652NhYAMAwjGGYzjV5Om2ajXM9m7v6lsiBk8KyfOlr6w7vMBUuHTA3XmX8pHznG0UbF2fNBgCzx2aQqb8e9nCDq31hwdqV1TkPJk3wt5v+Cmn2WLkO4d3B83DAFhas/apq37Pp0/0Vsqb2UJG14bPr/6KlmI/Kfvmw7JfXB8wmMeLdkh9lBLVy+CNugV1UsK5zADhzN/35Yk8ty0u7nx8FAK+sLfnw54oXb03FMBBEqbDe2mzzvD473aCmSRwDgNJGu6/B95W0vra+5M25/ZPDVf4a3FcNX2XMHruLZ0VJYiXhb4k3vH/yp2BaRWI4DrB4wJxGV8cLed890u/GQUFx3vysyP+7aJOCoL8b8bhbZBfkrfmiYs+DSRNYiS+3N/8rdeqQ4PhPynf+r3xnrNIQzejPr8EPtVakasJD5aeuUTY3HN/VXLQwc1aGNuqT8p17W0pESeoyeuMbc2NI+qnUmzlRWFXza6vH7itzl6loTd2h59NnZGijvq0+sKR402tZs5nfv6Nia8MbhRvHh6YH6P39ffWiJHZ7EIqS1OjuSFKHrh395OG2yrdLtoYrdNMiBvorfFnlXlYUvh3xGAAsLtrwecXuZ9OnWznX26VbMzRR7wy8p9bV+lrB+s4fYSXhi7I9+Za6lzJmdu79JZAOtpaPNqYwJA0A51qTbndTkmBJ0eZoJnhBxm2trP21wnVygro7dmShtf5/5Tvnx48eF5L2Y1PeJ+W7IhXBcoJyCeyTKZNPdNT81JT330HzPq3YecBclqmL/qDsp3bW8dXwhwHg5bw1X1Tufjx5EivxuR01DyXe8ETK5D3NxZ9W7BoSHJ+qiej2IPTyHsO+3t+bMnDgwGXLljkcjhkzZowcOfJcr7kvNAA4nc6PPvrIbDZPmzbt7rvv9m0ewyBISQEAQ582ykThmJahtAzFUARN4qHaP6o7Pt0op4k4A3P/2NgNRxvvGRlTUGfFMLhjWCSBY3EG5tYhYdtONE/MCCEJDAAyotQPT4xXn62jDyBWz2THagkcy4zW6Biqvt3dL0w1e2jk7KGRdjffamczItW/5LdYXTwA6JSUjMQZitAyVJCSVlA4AOwsaukfpRmTasAwGJ2q/+FwQ0G9NVqvmDx58uTJk8+7YgDgEtj9LaXTIwclqUMBYGbUkMNtlXmWukxtFAAMNyQxJJ2kDp0ROXhXc5GD97R4rN/W/MoKp3qHfuqwubHDAxcyKiRZSykAYJg+yVsIjmErqvY3uk6NRClJ2f2J43QUMzd2+NzY4TbO1ey2pmjCD7dVdrBOQRIb3R2P9rtRSym0lKK/NrrO2XZ+O+vmBDcv6hhqwW0pLvaPQV5GRv5rar/0SLUvZW9pa4JROTJZT+DYyGS9jMK1DAUAPW9wXhQ0lKLNYw+Ta0mcYAhaTlAB8lfYm80e2/PpMxiSZoC+NWrId7UH21kHAITJtemaCALD58QMO9peVWJrNMjU59Tg3jM7C+c80l55d+xI30aPtlWNNCRn6WIA4Hp94qG2igA1xAAzyNQA0DkAA8DuluJsXay3kJlR10UognzjHg2ujm+qDowKSZkXP8rb+7sEtudfvYqUQXcHIQDICep6fSKB4UP1iUODEw+3VU6LGFjlaDnz4PT+zYq8S2T1tOq59OneEspsJo/Az4q+jiHpFHV4LGPw7ZEoScsr9+Z11L7U/7YulwVVdnOts3VuzHBfSrc18deG3e5mi8fa5rE/2u9GhqQZMviJ5Mk23g0Ae5tL4pSGCaHpGGDjQtJ+bMwrsNYNDoqncEJLMTqakRO0gqD0tBoAGlztZbamh/vd6P3qp0cO+qHukLcco0wzJDiewPDsoFglKatztaVqzm1shyCIYcOGDRs2rL29fffu3U8//fScOXNGjBjR8xIuNABQFJWWlrZly5aioqL4+PiwsLDzuxLpTCkjRRFESXKxIolhBH6qwAidYqfT7OYEFUECAHHhW/odgWMyEvfeOWiyuJ/9trDZ5smM1jo8PCcEuulU2eLanmvaeuKPqRfZsVoAaGpqamho+KN8gkhKSlIqlT2vEi8KnCSoqFMB0ttP2XhXl2wqSiaBJEqihlIM0MXw4qm732EK3XkUQuN0qiYi7PfzUAVJ0xgJAHXOtjeKNnawjnhliEtgvVtp9lhxDItQnGXI66zuHxfz4c9Vt779K0ngk7JCHroh3ve94hjgp3/HFSaHnCa8ZwAkgQ1LOtULnFODsyLvEXlW5JtcHU7BY+FdcoJWU4puMzsFFjr1rUG0khMFt8B1zkNiOI2TgiSea4N7Xx5tqyIxor822vvSxrnaOceokGR/LdYTDt7T6rGHy0/damJI2jtwZONcAPB97W8URoTJtb5zfxIjev7VB94dHyUp80bKbg9OALg3fuz/ync8eOhzAsOvC4p/IGkCBpiZtSlJmba7r6PK0VLrbI1TGoPorheXOa0no5ngOJXhzE91rok//o5wThJ8X72vd65zth1pr5y6+03fx1M1EYOD4rst2eS2trGOF3K/86XoKMbeaboEdDp+AtQwAI/HU1RU9NtvvwUHB4eHh5/9A503fX6b9KEoasqUKRMnTjx8+PBbb71FEMRdd92VlZV19k/6x/8+dYQkMA8vCuKpO7oODy+nce9//kvn053V6VHqz28ehGGQX2d95YfiAJlDNPTMIeHeIYvOWltb8/PzfS9pmo6KijqnAIBjOAaYnTs1esZLIi8J3v+TnXG//6cKplVTwgecXyE+FE6M7u4e2ldV++IYw1OD52GAHW2v+uDkTwAQItOIktTgag9X6M78SA9JErC89OhN8f+cmmS2sf/edPKVH4rfmJPh71uOMSjKTE5JAgwDSYIOJ6egcTlF9LzB5QRl5VxGmXp1za95lloaJ98s2vREyhR/NSQxXBBFl3BqBpFb4AgMJ7vcQsQwb/d3rg0OABJIB1pPDg6O945dAICKkmspptzWDGEBPncWSlKmoxhfnyJIYhvr8PWqt0QMjFAEfVW5L0yuHRKcAOf41XfBdRcVvBv1/tHtwSmB5BG5h/tNfCr1ZpPb8m7pj/8u3PhK5iwDrXbwHgvnOjMkB9Oqf6VN/bR8139Ltj+TfotvTN/Js0faKm+JGOhvLOusfWu3uxlMqzr3yzbOJYCko5ggWjnKmPxs+vTOm/NdPHWhoxgtxSzKmpquieycnmu5CFP+nE7n8uXLDx8+PHz48Mcee+w8zr8vziwgiqKGDx++dOnS++6777xn/pU3OyQJbC7uu4P1A+N0KjmZGa2RAPaVtkkSWFz8D4caRqcY5FSg2/dahjLbWbOdDZAnMBcrtDs4XhTdrPBjXrPdHWiu2Pg0Y87JtmPVHQDgZoXPd1c3WdwAkJGRMa+TO+64Q6/XByhHTtAMQRdZGnxTmJWkbKghcVdzURtrl0Da2VzEi0K69tQxVGlvkUCycM7tjXnJ6jB/Z6+BC+k5j8hbeRcnCk6e3d1c5OJZAAiVa8Plul9MBazIO3m23H6WGejdl8wLz60u+Gx3jSBKehV9XYLO4eF5/4fQ9QnBebWW3ForAFSZnX/97FhRvR3OpcGDaGW8ynioreKT6//yweA/v5l95yfX/6W/9tRkATlBERheYW/25U9Shellqh+b8gRJdPLs1sYTCaoQg0wFAB2ss5W1A8Du5iIr505WhZ9Hg1fZzbXOthH6fr4UDLAhwfEHW8u993VrHa3ewRM5QWtIhfcgsXHuYmuD30IBAGBQcJyvkN9ay58+/k29s937VrzKeEvkwBvCMt4r/cmbwZ9uv3qvbg9CVuBrHa0AUOUwH2wtHxQc569kt8C9VrD+84rdgiSGyDX9tVEugeUlIUkdKiPInc2FEkjNbmvnqXE6mklQGp9Kvbnc3vxl5R7ff5Z8Sy0vCV221fOa+NvNRFWIjCC3NB6XQHLy7JLizcsr9wLAKGNyXkfdb60VAODk2c8rdgcY/Ixm9OFy3eqag06eBYAjbZXf1RwM8EsF6O4g9EcUxczMzHfeeef+++8PDw8/jzGRizkLCMOwlJRTJxF2N//YstzjNRbvy+25puwY7Uu3BZqhtafYvPpgndMjZsVo7h0TDQB6Ff3CjORnVhW+vfUky0vTB4X9aehZxsiyYzWD4rR3vHeIIvHh/YIXz04n8HNrlL+Mi33y6/zRC/fKKGJoUhBN4m7Ob3+UHat97KbEf6zIIwiM5aVpA8N0ikADyv5QODEnZtiS4k379pcAwDNptwwJTpgdPbTJ2XH/b5/SOEFj5D/TpobKtd5L+GPtVXfkvO8R+DilcX786AAlByik5+6MHfFawfrb979L40SKOoLECZfAUjjx16QJr+T/MDfnAxIndJQiRKY91x2XU8S/pvZ74buiVb/WExhoGeq1P6UFiPHZsdoHJ8Q/vjyXJIAX4InJid4xt3NyT9yo5VX77j7wIQAY5eoF/W/z3U4MopXTIwd9Vr7r25oDMpx6PWt2rNLwZMqURYXr7sh5XwKpnyrsb0k3eE/9eFF4Mfd7VuJZgb8/cVy8ygjn3uBH26vOHLuYGpGdb6l7/OhyBUGrSBmB4QBA4cSs6OuWFG/at7+UwvD+umg3zwGAdwaBr7+4effSBFXI4qzZUyOyG10dTx5bQeMEDthDSRPjVUZfTTDA/hw/pslleat4y6Ks27VU93fsu/3qvfcAuj0ICQzf0HB0Zc0Bl8BeF5wwNSLb344rCPpvSTe8WbJl9v73cAxjCNk/UqcoCFpB0A8kjF9SvGl9/VE5Tnn3vbM4peGx5BuXFm2OUAR5h/X3tZQODorvsgvd1uRoe9WignXeEbz/lmz/b8n2GZGDH0ya0O1uhit0TyRP/nfRpp+a8nlJHKCLuTd+LABcp0+4I2bY0uLNBIaxojDC0C+YVln8/KKQwonHU256s2jLXQc+oAmSxsgnUiYHuOsOfg7CbnOqVKqRI0d2+1YPYdLvPzzxeAL9xO6S8kaLu0ZGj03Tu1lBfUYfanNxcpqgiJ5er3hP2886ESiAc9qiJIHVzTM03vMadkuQxHbWEUQrOx/0rMi7BNZ3cPvmC40PSe+cHliXQs6PhXMqCPrMuXQ23s0Q9Jn/Uc/JOX1lgihZXbxGQZ5rdO8hVuTtvDuIVnb+j2rjXCRO+EaEtzflbqw/tjhrtgjSmc3Swwb3CPy/izaODUkbG5J65rvecacia8MHJ39alPkn71CbBJKd96hIWeBOJPC+nKsuX72/g9A3fSVNE8GLgr8L0y68MalL5p7vZhtrX1q0eX786M53UM+vJv6O8A7OKcPJLvfYJZDaWYeKlAeYXdqZS2A9Iq/r8f/Bi/LFndXFvAK4cBSBU4pu+pEzQ0JgF9L1n8cWMQy0iovQkgSGe6dzdEbjZLdHmL/0bp1TZn/8dWdq0u+vEHrunL4yAse8c8wuERongztNMfTy14l02yw9bHAZQb7Uf6a/d7v0OF4YYOfU4N3uy7ny99X7200FQUOPf2jVbcP2fDeDadXiAXP8vXtONfG3m9322hhg59Sw3oubnue/KF/cWV0VD4MjCWxEcnC47mr51ejVjMSJAbqYMPn533dFLoowuW6ALqbr3eBLIJhWZutiFeQ59B2Xmr+DUEHS2brYYPocJjtcIldPTa5yV8UQEIIgCHL5XRVXAAiCIMjlhwIAgiBIH4UCAIIgSB+FAgCCIEgfhQIAgiBIH4UCAIIgSB+FAgCCIEgfhQIAgiBIH4UCAIIgSB+FAgCCIEgfdXU9DK6Hihtsz39X5PDwAPDirSkjkwM9ah9BEATp1qW9AthVZF59sP6iF5sYqvz4vuyP7ss2qGWdl5C9/DVBEAS5dl3aAFDSaDtaZbnoxVIEblDTBhVN9fhx8JeoJgiCINeuizkEZLfbt2/fbjAYxo4du7+09dV1JU5W5Hhx8pIc+H2sRpJgywnT21tPdjj4tEj1wlmpCSHK/aWtH++oanNwTg8/OD5oT7F5YKz2zTv7e3jx5R+KDSp6ywkTjmH3jY3585iYAIuuNFncr64t+bW8ncSx6YPCnpicqJSR/moCAAfL2xdvKK02O2MNzLPTk4cmBgHA7t27zWbzpEmTVKpL/jBuBEGQK4h4+eWXvX8JQvcrO/eEyWRatWrVp59+ajQaR40apVQqY/TM3SOjWV7QMvSXDw66e2R0jJ4BgP2lre/+WP72XZnPTk92evjP9tTcmGGsMrsqmh0f3ZedV2uNCJL/+46MjcdM/aM1DE18sbtmSELQB38eMDhe98628nCdPCn0VL/M8uLWE6asGG1CiBIA3Jzw4vfFaZGaj+/LnjM86qt9taIEmdEafzUpbbS/+H3RP6YkLfpTulFNv721fGSyXstQSqUyLy/vs88+Ky8vj4qKUqvV57HSJoIgyNXvQq8AnE7nRx99ZDabp02bdvfdd8tkgRZ18Z7+T80OTY9UA8C0QeE/5rdUml0AoFZQajmplJEaBcnQhI45td6TUkaMTA4mcGxQnO7m7NC9xa2Ts0K7LVxOEe/Ny5Ik6HBynCBmRmtO1FjnDvdbmZ1FLf2jNGNSDRgGo1P1PxxuKKi3RusVRqPx3nvvnTdvXkFBwTfffMPz/GOPPYauBhAE6X0uNABQFJWWlrZly5aioqL4+PiwsLAA58sOD9/Y7t56wvTRL1W+xGZLTxeiUcqIZmugDLuKzG9sLNWr6IQQ5mSTM84YaPnNyhbX9lzT1hMmX4pveXFJkpqbm48cOVJTUzNu3LjAUQ1BEOQadRECwJQpUyZOnHj48OG33nqLIIi77rorKyur28xyitAy1JNTEueNiumc/nN+S0+2JUqB3m1zcP/bUbXgttThScEA8PGOysoWV4D8IRp65pDwF29N7RKwjh8/vmzZMoIgbrvttjvvvBP1/giC9FYXZxYQRVHDhw9funTpfffdJ4p/zMsM08przM4OJ+d9SRLYDf2NPxxqrDI7AcDi4j/ZWWVzcQFKdnNitdkFAHVtru25zSOTg/3lFEXJyQptdg4AGjvce0vaOr/bpSYAMD7NmHOy7Vh1BwC4WeHz3dVNFjcA4Dj+6KOPLl26dMSIEaj3RxCkF7uYs4AwDEtJSemcMiHdsOWEacqSAwBwz6johyfGT84Kaepw3/PhETmFs7x039gYRhaoDiSOfbmn+j9by+xuflJWyOSsEADIr7M+/MUJm5sHgOM1FgB46Ia4ByfE/3lMzKJ1JW9sLNUxVLyRcbMCL0gkgXVbk+xY7WM3Jf5jRR5BYCwvTRsYplNQAODv8gVBEKSXuRyLwltdHE3icorwpQiiZHXxGgVJBJzI32z1PPLliQW3pSaFKnlBUsnPHq4EUbK7eY2C6vZOxJk1kSSwunmGxgPMLkUQBOmVLsejIDQKqksKgWNByq6JAcgpAnqWncAxLeM365k1wTDQKq7J52EgCIJcoKv6tFdO4WNTDTr/HTqCIAhy3i7HEBCCIAhyFbqqrwAQBEGQSwcFAARBkD4KBQAEQZA+CgUABEGQPgoFAARBkD4KBQAEQZA+CgUABEGQPgoFAARBkD4KBQAEQZA+CgUABEGQPupqDAArc+oWbyjtnFLX5vIuIYAgCIJcLFdjALC5OYuL75zyyc6qT3ZUXaHqIAiC9E7XxpOQX5mVdqWrgCAI0ttcsQAgSVJpaemOHTvuvvtutVrdYmNfXVu8v7QtWq+I0Su8y4Q5PcKL3xcV1FsBYGyq4dnpyQAgiNIbG0uTw1R/GhoJALwgvbquOCNKM32AftWqVRkZGQMHDiQIIvDWEQRBkCsQADiOO3z48Jo1awiCmDlzJsMwvCD9e2OpjCJ2vTCK5cV/rcz3BgAFTbxwawoniF/n1Jksp55WTeDYqBT957uqJ2eFqBVUQ4e7tMlx/7g4mUw2ZMiQdevWffbZZxMnTpw0aZJKpbr8e4cgCHKtuNwB4PDhw8uWLcvOzn7qqafCwsIwDAOAJou7otn58qxUtZwEgKFJQZUtLgDAMPAuHMbQp92rGBSr/YrEy0zOgXHaXUUtkUHyCJ0cw7CMjIyMjAy73X7gwIFXX3112LBhM2fOvMw7iCAIcq243DeBw8LCwsLCysvLKysrWZb1JpptLIFDmFbWw0LUCmpMqn7jsUanRzhY1n7LoDDvyu8AIAhCRUXFb7/9BgDx8fGXYhcQBEF6h8t9BRAVFfX888+bTKZNmzZ9/vnno0aNmj17tkFNCyI0WTwhmp7GgPFpxldLSvaUmD28OChWCwAcx23YsGHbtm1paWl33HFHQkIC1u3C8AiCIAgAXKmbwKGhoffff/+cOXMOHjwoiqJBpUgIYTYfa0qLUAmCVFRvl9NnuYsbFayIDlZ8+HPlrOsj1AoKAERRDA8PX7JkSVBQ0GXZCQRBkGvb1bImcF2b6/HleWY7SxNYqFYWm02jMwAAIABJREFUrWfemJNud/OPLcs9XmPxZcuO0b43P0slJwFgd7F56aaTH96bHa1XXLmKIwiCXKuulgDgZXPzDE0QOBq6QRAEueSurgCAIAiCXDZX46MgEARBkMsABQAEQZA+CgUABEGQPgoFAARBkD4KBQAEQZA+CgUABEGQPgoFAARBkD4KBQAEQZA+CgUABEGQPgoFAARBkD4KBQAEQZA+CgUABEGQPgoFgEuuuMH20OfHW+3sla4IgiDIaa7VAODmhE92VhXUWa90Rc6OF6VWOyuI0pWuCIIgyGmu1QDAC1JOaVtjB3qENYIgyHm6ZtYDaG1t3bhx4/XXX5+enr54Q+muInOHk2NoQkbhIRrZf+7O1Ktoi4t/dW3xziIzTeB/Ghrx2E0JFIG32tmXfyg2qOgtJ0w4ht03NubPY2IoApck2FHY8vqGkg4HH2tgXr09NSNKAwArc+psbr7M5NhR2KJjyBdvTR2XZvBXK0mC73+r/2hHZZudizUwz05PHpoYBACcIH65p+bz3TUkgY3oF1xmcnx474Cer3iMIAhyGVyZNYF7TpKkqqqqtWvXlpaW3nDDDTExMQDw7PTkx25KeGxZ7l0joyf2N3pzcoL48poihib2vzjaI0hPfpX7+e7qByfEC6JUbnL0j9LkLBhzosby9DcF0XrF5KzQw5XtSzefXDq3/8BY3ZYTphe/L35/flZEkNzm5raeaF48J/2NOelrDjW8u70iK0YbrKS6rd7B8rZvDtR9+pdBcQZm47Gmt7aUfXRfdrCS2pbbvP5o0+d/HZgUqvx0V3Ve7TUwVIUgSF9zVQeAlpaWDz74gCCIGTNm/P3vfyeIQCvFV7U469pcb92VKacJOcD8MTGf7qq+Y1gUAChlxMjkYALHBsXpbs4O3VvcOjkrdHtu802ZIYPidABwQ7ph/ZHGQxXtMwaHA0BqhDotQg0Aw5KCvz1Q19ThZmj8q321Na1O77a0CvqvE2I1CmpYUvAPTwx1c0KLzZNgZDhebGh3BTHUnuLWqdmh3kJGp+h3FLRc6rZCEAQ5V1d1AGAYJjk5+cCBAyUlJdHR0UFBQQEye3gRAOTUqbsaehXtZgVvYmdKGdFsBQCwewSjhvYmymkiWEU3WdxdMsspnMAxUZJIHM+M1kQGn1p9nqEJmsABwObiFq4rza2xZERpCBxzeHgAcHh4s9UzKTPkwvYeQRDk0rqqA4BSqbzzzjtnzpy5Z8+eF154wWg03n///dHR0d1mxjFMECU3d6rHd7EiReAkgfPCaTHANxmHwMDhEbx/84LkZgWNovtxHgAgCWxYUvCZ6ZuOm9ycsOmfwygCb7Z6HvnyBAAoZaRBIztpsvuGpxAEQa5C18AsIIVCMWnSpHfffXfatGk8z3sT5RShZai8Ouvv97AhwciE6+RbT5gEUXKzwg+HGjKi1EEMBQBuTqw2uwCgrs21Pbd5ZHIwAEwZEJpzsq3K7ASA4zWWihbH4DjdudbNyQpWJ+dmBUGUfiloMdtYAMAwGJOq31VkbrK4JQlKGuy+SIMgCHL1uKqvADojCGLIkCG+lySB3T8u9u9f5a473AgA787LGhCjeXFmyr++Kfj2QJ0owZB43eM39cMwAAASx77cU/2frWV2Nz8pK2RyVggAjEzWV5md8z86SpOYIEovzUxNDleda61mDg4/cLJt4hs5BI6NTA5mZISLFQFgclbI4Yr2W98+yMiIMK3cNzCFIAhy9bhmpoF2SxAlq4vXKEgCx3yJdjdPEpicOnXH2Dsys+C21KRQJS9IKjnZpQS7m9coKAyD89Zliz5uTgCAM9MRBEGuBtfMFUC3CBwLOmOCZpcu3kdOEXDGID+BY1rG79B/DwXaIoIgyNWq9w9NyCl8bKpBd8G9PIIgSC9zbQ8BIQiCIOet918BIAiCIN1CAQBBEKSPQgEAQRCkj0IBAEEQpI9CAQBBEKSPQgEAQRCkj0IBAEEQpI9CAQBBEKSPQgEAQRCkj0IBAEEQpI/qhQGgzcEVN9h86wR0sXhD6cqcusAlFBcX79mzp76+fvny5b3pCRn5lronj60wuS3elxs2bKivr9+zZ8+ePXuubMUQBLkiemEA2Hi08a0tZS62+zVYLC7e5uYCl8CyrNPp5HnearVKnSLJz6b8b6oPXMy6Xl6syFs5l/j7HjkcDp7nnU6n0+m8shVDEOSKuLYfB92t+aNj5o+OuShF6fV6uVzue1lua65ztl2Ukq8qERERV7oKCIJcAb3qaaCLN5TuLjYDQEak5tXb0xjZqcfxVzQ7XviuqKTR3j9KLQGMTA5+cEJ8gHI4jhMEgaIoj8fDMAwA7DQV/q98JyvygiQqCBoA/po4fnxougTST035n1XssvOeEJnmiZTJA3QxALCien+lvaXC3mxyW6KY4H+m3JysCfe3uQCF2Dl3rbPteEe1ipQ9kDh+Ymj/AIWsqv51bf1hG+c2yjQPJI4bZUwBAFbkl1Xu3dxwHMOwDE1kvav99azZ4QodADidTplMxnEcQRAUhR6XjSB9Tq+6Anjkxvj7x8XuK23deKTJN9Bhc3ELfigemhT0+QMD69vdT36d503Pzc194403On/8mWeeycrKAgCKorwdorf3B4DxoenjQ9M/LttR52x7Net230dyWk5+UbHnHyk3X69P2FB39J2SbQszZ0UzegfnOWlreiljZoQiaEnxpndP/rg4a7aaUnRb7QCFHDCX/TPt5oWZs1bXHPy6KmeALtYoU3dbyL6W0m2NuYsy/5SkDl1bd+TLyj0pmgijTL254fju5uJXs25PUYd/Wr6r0tHi+4h37wgCrVqDIH1UrwoAGgWlUYBGftrJbKXZ5XALc4ZFymkiMVSZHqnxpmdlZa1cufICt7inpfi64ISh+kQAuDEsc2dz0W+tFdGMHgBiGUOSOhQA5sWNWpi/ttLRkqWL+ab6wElbk/ezNEHeETMsTmkMUEgMo8/URgPAUH3i9sbcRle7UabutpDRxpTRxhSXwDa5LAlKIy+Ktc5Wg0x1uK1yhKGft5BhhqQj7ZUXuMsIgvQavSoAdKvZ4tEqSJWs655aLJby8vLOKYmJiVqt9pwKd/JsMHNqKXmGpNWk3OyxdcmjIGgCx3lJBIAkdaiKlHnTSZzQUIqLVYiFcy4p2lxhN8UqjQSGuwUOAOyc28I5x4SknNNOIQjSR/T+ABCilVlcvN3Dd1m512q15ufnd04xGo3nGgAIHHfwp+6dcKLgETkVJe+SR5BE33jUdcEJ51dIZ90WsqnhuEfglg17iMbJRlfHC3nfAYCKkmspptzWDGHntFsIgvQJvT8AxBsUSjnxc37LXSOi2x1stdkZb1QAQHR09Lx5886pKINMfaS9spW16+lTJ+xjjalfVe0rs5mS1KGH2yqa3JY/B8V632pl7RbOqaEUWxqPywgyURXir9gAhfScW2CdAusSWALDd5gKrJwLADDAhgTHb244Vudsi2SCTtqavFcGCIIg0MsCwDOrCrfnmrx/j351b5hWtuyhwSEa2dNT+/39q9xPd1ap5CRJnP9PHyaGZextKbn/4CcAcFNY5sP9Jo4LTatztT2T+y0BuATw16Tx6ZpIb2Yr53r48JesyOMY9nTqNC3F+Cs2QCE9d0vEoBMdNfcc+JDA8DRtpAwnvX391IjsfEvdw0e+VBCUlmIoDN3yRRDklF41DTQASQK7h1fJSAy70KI6OKcMJ72TQb0ESbRyLh3NYHCqdO98oYVZszpYp4ZSENjZo86ZhZwHG+cicaJz3bxcAgsAZ6YjCNKX9aorgAAwDNTyi7OzujPO5QkMD6KV3WwUsG7Tu+WvkHPib6Yp6voRBDlTXwkAl1miOkTjpy9GEAS5SvSVISAEQRCki174MDgEQRCkJ1AAQBAE6aNQAEAQBOmjUABAEATpo1AAQBAE6aNQAEAQBOmjUABAEATpo1AAQBAE6aNQAEAQBOmjUABA/PKugdwlUQLJI/BXpD5XG4/As2I3TeHkPWe2G4JchYiXX37Z+5cgCFe0JpeK0yM8s6rwP9vKVuyvrW11jU7RX+kaXRxtDq7a7NSrZGc+37TVzv5jRV5SqNKglgUoYcOGDSqV6vjx49XV1bGxp61AIIH0WcXuLyp2ZwfFdn6QdZXD/MyJVe2cY6D/FQscvGdB3prPKnavqT1UYW8eaUw+n927Emycq4112Hm3959T8CgIGj+9fZcUbap0tmTpYgDg19ayhQVrtZQiXmXsnGd9/dF3SrYlqEJC5JrO6QEaHEGuiN7/MDgFTbxwawoniF/n1JksV+nzjtyc8NW+2hH9gjOiNGfPDQAAG4827itp/e89WYys6yP+BVFqtbO8KAUuweFw8DzvdDrPfKvE2nioteKl/rdGKoI7p39TnTMoKO7e+DEBimVI+qnUmzlRWFXza6vH3rO9udxcAruiav/1+sQBuhhf4vqGo5vrj/OS4BE4JSkLopUL+t8WKj9tkTgb53Zwp46iUcZkj8h9V/vboOC4zmHy9ujrHbxnZVXOK5mzKPyPbydAgyPIFdH7AwCGQZCSAgCGvnrHu3hByiltizcqM6J6+pH5o2Pmj445e74eiIiI6JJS7TRTOKEhT3ugqY1z1bvaBwXHBS4NA8wgU8PV/QxqXhROdNTEKPUD4I82vDt25N2xI7c35W6sP7Y4a7a/Z2t3FkQrPSLn5NkuC/6EKbSH2ircAkvh3RRyZoMjyBXRewKA0yO8tr5EKSe3njA5WWHm4PAnpyQqz1gL3keS4Pvf6j/aUdlm52INzLPTk4cmBnnTt5wwvb31ZIeDT4tUL5yVmhCiBIAWG/v6+pI9Ja0MTfx5dMy80dEcLy1aX9Ji9RyvsQyO07XY2IZ296u3p03sb+y2kFY7+/r60uH9gj/8paLDyU9IN750a7JaQS3eULqryNzh5F5bX/LmlpMhGtl/7s7Uq/z2nos3lO4uNgNARqTm1dvTvFcA3i0u3XzSxQpjUg0sf/Yx6BkzZshkstDQUII4n2XCHLxnafFmBUH/2lrGivwoQ/Kj/W5S+1/NWAJpVfWva+sP2zi3UaZ5IHHcKGMKANg49wdlP+W0lALACGPyI0k3egtpcnf8p2RbvqWOxsmpEdnz4kZxovDvoo0WzlVhb05Sh3awznbW8bd+N0wKy+q2EJPb8k7Jtmxd7A/1h+y8J1sX+3TaVC3FLCnadKy9ysF7Pi3f9WXF3iCaOfNMv7NSa+ObJVvqXe2xjAFAimKC/eUM7AIbHEEuut4TAERJamh3RwTJf/q/EU1Wz+PLc1fsr31wQry//AfL2745UPfpXwbFGZiNx5re2lL20X3ZwUpqf2nrxzsq35s3ICVctfpg/bOrC//fnwcoaeLlNUWJocr9L44229mnVuaHaGXj0wxtdnb+6Jj7CGzRupL35w/YW2L+uaBlYn9j50K+3l+74Ifi/zc/SxClkkZbvJHZ/NRwq5v/+1d5m46b5g6PenZ68mM3JTy2LPeukdET+xv9VdjnkRvj7x8Xu6+0deORJt9y88erLe/9WL5wVtrI5ODNx01HKtu96du2bVu+fLnvs2q1+rnnnvMOQDMMAwDddkZ2zkNhBImf9hYvibwk0Bj5e4OLZo/NIFN/PezhBlf7woK1K6tzHkya4K/a+1pKtzXmLsr8U5I6dG3dkS8r96RoIgwy1QdlP7Wzjq+GPwwArxeu/6Dsp/9Lm+biuSVFm6OZ4AUZtzV7LIsK1ulp1cTQDBvvvjVyMIHh/yvfsaD/bTnmk/uaS28Ky+xcyMt5a76o3P148iRRkmqdbRGKoC+uf9DCOV/K+35Tw/G7Ykc8nTbNxrmezV19S+TASWFZgVvbwjnfLt2aoYl6Z+A9ta7W1wrWd343RKYRJanB1R6u0HVON9BqB++xcK7OlxEBGhxBrojeEwC8xqcb5TQRZ2DuHxu74WjjPSNjzhwi9xqWFPzDE0PdnNBi8yQYGY4XG9pdwUpq6wnTuDRDeqQaAGYODo8OVpAEXtbsaLGxL81MldNEVLDi1sHhe4pbx6UaSALXnRpfIpQyIkKnKKy3e0/Gp2aHeguZNij8x/yWSrMrTCtT0MS4dIOcJuQ0cV2CLr/WCsP97ktBnfXbX+t8L2/ICBmXZgAAjYLSKEAjpzpn/rW8LTNaOzpFj2EwLCnIdwExefLkyZMn97wB21j7loYTPzXlz48f3XkM54C5bGP90SBKOST4tJg63JDEkHSSOnRG5OBdzUUO3qMku7/zPNqYMtqY4hLYJpclQWnkRbHW2SpKYom18YHE8VpKAQCPJ99UYW/hRbHY1mDlnLNjpjAkHUcax4dmHG6rnBiaQQCupRkAkBGUipSHKbRlNlODq73M1vRwvxu9hUyPHPRD3SEb7wYAGUGONCYzJM2QdJom8qStqedN4VVmM3kEflb0dQxJp6jDYxlD53cjmaCRxuT/le+czTnHGFN9I/6Zuugkdeg7JdtmRV8/3JB0rhtFkMujtwUAH6WMFEXwnSCfyebiFq4rza2xZERpCBxzeHgAcHqEJos7xnDqrE1OE6NS9ABwqMNzssk+eUmO7+PZMVon2/28KYeHb2x3bz1h+uiXKl9is8UTpj2tZ1TKiGZroF0wqGXD+/0xZykyyO/oCgBUm11JocyZM4KampoaGhp8LwmCSEpKUir9rj1p5Vwl1kYaJyJOP6WtcrQ0eywDg+JkBNXtB1WUTAJJ9D/90cI5lxRtrrCbYpVGAsO9a9ab3BZW5OW/lxmpCPbedm7xWBtcHQ/89pnv4wmqEDvv7rZkk9vaxjpeyP3Ol6KjGDvXNbOSlLWzDn/V88fM2pSkTOvnfgAGWJzSsK+5pMTaOMLQj4JTAYDCiRhGX2FvrnA0owCAXLV6bQDgxbMMgm86bnJzwqZ/DqMIvNnqeeTLEwDAyAijRu6bPiOIksXFq+WElqFSwtXvz88yqP84Kba7u58OL6cILUM9OSVx3qjTbtI2W89tDlKoVnbzgNAeZo41KMpMTkmCLjGgtbU1Pz/f95Km6aioqAABIE5pfDXr9mWVe5dX7us8iWVu7PAJoekv5n1/vL36en3imR/kxLNMI97UcNwjcMuGPUTjZKOr44W87wDAKNPQOOlbls4lsA7eo5ep1KQiQhH0WtafOg/N2zhXtyXrKEZLMYuypqZrIjunN7o6AlepJ7odzPExuS1fV+X8NWnCCEO/zul5HbW/NBW81H9mgirkwuuAIJfI1Tsx5vyUNzskCWwu7ruD9QPjdCr/C8E7WcHq5NysIIjSLwUtZhvrTR+ZHLw9t7muzQUAx6otD3x6rKnDkxqupEhszaEGQZQkCX4paNlb0uqvZJLAbuhv/OFQY5XZCQAWF//JziqbiwtQbW/MyKuz+r9iOYthicFF9dbiRhsAlJkcFuepzWVkZMzr5I477tDrz/5LiDCF1sq73ALbOZEhaBon27nTTqIr7S0SSBbOub0xL1kdFmDmjFtgnQLrElhBEneYCqycCwAMMnW4XLe54bj3R2efV+x+u3grL4oZ2kgSx9fWHRYkUQLpx6a8nc2F/kqOZvThct3qmoNOngWAI22V39UclCBQU8oJmiHoIktD4GwAkKQOlRHkzuZCCaRmt7XJfVpQqXe1A0AM07VJG90dDEkb5T2d1IsgV0RvuwLYU2xefbDO6RGzYjT3jokGALubf2xZ7vEaizfD9lxTdoz2vflZMweHHzjZNvGNHALHRiYHMzLCxYoAMDkrpLbVNfeDwxSBUQS+4LbUaL0CAF65LfWF74q+zqkjMIjSKxbPTg9QjclZIU0d7ns+PCKncJaX7hsbw8hIF8f6y08S2P3jYv/+Ve66w40A8O68rAExfvuOZ1YVbs81ef8e/ereMK1s2UODs2O1M4dEzP/oqEpOGDUymrxMof1Ye9UdOe97BD5OaZwfPxoAvPdXK+zN3gw3716aoApZnDX7lohBJzpq7jnwIYHhadpIGU66BY7CicdTblpcuPHOAx8AQKQi+Nn0Wyic0OLMP5KnvFmyZfb+93AM08tUz6Td4q8O3kLeLNpy14EPaIKkMfKJlMkYnDEcdvpH5sQMW1K8ad/+EgB4Ju2WIcEJH5ftWF9/xJthTs77Oop5a+Bd4QrdAwnjlxRvWl9/VI5TBNa1YXEMOzMRAHAMh/OO5whyWfSeReG9Hf1dI6PHpundrKBWdD9UfeanSAKTU11vFHOC6GRFjZzsMqLiHfYJcGHRmSBKVhevUZAEHqgzOu/8Z+IEkeMlf/e9e+5oe9X/O/nTK5mzOv8QTAJpQd6aSEWwd6qPbyLN+JB0l9B1Irw/Ns5F4sSZPxHwDu+ceQHhL71bLoH1iLyuZzUBAEES21lHEK3stgfvTALJzntUpKxLXMkxn/y6ev+izD8F0aeNqq2pPXSwtey1rNkUjub8IFev3jYEBAAUgfew9wcAlZw8s/f3FqJVdO39vfl72PsDAIFjQUqq5735ueY/E0XgF977A0CmNjpBFfLByZ/b2D9+yosBdnv09QfMJ7c35XbOTONkD3t/AFBTim5/IKamFN328v7Su6Ug6J73/gBAYLhBpj5r7w8AGGBqUt6l9y+01i+r3DslfECX3n+nqXBr4/HZMUNR749c5XrPFcB5PE0BCcA75B1EK2n8tIDnElgb5w6Ra7p9mkKf0uKxiZJ45i/I6pxtakre86CIIFdK7wkACIIgyDnphUNACIIgSE+gAIAgCNJHoQCAIAjSR6EAgCAI0kehAIAgCNJHoQCAIAjSR6EAgCAI0kehAIAgCNJHoQCAIAjSR6EAgCAI0kcRL7/8svcvQTjLgh7XBEmCDifn8AgUifX8qWqtdvYfK/KSQpUGdffLGTo9wjOrCv+zrWzF/traVtfolLM/Uv+sFm8orW11ZUYHenJRcXFxYWEhSZLr1q1LTU0lSdLBexbkrSEwPF519tWDe2hF9f5tjbkjjcnewj+r2L2m9lCFvXmkMbknH7dxLlbk/a0UtqRoU6WzJUsX4xJYC+dUkHTgBzX3nMlteTHv+ygmOESuAYANGzaoVKrjx49XV1d7Fz1GECSwXrUegM3FPbu6SJIktYIqM9kXzEwN3L36CKLUamd50e/T2xU08cKtKZwgfp1TZ7JcnIcmWVy8zR1olRgAYFnW6XTyPG+1Wr1PbRIl0ca7Wan7xcjOj4Pz2Dg3ADAk/VTqzZworKr5tdVjP+sHAYAThVcL1gGAv0cf2zi3g/MAwJ6W4o31xxZnze750z0DEyXJyrlY8VRTOBwOnuedTudFKRxB+oLeEwB4Qfp4R/Wfx8QkhSpLG+3hOvlHO6riDIqePxo6AAyDoFOLv1+ZQTO9Xi+XB1oT+KLAADPI1ADQ7RObu1XrbK11tgJgdc62i3hRciEiIiKudBUQ5NrQewJAcaMNx0EtJ/7v24LkMFWQkkoJUxY3Oq5L0BU12F5dW1LSaGdkxJ9Hx8wbHU0RuCTBlhOmpZtPulhhTKqB5c+yhnC3JAl2FLa8vqGkw8HHGphXb0/1PoyaE8SPf6ladbDe6RHSItULZ6UmhCgBoKLZ8cJ3RSWN9v5Ragkg3niWc+G0tLTk5GSKombMmHHazloaV1YdMLO2WMbwXPr0KCZYAmlV9a9r6w/bOLdRpnkgcdwoYwoArKjeb+fctc624x3VKlL2QOL4iaH9AaDJ3fFm0ZYiW4OBVhtl6sA9vgTShrqjK2ty7LwnShH8VMqUZE24961j7dXRjF6UpOMd1b4AUGptfLNkS72rPZYxAEhRTLD/sqGNtb9ZtOWEpYbCiDHG1EeTb/Q+gDrPUvte6Y/1rnYaJ6dGZM+LG0XjpLcmX1XvYwU+UxfTeSHiGTNmyGSy0NBQgkBP4UeQHuk9ASCv1poeqf65wPyXcXEWJ9di8xjVMouT63ByC9eWzB0edcvAsCqz88kVeakRqpHJ+uPVlvd+LF84K21kcvDm46Yjle3nsdHDle1LN59cOrf/wFjdlhOmF78vfn9+VkSQfO3hxkMV7Zv+OVwlIz7aUbV088n/3J3J8eKCH4qHJgV9/sDA+nb3k1/neQvJzc194403Ohf7zDPPZGVlAQBFURRFAQDDnPZw+WaP9d3B83DAFhas/apq37Pp0/e1lG5rzF2U+ackdejauiNfVu5J0UQYZWoH5zlgLvtn2s0LM2etrjn4dVXOAF2sjmLeLflRRlArhz/iFthFBesCB4BdpqI1dYeeT5+RoY1aUbX/7dKt/x5wh5ZiOFE40lY5VJ/kFrlj7VW3Rg3GALNwzrdLt2Zoot4ZeE+tq/W1gvUBSmZF/t9FmxQE/d2Ix90iuyBvzRcVex5MmtDK2t8t2T4lIntm1OAym2lRwfpEZcj40PRDrRXf1vz6cNKNY0JSN9QfLbM3+YryNhHq/RGk53pPAJAkMKhlv5a1xxoUR6s8xt9v5+oY6ptHhgii1OZgGRkRo1fk11lHJut/LW/LjNaOTtFjGAxLCtKrTvWABXXWb3+t8xV7Q0bIuDSDv41uz22+KTNkUJwOAG5IN6w/0nioon3G4PDZQyNnD420u/lWO5sRqf4lv8Xq4pssHodbmDMsUk4TiaHK9MhT9yeysrJWrlx5Tjs7JiRFSykAYGxI6vbGPAfvGW1MGW1McQlsk8uSoDTyoljrbDXK1AAQw+gztdEAMFSfuL0xt9HV7hG4RnfHo/1u1FIKLaXor42uc7b5bViQdjYXjjQkZ+liAODmiOwc88kym2lwcHyds62VtQ8MimVFfk9zcYOrPVIRXGYzeQR+VvR1DEmnqMNjGb+tBwAV9mazx/Z8+gyGpBmgb40a8l3twXbWoadVn1z/F0ESm91WJSkzytSltqbxoemH2yoTVCHjQ9MwwIbrkzY3HDundkMQpLPeEwB4QXR4eJYXeUEqbXQMTQrKr7OOSdFLEqzMqf1iT02sQRERJC9vdmREqQGg2uxKCmXOXPRg+p+6AAAgAElEQVTRoJYN7/fHJJ/IoEAj73aPYNScihxymghW0U0WNwA0WdzPflvYbPNkRmsdHp4TRABotni0ClIl69rmFoulvLy8c0piYqJW23WdqW5ROCGBJEqihXMuKdpcYTfFKo0EhruFbm4vKwiawHFeEps9VhzDIhRBPdmEnXO3sY7DbZW+BdMBwMzaAOB4R7VH4I62VwGAR+CKrY2RimAza1OSMm3P7vQ6BRY63XIIopWcKLgFTgLp66qcjQ3HQmQao0zd5O7opw4DgEZXRwyjv1jziBCkj+s9AUDLUNVmZ78w5Zz3D01IN7y8pmhSVmi8UVlmsv9wuPGTvwyMNzIA8MyqQm/+WIOizOSUJOgSA0K1spsHhPZwowQGDs+pYWhekNysoFFQAPDpzur0KPXnNw/CMMivs77yQzEAhGhlFhdv9/BdVhW2Wq35+fmdU4xGYw8DgM+mhuMegVs27CEaJxtdHS/kfRcgc4hMI0pSg6s9XKE7a8lygmYIek7MsPnxozunSyAda6/S0kyhpR4AZAR1sLVsQmi6gVY7eI+Fc/Vktg+J4YIougTW+9ItcASGkzhRYm38xVSwKPN2b7//Yu733gzhCl2Ns1UCCcUABLlwvScADE0Kem196VM3J907JlaSQJQk7+8AOEFysYLFxQFAYb3tRHWH99brsMTgzceaihttaRHqMpPD4jzLjMxuTRkQ+s728tuuc8YZmOM1looWx8MT4wHAxQpOVuBFURCkH/Oa7W4eAOINCqWc+Dm/5a4R0e0Ottrs9NYkOjp63rx5F7j7boF1CqxLYAkM32EqsHKuAJlD5dpwue4XU0GmLpoXxXK7SYb7nStF4cRwQ791dUdGGpKT1KFtrH1N7aHZMUPtvLvB1f5wvxsHBcUBQI755JeVe8wee5I6VEaQO5sL744b2eK2Nbk7AtwETlKF6WWqH5vyHkgc7xH4rY0nElQhBpmq0dXOinwH5wSA3I6acrvJW8iQ4Pic0pP5HXWZuuhSW5N3gimCIOen9wSAMK38ycmJC74varJ4MAwenBA/c0g4ACSHqaYPCn/g02NyiogzMkaNzHvOnh2rnTkkYv5HR1VywqiR0WSg+Z12N//YstzjNRbvy+25puwY7Xvzs0Ym66vMzvkfHaVJTBCll2amJoerAOAv42Kf/Dp/9MK9MooYmhREk7ibE0M0sqen9vv7V7mf7qxSyUmSuJgzSm+JGHSio+aeAx8SGJ6mjZThZLejQF4UTvw1acIr+T/MzfmAxAkdpQiRaQHAxrmezV1dYW/2Zrt599IEVcjirNlTI7LNHtu/TnxDY4QA4rSIgSpSfsBcJifofqpTV0tpmggcw3I7am4IzXggYfyS4k3r64/KcYrA/tjNCnvznJz3fS//njJpUljWkylTFhWuuyPnfQmkfqqwvyXdgAGWpokcZUxZmL+WxIlQuUZHMw7eAwDX6RPGhaY9n7taQdJqUk5298sDBEF6qK8sCs8JopsVzvxNACeIHC8xsgvqRwRRsrt5jYLqMppkc3FymqBO7+glCeweXiUjz7z9cOFsnIvEiZ7P4rfxboagO/fRAQiS2M46gmhlT/JLINl5j4qU9XCsptuasyLvElgtxXTJzIo8JwpKsvufbSMI0kN9JQAgCIIgXaCHwSEIgvRRKAAgCIL0USgAIAiC9FEoACAIgvRRKAAgCIL0USgAIAjy/9m78/goyvsP4N/ZOXZ39kqym2zum2wOCPctCF5EKldRDm3RtvrTautFf63UAxQtllJbtfyUasV6C4ISObWCoAQkXAkhF7k297XJ3secvz8WYwpJCIoK2e/71ZevZDLzzDNDX/OZeZ7Z/aIQhQGAEEIhCgMAIYRCFAYAQgiFKAwAhBAKURgACCEUojAAEEIoRJGrVq0K/iSK4oBrXhlkGexe3hMQaYoI1gMYDJube/itU+lmjUl3cV8webDS9vzummkWIz3gt0l/a+Xl5aWlpRRFffTRR5mZmRRFeYTAylNbSELRU4H9u3vLenB3S/HUyIxg4/+q2b+lobDG3T41MmMwm7t4HycJSrLvigJry7bXejuC5SRFWap0tRzrrtVRKi2lAoBLeDj5+flarfbkyZNWqzUpKek7toZQKBg69QAAwOXjV2wqk2VZp6ar2twrF2SOSNAPZkNRkm1uTpDki92jj5O63JwkX/SGg8RxnNfrFQTB6XQGv7dVkiWX4Odk4RLuxcMHXLwfAFiKWZ45m5fE9+sP2wLuwWzLS+Lq0x8BwDO5i+i+vp3fxfuDZVsavV1Pl37k5gMx6rB/Vu2bZEp/IGPWJTwcj8cjCILX6/3uTSEUIoZOAAiivGGv9Y7pielmTWWLOyZM9fLeumST+vwaAFcio9GoUg1UnfiSIIAwKXXQq0jvBTV4bQ1eGwDR6O0a+C5+a2OhllS9MGYZo6CqXG0rS7Z80VExISL1EvT7v8XGxl7yNhEakoZOAJS3uBQK0KnIP7x3OiNaG66hLdGa8hbP+NSwsmbX6g8rKlrcrJK8Y1rismkJNKmQZdhZ1PaXHWd8nDg908QJ0sDttzr8qz+sOFzdTSmIuWOiH8xL0ygpAOAled3Oql1FbQyluOea5FunJBAEiJL8dkHDK/usXk7MTdCvWZwdoWHW5FfOHxebm6Bft/PMDSPMOXG6p7dVzMqNmpzeb8XErKysjIwMmqbnzZv3XwfraHmn7lAn50piTX/MnhvPRsggv289/GHTURfvj1Tq70qbcVWkBQDesh508/4Gb9dJu1VLKe9Km3mdeTgAtPrt68p2lrmaTYwuUqkb+Iovg5zfePyd+gK3EIhXRyy33Jihjwn+6US3NYE1SrJ80m7tCYBKZ8u6ip1Nvu4k1gQgB6s5dnEeJUkHnxLSdFH3Z8zqKRx//uEAQJ2nY23ZDqu3U00y8+PG3pY8pdrV/u+6L36XOdsrcK9U73vAMqub875U9Z/fZf4kUqmbN2+eUqk0m80kiWXCEBqUoTMJfKrBmR2n+8/pzjtnJI9MNKgZMjZc7fDydi//1IcVSybHH1094417xn58ovVIdTcAnLQ6Xvyk+qmFWQUrp0+zGF3+gUYhBFFet6MqO15/5MmrP3lkakWLe0thc/BPjTbvNdmRBSunr1mU/XZBY1WbGwA+PtG6tbDlzV+PPfLk1ZPSI1a8X8oJkk5NlTY5u738V9XdR6q7PAGh1e43aZni4uJb/1txcXGwcZqmVSoVSZIs+19VsdoDzhfGLntv8m80lPLNui8B4MuOyt0txU+PuGXH1b+bFz/29doDHQEXAHj4wKHOqiVJk/KnPTw/btzbdQUdARcviS9UfKIk6Xcm37d21JKAdIF6yJ+3lW1pLHw0e17+tIenmIY9V7nLwXsBgJfEY121E43poyOST3TXySADgIP3Ple5K0cfv3nK/Q9YZrmFs4WGboodVeVuffr0tjpPBwBMNKZl6mP7Oxwb515T+nFuWEL+tIefzV38WdvpHc0njUqtW/C3+OzlzubTjsZqd3uzrxtk0FJKAGBZliRJlUpF00PhmQ+hH8DQeQKQZTDplIerupNM6uN1gcivp3PDWPrd+8aJktzl4VglmWhUlzQ6p2YYD1d3jUgwTLMYCQImpYcbtWdvgU83Ot873NjT7LU5UTOyTMGf/Zzo50WDmvq/O0b2jPunRGrGJBtIBTEyyRClZ5q6/QlG9Z7itl9MT0w2sQCwcHzsvtLOsmZ3dpzuaI29us1DKRTWTq/NzZEKIkqvNETnvvPOOxd1sNOjLMHb56ujMve0nPIIgWmRlmmRFp/ItfocqZpIQZIavLZIpQ4AElnjCEMCAEw0pu1pKW7xdQdEvsVv/82w6w202kCrhxsSGr1d/Z5YkPe1l041ZQQncmfHjiroPFPlahsbkdLo7bJx7tHhSZwkHGgvb/Z1x6kjqlxtAVFYmDCepRiLLiaJPXv2xkWkrht122s1nz94/C0DzfY8o/R5OMXd9QQBixMnkYQiXWeeEZV1oL38hugROkrV4rMX2evDGE2tuwMAzCrD4AesEEK9DZ0AEETJExA4QRJEubLFMzE9vKTROd1ilGV4p6Bh44H6JJM6NlxV3e7JidcBgLXTl25mzy/Ma9IpJw8z9vwaF64CAIok/jAn4/ndVdc/WxDG0ksmxS2aGHfOhgQAAYQgyoIo+zkpOEAEACpaoaYVDi+faGR3F7cX1ztuHBl10uo43eQK19B6Ne1wOKqrq3s3lZaWZjAYBnPUtIKUQZZkycF715btqHG3JWkiSULRZ0V4NcmQCoUgS+0Bp4IgYtXhg9mFm/d3cZ6jXbXbmo71LOzkXABw0m4NiPzx7joACIh8ubMlTh3Rybk0lLJneKe3BDZi5fCfcpLwQf2RF898wlLKnpry5xwOJwsUQVJfFx+OVhsKu2oCIp+kMZU5mx289xpzdpmzSU0ylq8HoxBCF2voBICBpa2d3mHRmsX/KLwm27RqS9msXHNKpKaqzb31aMsrd45OiWQB4JH3S4PrJ5nUVW1eWYZzMsBsUM4eaT6ncVGSSQWx8qeZq29WWG3elR+U2b3C/bP6nsBUEIRCAZ6A0LOtIMtqRhEdpuIF6Xid/dfXpdR3+g6f6Uo1awgCnE5nSUlJ7xYiIyMHGQA9tjefDIj8vyfdwyioFp/9sVObB1g5SqmXZLnZ1x2jDrtgyyqSYUlmceKk21Om9V4ug3yiu87AsKWOJgBQkvRXtqprzNkmRucRAg7ep+uVAR4h8O/aLyYa08ZGpDAK6pbEiSft1kJbzTkB0IMkFJwkCPLZiRk3H6AJklKQqZqobU3HNZRyTHhyoa3GDt7ro4df8BAQQn0aOgEwMT38mW2Vy2en/2J6kiyDJMvBzwHwouzjRIePB4DSJleR1Z4SqQaASWkRO060lre4smJ1VW0eh3egcXCHT7jntZM/m5owZ3R0QoQ6O07n9PW7Pqskr82Jyj/eMiM7Uq+i9pfbOEHKjNXpVRRDKTpcXEKEOjdR/9p+6/xxsQCQkJCwbNmy73j4fpHzipxP5EhCsbfttJP3DbCyWWWIUYV91nZ6RFiCIEnV7jalot9xc1pBTjYN+6jx2FRTRrrO3MW5tzQULkqc6Bb8zb7ue4ddPyY8GQAKOs+8XnugM+BO15mVJLWvvfRnyVM7/K5Wvz2ejWApxin4Xq89kKKNjGC0dZ6ONr9zVkxufzsdYUh4Xz58oL18bvyYbs7zWdvpKZHD1CSTpDG1+e0TjenJmkgVSbuFQAJr7K8RhNDAhk4ARBtUD+WlrfygrNURIAi4+5qUBeNiACAjWjt3TMxdr55Q0WRyJBupV3oCIgCMSjIsGBd7+8vHtSoyUq9kBvwkV4SGXj47ffVHFX/bVSXJkGxS/3lpzgDr3zIxtqnbd9O6QwxFsAz17OLs4BxDRoyWZXwGls6O06kZKsF4yd7snBM7pshe//NDL5GEIssQp1RQfY4CBdEK8n/Sr3myZOvSgvWUggyj1VFKAwC4eN+K4k017vbgarP3/yVVG7Umd9FPYkd1Blz/W/QuQ5AiSDfFjtZSqkOdVSqS6bmFz9LHKgii2F5/rTnnrtSZa8u3b2s6rlLQJKEAAAKI+9KvX1/16S+/eoVWkJIs3xg7clqkJdBPJ80qw28yblhXtuOd+gJOEqcahy1KmAgAkSp9hFI7PCyeVpBZhrhSR1MYw/bZAkLoggj568nMQCDw43ble8WLkp8Tz/9MAC9KvCCzysG+OOj08QylUNGDWr+/nX5/XLyPUpCDnxR1CX6WZEhiUC+DibLUzXnCGc1g1pdBdgsBLaUk4L+G2ERZcvK+MIY9Z3l/HLxXTTKMYujcqSB0+QiVAEAIIXSOofM5AIQQQhcFAwAhhEIUBgBCCIUoDACEEApRGAAIIRSiMAAQQihEYQAghFCIwgBACKEQhQGAEEIhCgMAIYRCFAYAQgiFKAwAhBAKUeSqVauCP4mi+KP25NKQZbB7eU9ApCkiWA9gMGxu7uG3TqWbNaavC0kOUnmz6+7XijYesL51sCElkk00/kBfTZyfn6/Vak+ePGm1WpOSkgBgX1vpP6v3TjYNu4RfnLm2bHuttyM3LHFfW+kfizdtaSjc0XwyXWeOUukHs7md98ogB6vAn6PN73j81AfxbESwKRfvL7BVNnq7olT64PoeIbDy1JZ/1ezf0lBY426fGplxqQ4qqKmp6fPPP4+NjX399dctFotSeXH/7ggNDUPqW3ZdPn7FpjJZlnVquqrNvXJB5oiEQV2qREm2uTlBki92j2lmzYZfjnIHhMc2l/k46eK7/C15PB5BELxeb88SThZcgl+SL2UfXLzfwwcAYJIpPVMf2xFw/q1iNycJg9m2m/P8/uS7Wfq4hzNvPP+vkiw7eV+wqWNdtevKd8SqwyVZ/kflJ7/PumlsRApLMcszZ/OS+H79YVvAfQkPKkgQBI/HI0mSw+GQpB/uHw6hy8rQCQBBlDfstd4xPTHdrKlscceEqV7eW5dsUn+vX8dPkwqTjlHRCnrQTxuXVmxs7A+wFzXJqNUMACjOr6HcjzJncyfnrnS3OHivge73wcjBe1+p2bcwYcLNCRMA4C3rwbesB7P0cSzFmJS64K4vxRH0y2g04u0/CllDJwDKW1wKBehU5B/eO50RrQ3X0JZoTXmLZ3xqWFmza/WHFRUtblZJ3jEtcdm0BJpUyDLsLGr7y44zPk6cnmnihAvcBna4uD9tqzhQYWOZbxrpb2VRkt8uaHhln9XLibkJ+jWLs6MNKgBodfhXf1hxuLqbUhBzx0Q/mJcWrB3/VXX3mvxKa6c3ycSumJsxMe0C5drnzZunVCrNZjNJfjPAwkvi85V7jtiqSQW5MH78bclTCCA4SdhQtXdveyknCfHqiOWWGzP0MR4h8NfynRZ9zM7mok7OlcSa/pg9N56NAIBKZ8u6ip1Nvu4k1gQgBxf2x8X711d9WtBRCQBTIjPuS79eR5+tcXa4s2p8REqzz17hbJlgTAMAGeT8xuNvWr/kRGFEWCIviQBQ7W4XJHGyKT241VWmDJvf7RJ8LNX3dV8G+dPWkn/VfO4WAlFK/YOWvJFhiQDg4L0vVO4ptNWIIA83xD9kyYtWhQFAq9/+t4rdJY5GRkH9JHbUsuSrgkNk8fHx8+bNU6vVS5cuxQBAIWvoTAKfanBmx+n+c7rzzhnJIxMNaoaMDVc7vLzdyz/1YcWSyfFHV894456xH59oPVLdDQAnrY4XP6l+amFWwcrp0yxGl3+gkQ0/J67aUpZgVB98fNqm347/vLxz81fNA6z/8YnWrYUtb/567JEnr56UHrHi/VK3XxBEed2Oqux4/ZEnr/7kkakVLe4thc0AUNnifmZbxUN5aUdXz7jvupQ1+ZUNNh8A7N69+9Ze7r77bqvVGmyfZVmSJFUqFU1/83xj49xTTBkfTnvo/mE37GopqnC2AMCWhsIyZ/O/JtyZP+3h3LCEl6o+84mcJEvtAWeJvfGFscvem/wbDaV8s+5LAHDw3ucqd+Xo4zdPuf8Byyy3MFCNIBnk9VWfdnOeNyff++bke9t8jo21+4N/cvDeWk/7jKjsOHX4ie6zfS601bxXf/je9Ou3TntobERKQOIBoCPgVJGMnjpbPj5ZE/mAZZZZZehvpwUdZzbWHHjYMnv79OXz48b+vWJ3g9cGAP+u/YKTxPem/HbzlPsZBfVazX4ZZK/ArS3bEa0ybJ5y/99G33a488yO5pPBdkiSZFmWIIjgfwc4TISGsKHzBCDLYNIpD1d1J5nUx+sCkV9P54ax9Lv3jRMlucvDsUoy0aguaXROzTAeru4akWCYZjESBExKDw/W7AWA043O9w439jR7bU7UjCxTTYe3xe7/w5wMFUPGMOQT8y0ert85cz8v7ilu+8X0xGQTCwALx8fuK+0sa3aPTjIAgJ8T/bxoUFP/d8dISZYBYF9Zx/B4/fRME0HAtEzj1qPNp5ucCUZ1Xl5eXl7e4M9AtMowPiKFJBTjjKkfNB5p9HVl6mOXJk1emjTZxfva/U6LPuZoV62d82opJQBcFZVhoNUAMMmY/nl7mUcIVLnaAqKwMGE8SzEWXUwSaxpgd82+7ipX673Drg82MjduzNbGQpfg11GqCmeLDJCljw2I/EdNx1y8T0erj3bVpmqjZpqzCCAmG9N3NJ8Y/KH1ONBRPj4idaIxDQCujx6xr73siK0mWBeekwSfxBkZ7R+z53qEAACUu5qdvHdR4o0sxSRTkTPNOUe7aufHjx1kNUqEhryhEwCCKHkCAidIgihXtngmpoeXNDqnW4yyDO8UNGw8UJ9kUseGq6rbPTnxOgCwdvrSzez5N38mnXLyMGPPr3HhKgBodwb8vKSizz4wDYvWDtgT2c9JwbEdAFDRCjWtcHh5iiT+MCfj+d1V1z9bEMbSSybFLZoYBwC1Hb49xW27itp6WhiVZACA1tbW5uZvnjNIkkxPT9doNBc+F7JMACHKEgA0erueLfvYznlSNFE+kROkPnJLSytlkCVZ6uRcGkoZvKBfUJvf2cV5Hive3LMkjGbdvF9HqQ7bqiRZ/rKjwiH4ujlPg68rm45r8dkTWeP5F19JlmDQ9+BegYtgz558lmJ0lKoz4AKAX6Rc/c/qvXcXvkYSivHhKXelX0MA0RFwNvvsdx35V8/mqdooN+/XDe4AERryhk4AGFja2ukdFq1Z/I/Ca7JNq7aUzco1p0RqqtrcW4+2vHLn6JRIFgAeeb80uH6SSV3V5pXlcy8+ZoNy9kjzOY2bdIyaIaWv6ye7/YIky/p+ppcVBKFQgCdwdkxJlGRBltWMQpRkUkGs/Gnm6psVVpt35Qdldq9w/6zUKD2zYFzM4/Mzz+mJzWYrKSnp+ZVhmPj4+EEFQC9v1n2ZzJqWj11GAHG8u279mU8HWNnE6DxCwMH7BnOJDKNZA80+nfuTbH1c7+Uu3lftbmdJpvfgT7Y+LkYdVu+1ySD3zoAk1hSQhA6/U6dVAUCJo/GV6n2/y/xJQj9zD6RC4fl6YIqXxIDEa2mVDHJA4u8ddt3yzNltfscLlZ/8ufTjJ0cs1FHqWHX4M7m3DDCmhFAoGzpzABPTwwtr7DOzI794fNqqn2Zt/93kB/PSKJLgRdnHiQ4fDwClTa4iqz24/qS0iLImZ3mLCwCq2jwOLz9A40lGNask84+1yjL4OfGZbZWvH2job2VWSV6bE5V/vMXhE2QZ9pfbOEHKjNU5fMI9r53cVdQOAAkR6uw4ndPHA8DMrMiCM10nrHYA8HPia/utrQ4/AOTk5CzrZcmSJUajsb+d9icgCU7Bx0uiV+D2t5f5BG6AldN1ZiVJ7WsvlUFu9ztb/fYBVk5gjTGqsE31X3kFDgCOddVurv9KBvmMu80j+B/KzHti+IInhi+YFzf2ZLfVJ3LjIlKsns4SeyMAVLpagy+YpmqjTErdrpYiUZZEWdrTUqwhldH9X6+vjswscTRUudoA4GhXTavfMTo8yS/yz5ze9lrNflGWolT64YZ4n8gJsphjiKMUig8bj4qyJIP8Seupfe2lF3sCERrChs4TQLRB9VBe2soPylodAYKAu69JWTAuBgAyorVzx8Tc9eoJFU0mR7KReqUnIALAqCTDgnGxt798XKsiI/VKhhooC3Vq+on5lkfeL333UKMgydMtxl/NSASAkkbnvRuLghPIJ+sdAHDPtcl3X5Nyy8TYpm7fTesOMRTBMtSzi7ODcwzLZ6ev/qjib7uqJBmSTeo/L80J9uS3N6Q9/NYpkiQ4Qb5pdHTYpXt19dakKc+c3nbzwRcYBWnRxVIK0idywTmA8xlo9q7UmWvLt29rOq5S0CRx9pzsaS1+vmJP8OfgmM8DllmzonPvt9ywrmznbYfWMyTFENSDljwCiEJbTaw6PFZ99kWm0eFJ25tP1Ho6xhtTZ5izHi3epKYYHaWiFCQAMArqt8Nu+FNp/q2H1ouyFKeOWJE9h1aQLt63onhTjbs92Mjs/X9J1UatyV00w5zV6Ot6pPg9EhQywP+kzww+f/w6/dp1FTsXHXxRQRAsqXw480Y1yahJ5uGMG3uWG5XaR7LmXKoTi9AQQMhfD2sEAgO98nGl40XJz4nnfyaAFyVekFllH59W7ZPTxzOUQkUPav3+dtpnI7IMTr/AMooB3i791hy8V00yg/yQsAyyWwhoKeUgJ0t9IheQhLD+X/bvjZMEXhI15yWQi/dRCnKQb/2LsuTkfWEMe04PXbwPAM4fv+pvOUIhLlQCACGE0DmGzhwAQgihi4IBgBBCIQoDACGEQhQGAEIIhSgMAIQQClEYAAghFKIwABBCKERhACCEUIjCAEAIoRCFAYAQQiEKAwAhhEIUBgBCCIWooRYAsgzdHr7TxfHiBYq892Zzc/e8drK82XWxuytvdi18/kje2oK8tQUHK23n/JUXpeIGp7//4pFBBytty98u8QYusFpv+fn5TU1NBw4cOHDgQHDJvrbSFUXvewas4nux1pZtf8t6MNj40oL1SwvW/+Krf5Y4Gi+4YZCd9/rEvssPtPkdD514q6cpF+/f1176RUdFz/oeIbCi6P3gTteWbT9ncxnk4911Dt43cAfO2UtvTU1N+fn5Lpdrw4YNLtdF/7sjNDQMnXoAAODy8Ss2lcmyrFPTVW3ulQsyRyToB7OhKMk2NydI8sXuMc2s2fDLUe6A8NjmMh93buRUtXke21z67OKc7DjdAI34OKnLzfWUGxsMj8cjCILX6+1ZwsmCS/BL8kXE3gW5eH+wbMskU3qmPrYj4PxbxW5OEgazbTfn+f3Jd7P0cQ9n3nj+XyVZdvK+YFPHumrXle+IVYdLsvyPyk9+n3XT2IgUlmKWZ87mJfH9+sO2gPuczdv9zr9X7F6WctV15uED9KH3Xs4hCILH45EkyeFwSNKlPGkIXUGGTgAIorxhr/WO6YnpZk1lizsmTPXy3rpkk5rfwhsAACAASURBVPr8r+O/hGhSYdIxKlpBK/r46vysWF3+w5O+v70DQGxs7PfafpCaZNRqBgAUgy7eW+Zs7uTcle4WB+819F8qwMF7X6nZtzBhws0JEwDgLevBt6wHs/RxLMWYlLrgrs/fyqwyvDHpnm9zJOcxGo1KZd/lcRAa8oZOAJS3uBQK0KnIP7x3OiNaG66hLdGa8hbP+NSwsmbX6g8rKlrcrJK8Y1rismkJNKmQZdhZ1PaXHWd8nDg908QJF7gN7HBxf9pWcaDCxjLfNNLfygcrbas/qgAAjZJ65paszFjdYBrhRelfn9dXt3senZcRxg6UW/PmzVMqlWazmSS/qSrDS+LzlXuO2KpJBbkwfvxtyVMIIDhJ2FC1d297KScJ8eqI5ZYbM/QxHiHw1/KdFn3MzuaiTs6VxJr+mD03no0AgEpny7qKnU2+7iTWBCDH91ObN8jF+9dXfVrQUQkAUyIz7ku/Xkergn863Fk1PiKl2WevcLZMMKYBgAxyfuPxN61fcqIwIiyRl0QAqHa3C5I42ZQe3OoqU4bN73YJPpbquzJMiaPxr+U7/SIPAP+TNnOmOfuCPQna316+ueGrO1KmjYtIBYD4+Ph58+ap1eqlS5diAKCQNXTmAE41OLPjdP853XnnjOSRiQY1Q8aGqx1e3u7ln/qwYsnk+KOrZ7xxz9iPT7Qeqe4GgJNWx4ufVD+1MKtg5fRpFmOwrGN//Jy4aktZglF98PFpm347/vPyzs1fNQ+w/tiUsDfuGfvcbSNkGXpGlgZuRJDkl/5Td6C8c/nstODVf/fu3bf2cvfdd1utZ8ussyxLkqRKpaLpb3LCxrmnmDI+nPbQ/cNu2NVSVOFsAYAtDYVlzuZ/Tbgzf9rDuWEJL1V95hM5SZbaA84Se+MLY5e9N/k3Gkr5Zt2XAODgvc9V7srRx2+ecv8DllnuAWcUZJDXV33azXnenHzvm5PvbfM5NtbuD/7JwXtrPe0zorLj1OG9S8O/V3/43vTrt057aGxESkDiAaAj4FSRjJ46W6srWRP5gGXWADXcM3TRz45cvHrEzXpazclCnz3p5jzrqz6V4ZshtX1tpa9U750bNyZ49QcAkiRZliUIIvjfAQ4ToSFs6DwByDKYdMrDVd1JJvXxukCk7uxtXRhLv3vfOFGSuzwcqyQTjeqSRufUDOPh6q4RCYZpFiNBwKT08GDNXgA43eh87/A304bX5kTNyDLVdHhb7P4/zMlQMWQMQz4x3+IZcGpXRZPBio+9HxIGaESS5df2WwvOdP39ZyOiDWdvXfPy8vLy8gZ/BqJVhvERKSShGGdM/aDxSKOvK1MfuzRp8tKkyS7e1+53WvQxR7tq7Zw3WBP4qqgMA60GgEnG9M/byzxCoMrVFhCFhQnjWYqx6GKSWNMAu2v2dVe5Wu8ddn2wkblxY7Y2FroEv45SVThbZIAsfWxA5D9qOubifTpafbSrNlUbNdOcRQAx2Zi+o/nE4A+tB6OgzCoDSzK04ptHn3a/s8LZclfazGBP7s+4ocbdIXw9sl/iaNzVfPK25Kk3RI/4FntEaAgbOgEgiJInIHCCJIhyZYtnYnp4SaNzusUoy/BOQcPGA/VJJnVsuKq63ZMTrwMAa6cv3cyef/Nn0iknDzP2/BoXrgKAdmfAz0sq+uzlfFi09lv0cIBGihucpc2u3AS9Qf3Nv0hra2tz8zePCCRJpqenazSaC+9JlgkgRFkCgEZv17NlH9s5T4omyidygtRHbmlppQyyJEudnEtDKQ2Dq53b5nd2cZ5gjfigMJp1834dpTpsq5Jk+cuOCofg6+Y8Db6ubDquxWdPZI3n1xmWZAm+2z14m9/BSYKKPPswFKeOiFOfHbnyCdym+sNqkonu/6kCoZA1dALAwNLWTu+waM3ifxRek21ataVsVq45JVJT1ebeerTllTtHp0SyAPDI+6XB9ZNM6qo2ryyfe/ExG5SzR5rPadykY9QM2fOijtsvSLKsv8jp5QEaiQtX/XlJznO7qtbuOPPEgszgxIDNZispKenZnGGY+Pj4QQVAL2/WfZnMmpaPXUYAcby7bv2ZTwfqIaPzCAEH7xtM/fQwmjXQ7NO5P8nWx/Ve7uJ91e52lmR6D/5k6+Ni1GH1XpsMcu8MSGJNAUno8Dt1WhUAlDgaX6ne97vMnyQMOPdwjkilnlFQPdWtfSLnEQJGpRYASEJxZ+rM9oDjxcpPnxyxMFkz0DMNQqFm6MwBTEwPL6yxz8yO/OLxaat+mrX9d5MfzEujSIIXZR8nOnw8AJQ2uYqs9uD6k9Iiypqc5S0uAKhq8zi8/ACNJxnVrJLMP9Yqy+DnxGe2Vb5+oOFiezhAI5E6ZZKJfXJh1qkG18b99cFLWU5OzrJelixZYjQaB9pBXwKS4BR8vCR6BW5/e5lP6PvF/KB0nVlJUvvaS2WQ2/3OVr99gJUTWGOMKmxT/VdegQOAY121m+u/kkE+427zCP6HMvOeGL7gieEL5sWNPdlt9YncuIgUq6ezxN4IAJWu1uALpqnaKJNSt6ulSJQlUZb2tBRrSOXF3q2blLoYVdiO5pOcJIiy9FrN/ufKdwWHgBiSStQY70iZnqaN+mv5TgfvvWBrCIWOofMEEG1QPZSXtvKDslZHgCDg7mtSFoyLAYCMaO3cMTF3vXpCRZPJkWykXukJiAAwKsmwYFzs7S8f16rISL2SoQbKQp2afmK+5ZH3S9891ChI8nSL8VczEgGgpNF578ai4ATyyXoHANxzbfLd16T8p6Tjf989e/P+85eOAcBflg6/bnhkn430iI9QP7kw63fvnEowqm887ynk27k1acozp7fdfPAFRkFadLGUgvSJXHAO4HwGmr0rdeba8u3bmo6rFDRJnD0ne1qLn6/YE/w5OObzgGXWrOjc+y03rCvbeduh9QxJMQT1oCWPAKLQVhOrDo9VhwfXHx2etL35RK2nY7wxdYY569HiTWqK0VEqSkECAKOgfjvshj+V5t96aL0oS3HqiBXZc2gF6eJ9K4o31bjbg43M3v+XVG3UmtxFZ9xtT5/+KPgW0PMVe56v2DMvbuzd6dfcb7lhTenHtx5aDwA9jfQcF6OgHrDMeqz4g+cr9jySPYdRDJ3/2yP0XRA9D86BwKX8EOnlhhclPyee/5kAXpR4QWaVZJ9bnc/p4xlKEZzg/dYuSSMXxcF71SQzyAufDLJbCGgp5fnj9X3yiVxAEsL6f9m/N04SeEnUnJdALt5HKcg+3/ofPBfvA4DBjF8hhCB0AgAhhNA5hs4cAEIIoYuCAYAQQiEKAwAhhEIUBgBCCIUoDACEEApRGAAIIRSiMAAQQihEYQAghFCIwgBACKEQhQGAEEIhCgMAIYRCFAYAQgiFqKEWALIM3R6+08Xx4gWKvPdmc3P3vHayvNn1/XXs0srPz29qajpw4MCBAweCS/a1la4oet8zYBXfi7W2bPtb1oPBxpcWrF9asP4XX/2zxNF4wQ2D7LzXJ/ZdfqDN73joxFsljkYZ5M6Aq8Vn7/lfZ8DVu5zv96SpqSk/P9/lcm3YsMHlumL+3RG6tIbUF6O7fPyKTWWyLOvUdFWbe+WCzBEJ+sFsKEqyzc31VG+//Hk8HkEQvN5vyptwsuAS/JJ8EbF3QS7eHyzbMsmUnqmP7Qg4/1axm5OEwWzbzXl+f/LdLH3cw5k3nv9XSZadvI+TBDfvX1Wytc3voIizX46drDE9ljP//O+LvrQEQfB4PJIkORwOSbqUJw2hK8jQCQBBlDfstd4xPTHdrKlscceEqV7eW5dsUp9fA2AoiY2N/QH2oiYZtZoBAMWgi/eWOZs7OXelu8XBew0XKhVwZ9qMWdG537WX34rRaFQqv9+wQeiyNXQCoLzFpVCATkX+4b3TGdHacA1tidaUt3jGp4aVNbtWf1hR0eJmleQd0xKXTUugSYUsw86itr/sOOPjxOmZJk64wG1gh4v707aKAxU2lvmmEQA4WGn7T0lHfIT69S/qOUF6/ucjJqVHAMA7BY2egNDuDOQfb9UoyVfvHJ0apWns8j26qbSk0aVTkXfNTL51SkLwitpfI/2ZN2+eUqk0m80k+U1VGV4Sn6/cc8RWTSrIhfHjb0ueQgDBScKGqr1720s5SYhXRyy33Jihj/EIgb+W77ToY3Y2F3VyriTW9MfsufFsBABUOlvWVexs8nUnsSYAOX7A2rwu3r++6tOCjkoAmBKZcV/69TpaFfzT4c6q8REpzT57hbNlgjENAGSQ8xuPv2n9khOFEWGJfF/l6Xtr8zv+XrF7kjF9a+PRjoBzpjn7fzN/AgD72koLbGfMKsOO5pOiJP5v1k3TIi1dnHtd2c4iRz1NkNMjM3+TcX2w+k1/jcTHx8+bN0+tVi9duhQDAIWsoRMApxqc2XG6/5zuvHNGssPLd7gCkTqlw8vbvfxTH1YsnRw/Z3R0Xaf3obdOZcZqp2YYT1odL35S/dTCrKkZETtOth2r7R6gcT8nrtpSlmbWHHx8WqebW/5OSZRBOWd0NAD4OCn/eOuiSXHv3jeOJhVa1dkrssvPv7a//t7rUrY9PFGWwaRj7F7+kfdLp1mMr/3PmIYu38NvlRh1TF6uub9Gdu/e/cYbb/T0QafT/fGPf0xKSgIAlmUBoPfVHwBsnHtx4qQV2XMPtJe/WvP5uIiUTH3slobCMmfzvybcaaDZl6s+e6nqsz+NXCTJUnvAydvFF8YuUwDx1OkP36z7ckX2XAfvfa5yV44+/u+jf97gsz1zetsA50QGeX3Vp92c583J9wLAqlNbNtbuvz9jFgA4eG+tp31p0pT97WUnuq3BACi01bxXf/je9OunR2XmNx2vcrf2NOXkfC0+OwAoCCKc0QSv3ZIsWz2d3bxneeaNkUp9T31KThYKOs/MiMr62+if0QqFnmI5Sfhz2XY1yWyecr9f4lae2rKx5sDd6dcM0AhJksFzGPwvQqFp6ASALINJpzxc1Z1kUh+vC0Tqzt7WhbH0u/eNEyW5y8OxSjLRqC5pdE7NMB6u7hqRYJhmMRIETEoPN2rPFiM83eh87/A385zX5kTNyDJVtXs6XNwTCzJVDBkfoZ4/NuZAue2mUdHB+/eceN2916XoVOeezOmZpmVXJfaMmpxu7CYIWDIpjlQQySZ2/rjo3UXt1+VEUSTRZyN5eXl5eXmDPwPRKsP4iBSSUIwzpn7QeKTR15Wpj12aNHlp0mQX72v3Oy36mKNdtXbOG6wJfFVUhoFWA8AkY/rn7WUeIVDlaguIwsKE8SzFWHQxSaxpgN01+7qrXK33Drs+2MjcuDFbGwtdgl9HqSqcLTJAlj42IPIfNR1z8T4drT7aVZuqjZppziKAmGxM39F8oqepTQ1fbW08CgAqkl6eOXu4IT64XEnSd6XOzA1LPGfXSazxnvRrddTZp41yZ3NnwPVo9jyWYlhg5seP29zwVTfnCWc0AzSCEBo6ASCIkicgcIIkiHJli2dienhJo3O6xSjL8E5Bw8YD9UkmdWy4qrrdkxOvAwBrpy/dzJ4/pm3SKScPM/b8GheuAoBWe+BMqztvbUHP8lGJBk9A0KooACCJvofGScV//cHHSRRBkIqzi2LD1Pu8nX5e1JJ9N9La2trc3PxNaySZnp6u0WgufC5kmQBClCUAaPR2PVv2sZ3zpGiifCIn9DXwoqWVMsiSLHVyLg2lNAyupm6b39nFeYI14oPCaNbN+3WU6rCtSpLlLzsqHIKvm/M0+Lqy6bgWnz2RNfZZZ7i/OQAFQfR5ahWEAuRvZuy9IgcAPfWEwxkNL4nBwvEDNIIQGjoBYGBpa6d3WLRm8T8Kr8k2rdpSNivXnBKpqWpzbz3a8sqdo1MiWQB45P3S4PpJJnVVm1eW4ZyLg9mgnD3SfH7jlhjdP27PNem+fdVyiiQCgiR+/a6RJyCoGEXw9r9PNputpKSk51eGYeLj4wcVAL28WfdlMmtaPnYZAcTx7rr1Zz4dYGUTo/MIAQfvG0xd9TCaNdDs07k/ydbH9V7u4n3V7naWZE50W4NLCm012fq4GHVYvdcmgzzIWvODRxEKUZJ6Xjn1izxJKCgFOfBWCKGhEwAT08Of2Va5fHb6L6YnyTJIshy81+ZF2ceJDh8PAKVNriKrPSVSDQCT0iJ2nGgtb3Flxeqq2jwOLz9A45kxGpoithQ23zkjSUEQe0s7GEoxzWIcYJPzjUjQywBfVnbNHml2+oWthc2zcs0qut/rVE5OTk5OzkXt4nwBSfDJHC+JgiTtby/zCX2/mB+UrjMrSWpfe+nPkqd2+F2tfvsAk8AJrDFGFbap/qvfZ97EUsyxrtoad/vNiRPOuNs8gv/JEQvj1BEAsKWh8MuOikWJE8dFpBRUnimxN44IS6h0tQZfML0k0rXRRqX2k9ZTd6XNDIjCrpaiVG2USam9VO0jNFQNnQCINqgeyktb+UFZqyNAEHD3NSkLxsUAQEa0du6YmLtePaGiyeRINlKv9AREABiVZFgwLvb2l49rVWSkXslQA30mTqemn/xp5mOby94uaCQJiDeq1yzKvtgeGrXMY/MyHnm/9LldZzhBnjsm+paJ3/tLnLcmTXnm9LabD77AKEiLLpZSkD6R0/bzlr2BZu9Knbm2fPu2puMqBd0zZbqntfj5ij3Bn4NjPg9YZs2Kzr3fcsO6sp23HVrPkBRDUA9a8gggCm01serwWHV4cP3R4Unbm0/UejrGG1NnmLMeLd6kphgdpep9h/58xZ6e9lO1UWtyFw3mEaQHSzEPWW58uvSjJQX/kEEepo3+dfq1l/w5A6Ghh5C/HksNBC7lh0gvN7wo+Tnx/M8E8KLECzKrHOxwgdsvAID2vPnei+Ly8SqGDL5F+sNw8F41yQTfrrkgGWS3ENBSykFeQ30iF5CEsAu97B/ESQIvid/T57xcvI9SkD2TAQihgYVKACCEEDrHUPsuIIQQQoOEAYAQQiEKAwAhhEIUBgBCCIUoDACEEApRGAAIIRSiMAAQQihEYQAghFCIwgBACKEQhQGAEEIhCgMAIYRCFAYAQgiFKAwAhBAKURgACCEUojAAEEIoRF3WAeByuV566aWKigq5VwVwhBBCl8RlXRBGFMXCwsL8/HyPxzNv3rypU6cqld9LJSmEEApBl3UA9Oju7t6/f/++ffsWL148ZcqUH7s7CCE0FFzWQ0BBgUCgrKzsyJEjERERMTExP3Z3EEJoiLisnwC8Xu8bb7xx9OjRyZMnz549Ozo6miAGVaYcIYTQBV3WAeB2u4uKikaOHKnVan/sviCE0FBzWQcAQgih788VMAeAEELo+4ABgBBCIQoDACGEQhQGAEIIhSgMAIQQClEYAAghFKIwABBCKERhACCEUIjCAEAIoRCFAYAQQiEKAwAhhEIUBgBCCIUoDACEEApRGAAIIRSirvgAEEXR7XZfiVXj3yloXJNf+WP3AiEUuq74ACgpKXn33XclSQr+errR+cq+Oj8v/ri9GgyXn3f4hB+7Fwih0HVlB4AoikeOHJkwYQJJksElLfZAQWWXIF55DwQIIfQDo37sDgyWzWb7+OOPJ0yYkJ2d3bOwra2tq6srNTUVAMqbXY9uLutyc15OXPj8EYKAZVcl3jolHgAau3yPbiotaXTpVORdM5NvnZJAEHCw0vbBkWZPQDhW64gJVz0+3zIxLRwAREl+u6DhlX1WLyfmJujXLM6ONqhsbu5P2yonD4t46bMau1e4JjvyifkZOjXdX295UdrwWd37XzV5A2JWnO6phZmpURoA6HBxqz8sP1jZlWBUJxrVrJICgNLS0iNHjsyZM8doNH7fpxEhhHqQq1atCv4kipfjsIksy3V1dRs3bty8ebPFYhk3bhzDMD1/PXbsmF6vz83NBQCTTrl4Ulx8hLrV7n/97jG/vDppRIIeAOxe/uG3S66yGF/6xchrciL/vrsmTEOlm7WVLZ5NhxsfnW95fL7FExD/td96daZJp6byj7e+e6jpn78a9bvZ6e1O7t9f1F+XE8kJ0mv7rdEG1V9vHX7LxLhNXzURBBFsv09bCps/L+t8895x912f0uYMfHS0+brhkQDEk1vLKVKx8e4xN42O3nGiVaOirhseqVarrVbrxo0bjx8/Hh0dbTQaCYL4Ac4tQijEXdZPAB0dHevXrydJct68eQ888EDPOE+Q1+s9duzYggULBm7kdKOTIGDJpDhSQSSb2PnjoncXtV+XEwUAKZGajGgtqSCWTIrbX9ZZ2eqO0NJ7itt+MT0x2cQCwMLxsftKO8ua3UkmtZohZ2SbVAypYsjxqWElDU6YDI1dvte/qA98PeUwIsGwaGIcACyaGLdoYpzbL9jcXE6c7rOSDqdPkGS5pt27amGmTkUBwMT08NoOHwBotdpbbrnl5ptvrqmp+eSTT15//fUHH3zQbDZ/D2cUIYS+cVkHAMuyGRkZhw4dqqioSEhICA8P7/3X+vp6hmESEhIGbsTHSRRBkIqz99SxYep93s5zZolJBaGkFIIoC6Ls5ySN8uxpUdEKNa1weHkAde/1NUqy3QkAoFPTE1PDeenslENsuCr4Q6vDv+K90nZXYESCwRMQeFECgE4XRyog2qDss592u/348eOlpaVjx47VaDQXPjsIIfTdXNYBoNFobr311gULFhw4cOCxxx6LjIz81a9+Fbziy7J8/PjxUaNG0XS/A/FBFEkEBEn8+hrtCQgqRkGR/zXGIgOIsgwACoJQKMATOPtyjijJgiyrmX6nyg1q6voRUecvf3WfNTte99rsMQQBJY3OJ7eWA4BJx4gStDoCUfr/ygCr1bphwwaHwzF37tw1a9ZotdoLnhmEEPruLusACFKr1bNmzbruuutOnDghCGcvzV1dXVarddasWeesbGDpTjfX6ea0qrOHNiJBLwN8Wdk1e6TZ6Re2FjbPyjWraBIAOlwBu5fXqqgvK2xdHt4So2WV5LU5UfnHW2ZkR+pV1P5yGydImbG6nvwYJB8nejlRkCRRlD851e72CwBg0ipTo9gdJ1qzYrWiKJc1uVXM2UGtRYsWjRgx4pwxLoQQ+l5dAQEQRJLkuHHjen6tqqpKSkqKiIg4Z7VRSfoxyYYlLxbSlGLysIg1i7KNWuaxeRmPvF/63K4znCDPHRN9y8TY4MqcIP16Y5EnIAQE6fH5lgSjGgBumRjb1O27ad0hhiJYhnp2cbZRy7Q7AxfV2ztnJD30dsm0p75Q0uTE9HCGUvh5iSKJB/PS7n/j1LVrChiSMBuUCUYWAJKSkpKSkr7T2UEIoYtH9HyGNhC4uGvcj0gQhHfffXfChAkWi6XPFYJ33D0PAUEuH69iSJo8O57zn5KOtw82vHh7rizLvZcH8aLk58QBXvQcjHP2+M1yv8AyZM+0BEII/SiumCeA3iiK+vnPfz7ACudc+oP6u5r3uZwmFbT6u35Krt899tU9hBD6gV3ZnwT+LmLClFMyIs6ZDUYIodBxRQ4BIYQQ+u5C9wkAIYRCHAYAQgiFKAwAhBAKURgACCEUojAAEEIoRGEAIIRQiMIAQAihEIUBgBBCIQoDACGEQhQGAEIIhSgMAIQQClEYAAghFKIwABBCKERhACCEUIjCAEAIoRCFAYAQQiEKAwAhhEIUBgBCCIUoDACEEApRGAAIIRSiMAAQQihEYQAghFCIwgBACKEQhQGAEEIhCgMAIYRCFAYAQgiFKAwAhBAKURgACCEUojAAEEIoRGEAIIRQiMIAQAihEIUBgBBCIQoDACGEQhQGAEIIhagrOABkGUoanS6/8GN3BCGErkhXcAB0ebhHN5Ueq7Vf8padPv4fn9Q0dvkuecsIIXT5uIIDwKhltj08aUaW6ZK37Oel/eWddi9/yVtGCKHLByHLcvCnQCDw43ZlYDab7eOPP54wYUJ2dnZ5s+vRzWWegAAAj8+3TM0wAoA3IK75uGJUYtibBxsabL7h8bo/L82JNqhsbm7V1nKTltlZ1KYgiF9enXjH9ESaVBystG0tbFl9cxarJG1u7tFNpQ/mpSUa2cc/KDvV4Oj28no1RZOKnDh9cJ0f+wQghNAlRv3YHbgAWZbr6uo+/PDDysrKa6+9NjExEQDSzJoNvxzlDgiPbS7zcVJwTUmWG7v8vGh/89djFQT8cVPpq/usj823iJJc3eYZHq8vWDm9qN7x+3dPJxjVeblmHyd1uTlJlgFAlGSbmxMkmVWSf71teLszcN/rRSt/mjk8Xv9jHjxCCH2fLusA6OjoWL9+PUmS8+bNe+CBB0jy7G04TSpMOkZFK2gF8V8byHBdTqRORQHANdmR+cdbvAERADRKcmpGBKkgxiSHzR5l/qLclpdr/sGPBiGELi+X9RwAy7IZGRnt7e0VFRVOp/OittUoKUkC6esBrl7LSfHcZQghFIou6wDQaDS33nrr2rVr9Xr9Y489tmrVqoaGhu/YpoRXf4QQAoDLPACC1Gr1rFmzXnjhhZtuukkQvs1b/35esnb6AKCxy7enuH1qRgQAGLVMl4frdHMAUNLgdPR650dJKWhSUdXmuURHgBBCl6PLeg6gN5Ikx40bF/y5pNF578ai4EfATtY7AOCea5Nvm5LQ37aUgnj9gPVvu6rcfmFWblRebhQADE/QjUoyLHmxUM2QI5MM0WGqnvUNLL1sWsLqjyr+tqtaoyRfuXN0XLiqv8YRQugKdcW8Bvqt9bzSk27WCKKsVf1X5vl5EQBUdB9vefKi5OUkvYoiiPP/iBBCV7wr5gngu1PRJNB9LewHTSoM6itgiAwhhL6doX+BU9GKqzNNYex5136EEAptQ38ICCGEUJ+G/hMAQgihPmEAIIRQiMIAQAihEIUBgBBCIQoDACGEQhQGAEIIhSgMAIQQClEYAAghFKIwABBCKERhACCEUIga+l8G5w2Ij39QdrrJCQBXZ5pWzM34YfZbXl7e3t6elpb22WefLV68WKlUeoTA06c/uiF6xExzgrcR6AAAHStJREFU9ndsPD8/f+zYsdXV1QAwffr0S9FfhFDIGfoBoGbIx+ZbeFF6u6CxzfHDfd8Rx3Fer1cQBKfTGfzCJUmWXIKfk/uoaeMTubfqDk4wpo0MSxxM4x6PRxAEr9d7iTuNEAolQ38IiCAgXENH6ZUs8+McrNFoVKkuUE9GkMQie32r336xjcfGxn7bfiGEQt2Q+jZQT0D4++7q/OOtADB3TPSDeWka5TePOBv21tZ2+J5dfHb4RZbhgyNNL++t7XLzSSZ2xdyMiWnhAyxvdfhXf1hxuLqbUhDnN34+nudFUaRpOhAIsCwLAC7et6J4k0mpLXM2u4XA+IjU5ZbZOlq1tmz7ie46jxBQkjRFkOEMu3L4T80qw1vWg27e3+DtOmm3ainlXWkzrzMPDzbu9XqVSiXP8yRJ0jR+0zVC6NsYOkNAsgx/313d6eL+s2IqADzxQdnfd1f/ca6lv3peX1V3vXuo8dU7xySb2I9PtP51Z9XLvxwVoaFPWh2bvmrqWf6XHWde/sWoMJZet6MqO17/wrJcd0D87b+LthQ2L7sqsbi4+Nlnn+3d7COPPJKbmwsANE0HL83Bq39vr46/yysGnj790cba/fdnzPp91k3BbJgTN3pWdG7Pah4+cKiz6ndZs58asXBT/Vdv1xWMDEuKVOp62iTJfqvZIITQBQ2dALC5ueN1jkfmZOhUFAA8MiejtsMjSjJF9p0Ak9Ijtj440c+LHa5AaiTLC1Jzty9CQwOAKMkevwAAPxllvspi1KnOXmf9nOjnRYOa+r87RkqyDAC5ubnvvPPORfVzsmmYjlbpaNWsmNzdLcUu3qej1f2tnMgaRxgSAGCiMW1PS3GLrzsYAAgh9N0NnQBodwZ8nKj+eqDfbFCaDcoB1nf5+Kc+qiyud+TE60kF4QmcnZsdlWS4a2byo5tLO1zcqETDgzemRWi0APCHORnP7666/tmCMJZeMilu0cQ4AHA4HMFXcXqkpaUZDIbBdJhWkE7e5xW5AQKgh5pkSIVCkKXBtIwQQoMxdALApGPUDCmdndEAPy/6OCmMpfsbAtp+ss3Pi9t/N4kmFcHC8cHlnoAwNSPixpFmPy9+eLTl4bdLXrpjZGy4ilQQK3+aufpmhdXmXflBmd0r3D8r1el0lpSU9G42MjJykAHAS6KeVrMk860PGSGEvouhEwARGiYlkt38VWNWbKaCIP61v7623fPs4pz+hoC8nOj08n5OVCiJz053dLq44PKPT7TuKmp78faRBjU1LiXsgyPNfl50+IR7Xjv5s6kJc0ZHJ0Sos+N0Th8PAAkJCcuWLbuofhZ118+MyvaJ3J6WU0kaU/D2X0UyLMmUOZpviB5BQD+RhRBCl9TQCQCKJP4wJ+PRTaevW1MAAJYYzTOLciiScPuF3/67+GS9I7januK2UYmGF2/PXTA25tCZruueLSAVxNSMCFZJ+jgJAOaOia5u8+T9uUCrIjlB/p+ZSelmLUHA8tnpqz+q+NuuKkmGZJP6z0tzvkUnGQVlC7hvPbRekKREjfH25GnB5bSCXJw4aW359i8PVgDAI1lzxkWkXprzghBC/RhSr4EGuf0CAGhVg8o2t1+gSEJFn/s6DS9KXk7Sq6hzRpCcPp6hFOevf1E4SfCJnIE+9+0gUZa6OU84oyGJof/5DITQj24IBgBCCKHBwDtNhBAKURgACCEUojAAEEIoRGEAIIRQiMIAQAihEIUBgBBCIQoDACGEQhQGAEIIhSgMAIQQClEYAAghFKIwABBCKERhACCEUIjCAPiumpqa8vPzXS7Xhg0bXC5XcOFb1oNry7b/uB3rUV5efuDAgaampjfeeAO/8g8h1GOoBcDpRucr++r8vPiD7VEQBI/HI0mSw+GQpLMlGz18wMX7B9+IT+Reqd5XZK8/Z7md975Y+Umdp+O79JDjOK/XKwiC0+ns+fJXhBAaagHQYg8UVHYJ4o9wmTMajUrlQFWIByBIYpG9vtVvP2e5T+BO2q1dnOc79w4AwGg0qlSqS9IUQmgIGDr1AMqbXY9uLutyc15ODJYCXnZV4q1T4v/9RX1Nu+fx+ZnB2pAFZ7pe2Vv37JKcqjb3B0eaPQHhWK0jJlz1+HzLxLRwAJBl2FnU9tyuM3aPkBWne2phZmqUZoD9iqIYCATUarXP51Or1QRBAMCGqr1FdisAYfV2Rin1f8i6KVMf6xECT5/+6IboETPN2QDwlvVgs7f791k3rS3bfqK7ziMElCRNEWQ4w64c/lMtpXr69Ee17g6PGGApRgGKZI3psZz5GkrZxbnXle0sctTTBDk9MvM3GdczCmpfW2mB7YxKQe9vLyMV5ML48bclTwlWl+R5XhRFmqYDgQDLnluFBiEUsoZOScjMWN2WByb8p6Tj7YMNL96e21MRbFJ6+NbC5up2tyVGJ4jy1sLm0clhZoPyVIPzRJ39uZ+NGJloePVz6zPbKl7+xajYcNXBStuGvbUvLhtpidG+fbBh5dby/7s9V+K8q1evbm5u7tndtdde+6tf/QoASJIMXlXPuba6hcCjOfNSNJGvVn/+98rdfx65RAGES/BzshBcoWeY6PdZN7l434riTXPiRs+Kzu1pYc3IxS0++2OnNt837Pox4cnBhZwk/Llsu5pkNk+53y9xK09t2Vhz4O70azhZKLbX35N27YOWvAPt5a/WfD4uIiVTHwsANE3TNH1+DxFCIW7oBEB/MqJ1Y1PC3j/c9Pj8zBa7v97mu2tmUvBPKZGajGgtqSCWTIrbX9ZZ2eqOCVPtLGr7yShzdpwOAG4aE/NJSUdtpy83wbBu3bqL2m8Sa7LoYgBgbtyYwq6aanf7MK35ux9Ojbu9M+B6NHseSzEs/H97dx4eVXnvAfx31tmTTCaTjSE7WVhiUiICFRW4ItSyWCwafYr3aWvV9pZK++jFW6FFtFi03latvVz1alvFVlSEolgeUUGTSmUJISSTQFYm+zb7ctb7x9BxnEwmkxCWzPw+Dw/PzDvvvO87B573e857zsxh15gqdp8/Osy5AMCoSKhIzqUIskyfraEVFs+QPwAQQiis2A8AgoCV5Rlb95gtQ56PG/qzDKr8VG1IHYokFDQpiLLLJ3QPew+c6v2fQ22BV/tsPj6db2pqCl4l0+v1ubm50QyAIkheEocnaR3fLXIAoKLYC8NgNbwkekU+uA5NkCxJi7I0KT0ihGJV7AcAAJRkaqfplftO9hxrHv7eTdn+kwHBZABRlgFAyVCJambjivz112cFV3C73Waz2eX6chLPy8uLMgBEWWJISs9GOpEQPZogRUnyiJz/qVfkKYKkyYu6ST1CKD7FWgAkqpkBJzfg5ALnAABAyVLr5k/b/JZ5jklXkZsUKO93+KxuXqukP2scHHLxRRlamiKWzja+/En7DcUpOSlqm0d483PLnfOn6dTqtWvXjmskXd5hi3tomlr/fncNRRDZmhQlxSbQqgZb17L0OU7eZ7Z3aekL1+QoKVZNsf6X/Gdu/1XOUATZ4uwLnAMo0KYbFNqDPafvzV/sE4UD3afytKkpitBjGoQQGlOsBUBZdsLXchLvfO4LhiYXzEjevm4mRRIAUJaVaNIrl1+TpmS/3FnmBOmBV065fIJPkDavKZpuUAHA8tLUHqv3O384rmRITpC/e2OWWjGRrZTEqB+ueYOTBYogN8y4xcBqAWDt9Gt3mPd/VtXEEOTspOle4cLSDUNSd2TN32He/1lVIwBsKllZkZwHAHpWs2ra115u/uQvHf9QkMyvStdla1I2Fq14vP7dO6ufl0GeoU1/oGBpcGYghFCUYucy0GBOrwAAwQcBJ9tsT7139tn1pSm6C6vngeuFZFlWshRDfeUrEaIk2z1Cgor258fEyCBbOXcCo6IIMrjQKfi0tGLkrC3K0jDn0rOa4PoAwEmCU/DqWU3wWxy8hyapwMkAhBAar1g7AvALnvpFSW4fcP/u7+e+WZ4emP2D6VTMyEKKJPSaMOXjQgAxcumfAEJHh/82FkWQKQrdyHKWpJPZ0EUeHaO6yOEhhOJcrH0TeKSzPc5HdzcsmWX89nVfuSYyI0mxsDB55AlhhBCKE7G5BIQQQmhMsX8EgBBCKCwMAIQQilMYAAghFKcwABBCKE5hACCEUJzCAEAIoTiFAYAQQnEKAwAhhOIUBgBCCMUpDIAr4BuHn5pYZf/j6N/+jcNPhfyJPIboC8d8acI1EUKXTWz+GFw0/DeRd/kEANi8pujrhYZJbt9s7uvry8/PP3To0B133KFQKMbbQmDS9D94/8aH/E/fv/Ghbxx+KvA0mJV3U0AE/05ccLVopvJAX4GSsB2NOZJAaxFe9evs7Dx+/PjixYt37dp111136XRhfg4PIXQpxG8A5Kdpdn63zOkTHt3d4OEm/+6JHMe53W5BEOx2e+AHl8IKnpeDp0v/47BzaNhZ1cF7tp5+pzJ7wTxDfuTuomwwbOHIFBlt/CGvjlZNEASXyyVJks1mkyS8jSVCl0/8BgBDkSk6VsmQzEX84n80DAaDUnnh959Hzob+qTAw1wfeNebjkVNtg70LAEq+eiP4KNdeglNhzN32MXfqJ9AmABgMhgkcJyGEJix2AuCMxf7Ch62P3V5i0LIAcKrDvvNQ69bbS4w6tqHLsW1PY2O3U62g/n1R1vpF00Nu/xJsV7WlfcD9yKpCADB3OX77QfMT62YatGy/g/vV3sYjjYNqduxGAKCkpKSwsJBhmNWrVwcKQ3bqI8zOYXf/I0yjMsgf9taV6bND7hMQ4TAipJq/TsisHdzIeEX5LpPJtHr1apVKVVlZiQGA0OUUOwGQn6oRJbn67NDK8nQAOHSmryBdY9SxVjf/2J7GygWmleXpbQPuja+dLs7URljxd3h5m0fwPxYkedDJiZLs5cRfvt2Qn6ap2rxowMn9bFddaqJiZXl6bW3tk08+Gfz2TZs2lZaWAgDDMAzDAIBarZ7AxxntWAFGmc37vPY+r6Mya+HF9xVof8wl/mjaHK0k0CxFUf5NNLENhRCasNgJACVL3VqefsQ8sKI0zermj7VYH7p1BgAkqZk3flQhSvKQi1MrqCyDqs5iH+8p33N9rn4Ht+W2YiVLmZJVa+ZmHDEPfrMsvbS0dNeuXZfi44TdJY+geuCsmmZN6uSQ8tHOJIf0Fagzsek+QpsIoatW7AQAACwoSH7raGdzn7PH5tNrmJJMLQDIMuyqPv/KkY7sFFWmXtnc55plGvd1Jj1W39ke5/Id1YGSsqxEl08Qfa7m5ubgmvn5+YmJiRf/WfyCr/uMMKV6RK6qv2lF5jUMSY18NThLIncUTV/RG3OBCyF0ZcVUAKTo2Lm5+qqmoYYux/Jr0pQsBQDnep3vHOt+8fvluUY1AGz6a/0EWk5UM0UZuufvKQ25q/D5fntdXV1widFonKwAGLl8P9oBQaur3yNxpUlZwYVjTvqR+5oUUV5HhBC6ImIqAADgllLjf73ZoGKpBQUXFkN4UfZwos3DA0B9p+NUuzXXGOl26pl61aeNQ1Y3n6hiatptLp8IAMUZGoYm3v6i6/s3ZZME8VF9P0uTi4oM06dPX79+/bhGOIFJduReeUgjH/bUFekyjF+9ofxovYw2KV+KhSCE0NUs1gIg26A2aNnZpoTArnphunbV1zLufemkkqFyjGpjgsI/p9dZ7D985ZTDKwBATYcNAO5fmnPfktybig37T/as2PEPBU0sKjYka1kA0KmYrd8qfnR3w+vVFooAk0G1fd3MSRx2lBfXh92pH+ZcLc7+HxQsHm8XwS+FfP9gsjIAd/YRuprFWgAoWep/v1cWXEJTxP1Lc753U5aXE3UqJlA+25RwZPOikS3oVMzO75a5fSJDE8EXeualanb9qMLpFQBAq5zgdgu5ADR4bQdGn/RD3huSAWZ7dyKjylEbw/YY0kVIm2F7jzD7jzcYcAkIoasZEfiSqs/nu7JDQQghdDnhj8EhhFCcwgBACKE4hQGAEEJxCgMAIYTiFAYAQgjFKQwAhBCKUxgACCEUpzAAEEIoTmEAIIRQnMIAQAihOIUBgBBCcQoDACGE4hQGQKiqpsHlO6qX76he+7t/mrscIa9ahjxtA+4xG9lVbdm+ryn6Tjs7O/ft2+dwOHbu3OlwXOj0tfaqHQ37o29kTHU2y8aTr/V6bQCwo2F/ZfXvK6t//8ipv7qEMX4H0CNyAz6HDPJkjaTXa9t48rU6myVQ4uA9Dt4zWv0dDftfa6/yPw67rRBCE4ABEGpubtKf7p/7zN1zZBkEKXTKe/Hjthc/ahuzkeA7y0dDEASXyyVJks1mkyTJX+jifQ7eG30jY+Ikwc57JFkGgB8ULHmm/O5vmSocgleSpchvPNJv/mXdO87JG4wky3bew0kXNhEvidvOvLvtzLu8JIat7+C9Lv5CSoXdVgihCYi1+wFcPCVDKRkKAKhw4bh1bckl7d1gMCgUikvahV8So05i1AlspJujXTbn3YPn3YMAhMU9lKsNf2ODkS7btkIoVsVUANg8wrY95o8bBliK/PZ1mT9elsdQ5KCT+9XepgUzkv9wqMXqFpbMNG5ZU+i/M8zR5uHt+5raB9zZKepHVhVel68frWW3T9z8VsOZTjsA3Fic8siqwsBLkRtx+YRf/+2sTkX/+OY8/z2KwzKZTKtXr1apVJWVlcGTmlPw/rx2d421XUsr7s1f/G9pswHA4h56pvFAo6ObAmKhsfBHBTfrGOXHvfXVg2eVJHO4r4EiqbWma+/OWUgAwUnCH1s/fa+rhiCIWQnTJHmMZZwer/W/Gz+os1lYkr41s2x9zvUsOep/kiHO+XTD+6dsHQxB3WAs/o/Cm/2VT9vOP9d0sNMzHNyIDPI+y4k/t3/GicKcpKzgnf2Tw+3T1QZJlmus7YEAaLJ3P934fqdnOFudAiCb1MmRtxVCaLxiJwB4Ufrl2w1qlqravMgnyhv/XPt/h9vvW5IrSnJjtyPXqH7vZwvsXuEnfz69v6a3coGpqdv5xN7Gn60ouL7I8Fnj4BN7G5+unF2YoQ3buIqlHl1TxIvS69WWXtuXK+aRG3H5hK17GjlBeujWAiVLeb3eZ599tqamJvD2srKyDRs2KJVKiqLUajUA+P8O6Pc5/jP/xsfmrH2z4+jrbdXXJGVracVvGz/I16Y+VVZp492P1u7e13Xi7uyFnCzUWjvuz1/6YNHyI33ml1o+qUjOLU7IfK+r5nCfeVvp7UW6jJeaP2l19UfYhm6B29Hw3nR18i9mfavPZ3v8zLsGVnubqSJsZU4Sft2wX0Wxuxdu8ErcL06//UrLkfsKlgxyzmcb/74is+w209xzjt7Hz+zN16QuTpv5xWDLXzo+/2HBzTekFu/rPHHO2XPhH04Sjw+1Xmco8Er8yeG2Naa5BBA23v1M04FZCabfln/nvGfwiTN7A/2Otq0QQuMVOwHQ1u+2DHl+c/ccJUspAe65IeulT9rvnG8CABVL3TQzRclSSpa6Ni+p7rwdFsCnTYN5Rs3XCw0USXy90KBgyEQ1M1rjBAF6DQMAavYrC0MRGuEF6cm/Ndnc/NOVs/wHHEql8uGHHx7Xh8rVGOckTgeARcaiD3vruj3DpUlZT5ffJYM86HPykpinSTXbuvyVjYqEiuRciiDL9NkaWmHxDBUlZBwbal2YMsPfyPyUguPDrRG6Mzu67Lx7XdYKNc3m0MbFabOODbWuMc0NW7nF2Tfgc/x85mo1zaqBXWOq2H3+6DDnMrDaF+d9X5SlPq9dQyuMCl2To2dx2sxjQ6152tTFaSUEEAsMBe91nfS3Y3EPDXLOcn02JwlH+sxdnuFpquRzjl6fKKydfq2aZot0GdnqlHFtN4RQNGInAHyCBABK5sIEbdCyXk70FwbTKKg+OwBAS69LyVI0RQAATRHzC5In0GmERj6q76cpYnlpamDlRxTFlpaW4AtXdDpdXl4eRY26NBRAESQACLIEAB/21r3cfDiBUU5TJXe4BzOUSSGVaYJkSVqUJSfvtfHuG1KLovw4/T57l8d67z9fDpTkaVNHO/frFjkAUFGs/6me1fCS6BV5GeTX26r/1nUyVZFgVOh6vNYZunQA6PZYs9QGAoiQdmqs7T6RPzHcBgA+kTfbu6epkgc4h4ZWJDJXxSkKhGJV7AQASRCiJHv5CzO+h5MYiqQpUhDDXyiSlaI61+uWZSAIkGWwunkVS/pP/0YvQiOl0xM2rSp85K/1rxzuuHdxDkGAJEmtra09PT2Bt6enp+fk5EQTAAH9PsebHUcfKFh6Q2oxAOw895HFPTRaZS2jTGTUzY4+SI+qcR2tylTpnyj9dpoycczKNEGKkuQROf9Tr8hTBEmTVKO9+1Dvmcfn3O6f9zfXvuWvkKFK6nAPyiAHZ4AM8snhtkRWXW/rBAAFxRwdPLckbWYKq3MJPhvv0WEGIHTJxM5loHlGdUaS8sCpXlGSvZz4zhdds0w6/eirOvPykk+ft9WetwNA24D7By+fbOh0jrfTCI1k6FUlmbqta0t2/7Pzg9peAGAYZtmyZeuDLFu2jGFGHWFYkiz5RGGYcwHAefeQf8d5NAQQFcm5J4ZbLe4hGeSzjh6vyEeoPytxGk2SeyzHRFmSQT7Yc/rjvvrRKhdo0w0K7cGe06IsuQXuQPepPG1qikLLSQInCVbeDQC11o5mZ6+/fkVybrtroM5qAYAmR4//ss4uz3CXZ/ie3EVbZt+2ZfZt9+QuanMNDPicBbo0BUV/3Fcvg9zntfd4rePaSgihaMTOEYCSpTbfVvTQG2f+8g+LJENFbtKGZTOI0PWGL5VlJ963JHfDn2ppCgQRHlyeX5adCAAf1vU/9Eadv853/nAcAJ6qnD2/QP/jP9bWdNj85X+v7S3LSnzuntLRGgm4JivhpysKnjlwLlOvuiYr4eI/ZpoyceW08ldaj7za9qmWUqQpE30SP9rl8wBwa2ZZnc3yw+OvqigmkVEzxIWjjc21bwXOB9xR/XwSo/5N+d0ZqqSfFq54uvH9dVXPkQRhUGg3laz012lx9t1R/Xyg2Z8U3XJLeunGohWP1797Z/XzMsgztOkPFCwlgChJmHa9seixuj00SaUpE5JYtf+LZtca8m5KK/l57ZsqmtXRSpqkAOC01aKk2BnaNH+zJQmZJEHUWjuWps26N2/xDvP+vZ0nlCTjXwFDCE0uQv7XdYE+3xhfB50qnF6BpogoF3NESbZ7hAQVTZGjZ8VlaWR8PcqSnfckseqRS+pheb66Xj8m/5dyo1x+cfAemqRCGuckwSNyiUzohTqcJPCSqKGjunxTBtkp+LS0IsqPiRAalxgMAIQQQtHAI2uEEIpTGAAIIRSnMAAQQihOYQAghFCcwgBACKE4hQGAEEJxCgMAIYTiFAYAQgjFKQwAhBCKUxgACCEUpzAAEEIoTmEAIIRQnJoyASDLstPp5PlIP2ePEEIoelMmAOx2+wsvvGC326/0QBBCKEZMmQBoampKTU1NTp7InXsRQgiNNDUCgOf5zz//fN68eQRBAEB9ff2rr746ODh4pceFEEJT2NQIgP7+flmWc3Jy/E+zsrI0Gs2WLVu2bdvW2NgYuKcNQgih6E2NO4Lt27cPAFatWhVcKMtyS0vLwYMHOzo6HnzwwbS0tCs0OoQQmpKmwBGA0+k0m80VFRUh5Var9cSJE/X19UVFRRqN5oqMDSGEpi76Sg9gbB0dHRqNxmg0Bkra29t37txps9lWrVq1fft2rVZ7BYeHEEJT1NUeAKIoVlVVzZs3j2GY4PJ169bNmTOHoqgrNTCEEJrqrvYAGB4ettvtxcXFwYXZ2dnZ2dlXakgIIRQbrvZzAC0tLXl5ebjIgxBCk25qXAWEEEJo0l3tRwAIIYQuEQwAhBCKUxgACCEUpzAAEEIoTmEAIIRQnMIAQAihOIUBgBBCcQoDACGE4hQGAEIIxSkMAIQQilMYAAghFKcwABBCKE5hACCEUJzCAEAIoTiFAYAQQnHq/wGmOJ7QGSxH/gAAAABJRU5ErkJggg==;" vertex="1" parent="1">
          <mxGeometry x="487.49" y="490" width="155.03" height="152" as="geometry" />
        </mxCell>
      </root>
    </mxGraphModel>
  </diagram>
</mxfile>
